<svg width="123" height="123" viewBox="0 0 123 123" fill="none" xmlns="http://www.w3.org/2000/svg">
<g filter="url(#filter0_b_1543_1908)">
<g filter="url(#filter1_b_1543_1908)">
<path d="M61.5 0C64.7393 0 67.7908 1.47882 70.7719 2.88721C72.6733 3.80267 74.6216 4.7416 76.5698 5.25802C78.612 5.7979 80.842 5.98569 83.0015 6.15C86.2408 6.40821 89.574 6.68989 92.25 8.21565C94.9729 9.78836 96.8742 12.5582 98.7286 15.2576C99.9492 17.0181 101.193 18.849 102.672 20.3279C104.151 21.8067 105.982 23.0508 107.742 24.2714C110.442 26.1258 113.212 28.0271 114.784 30.75C116.334 33.426 116.592 36.7592 116.85 39.9985C117.014 42.158 117.202 44.388 117.742 46.4302C118.258 48.3784 119.197 50.3502 120.113 52.2281C121.545 55.1857 123 58.2607 123 61.5C123 64.7393 121.521 67.7908 120.113 70.7719C119.197 72.6733 118.258 74.6216 117.742 76.5698C117.202 78.612 117.014 80.842 116.85 83.0015C116.592 86.2408 116.31 89.574 114.784 92.25C113.212 94.9729 110.442 96.8742 107.742 98.7286C105.982 99.9492 104.151 101.193 102.672 102.672C101.193 104.151 99.9492 105.982 98.7286 107.742C96.8742 110.442 94.9729 113.212 92.25 114.784C89.574 116.334 86.2408 116.592 83.0015 116.85C80.842 117.014 78.612 117.202 76.5698 117.742C74.6216 118.258 72.6498 119.197 70.7719 120.113C67.8143 121.545 64.7393 123 61.5 123C58.2607 123 55.2092 121.521 52.2281 120.113C50.3267 119.197 48.3784 118.258 46.4302 117.742C44.388 117.202 42.158 117.014 39.9985 116.85C36.7592 116.592 33.426 116.31 30.75 114.784C28.0271 113.212 26.1258 110.442 24.2714 107.742C23.0508 105.982 21.8067 104.151 20.3279 102.672C18.849 101.193 17.0181 99.9492 15.2576 98.7286C12.5582 96.8742 9.78836 94.9729 8.21565 92.25C6.66641 89.574 6.40821 86.2408 6.15 83.0015C5.98569 80.842 5.7979 78.612 5.25802 76.5698C4.7416 74.6216 3.80267 72.6498 2.88721 70.7719C1.45534 67.8143 0 64.7393 0 61.5C0 58.2607 1.47882 55.2092 2.88721 52.2281C3.80267 50.3267 4.7416 48.3784 5.25802 46.4302C5.7979 44.388 5.98569 42.158 6.15 39.9985C6.40821 36.7592 6.68989 33.426 8.21565 30.75C9.78836 28.0271 12.5582 26.1258 15.2576 24.2714C17.0181 23.0508 18.849 21.8067 20.3279 20.3279C21.8067 18.849 23.0508 17.0181 24.2714 15.2576C26.1258 12.5582 28.0271 9.78836 30.75 8.21565C33.426 6.66641 36.7592 6.40821 39.9985 6.15C42.158 5.98569 44.388 5.7979 46.4302 5.25802C48.3784 4.7416 50.3502 3.80267 52.2281 2.88721C55.2092 1.47882 58.2607 0 61.5 0Z" fill="white" fill-opacity="0.76"/>
</g>
</g>
<path d="M21.6269 56.0432L21.4184 56.9795L17.1441 56.0779L16.7618 57.9157L17.6306 58.1584C18.3256 58.3665 18.9164 58.5745 19.3681 58.7826C19.8199 58.9906 20.1326 59.2334 20.3411 59.4761C20.5496 59.7188 20.6539 59.9616 20.6886 60.1696C20.7234 60.4123 20.7234 60.6551 20.6539 60.9672L19.7504 60.8631C19.7851 60.7938 19.7851 60.6897 19.7504 60.5857C19.7504 60.4817 19.6809 60.3777 19.5766 60.239C19.4724 60.1003 19.3334 59.9616 19.1596 59.8575C18.9859 59.7188 18.7426 59.5801 18.3951 59.4414C18.0476 59.3027 17.6654 59.164 17.2136 59.06L15.6846 58.6092L16.4491 54.9683L21.6269 56.0432Z" fill="#191919"/>
<path d="M22.0434 50.1485L22.8427 50.0791C23.1207 50.7033 23.1555 51.3968 22.9122 52.1943C22.6342 53.0266 22.2172 53.5814 21.5569 53.9281C20.9314 54.2749 20.2017 54.3096 19.4024 54.0668C18.6379 53.8241 18.0819 53.408 17.7344 52.7838C17.3869 52.1597 17.3174 51.4662 17.5954 50.6339C17.8039 49.9751 18.2209 49.455 18.7769 49.1776C19.3329 48.8655 19.9584 48.8308 20.6534 49.0389C20.8619 49.1082 21.0704 49.1776 21.2442 49.2816L20.0279 53.1653C20.5144 53.2693 20.9314 53.1999 21.3137 52.9919C21.6959 52.7838 21.9392 52.4024 22.1129 51.8823C22.2867 51.2234 22.2867 50.6339 22.0434 50.1485ZM18.4294 50.946C18.2904 51.3968 18.2904 51.7782 18.4641 52.1597C18.6379 52.5411 18.8811 52.7838 19.2981 52.9919L20.2712 49.9404C19.8542 49.8364 19.4719 49.8711 19.1591 50.0444C18.8464 50.2178 18.5684 50.5299 18.4294 50.946Z" fill="#191919"/>
<path d="M20.3755 46.0566L19.611 47.8597L18.7422 47.513L20.6187 43.0398L21.4875 43.3866L20.723 45.1897L24.754 46.8541L24.4065 47.721L20.3755 46.0566Z" fill="#191919"/>
<path d="M29.6198 37.8038L29.1333 38.6014L27.222 37.4224L25.693 39.9537L27.6043 41.1327L27.1178 41.9303L22.5654 39.1562L23.0519 38.3587L24.9285 39.503L26.4575 36.9716L24.581 35.8273L25.0675 35.0298L29.6198 37.8038Z" fill="#191919"/>
<path d="M27.4305 33.747L26.666 33.4696C26.7355 32.8455 26.9788 32.2907 27.3958 31.7705C27.8475 31.2157 28.2993 30.9036 28.7858 30.8689C29.2723 30.8343 29.7936 31.0423 30.3843 31.4931L32.9559 33.5043L32.3999 34.1978L31.8438 33.8164C31.9828 34.4752 31.8438 35.0647 31.3921 35.6195C31.0793 36.0009 30.7318 36.209 30.3148 36.2784C29.8978 36.3477 29.4808 36.209 29.0986 35.8969C28.6815 35.5848 28.473 35.1687 28.473 34.6833C28.473 34.1978 28.6468 33.747 29.0291 33.2616C29.3766 32.8108 29.7241 32.5334 30.1063 32.4294C29.6198 32.0479 29.2376 31.8745 28.9248 31.8399C28.612 31.8052 28.334 31.9786 28.0213 32.36C27.7085 32.7414 27.5348 33.1922 27.4305 33.747ZM30.9056 34.8567C31.2183 34.4405 31.3226 33.9551 31.2183 33.3656L30.6971 32.9495C30.3148 33.0535 29.9673 33.2962 29.6893 33.6777C29.4808 33.9204 29.3766 34.1978 29.3766 34.4405C29.3766 34.7179 29.4808 34.926 29.6893 35.0994C29.8978 35.2728 30.1063 35.3074 30.3148 35.2728C30.5233 35.2381 30.7318 35.0994 30.9056 34.8567Z" fill="#191919"/>
<path d="M37.8905 31.8047L37.1955 32.4289L32.1914 26.6034L32.9212 25.9792L33.3382 26.4647C33.3382 26.1873 33.4077 25.8752 33.5814 25.5631C33.7552 25.251 33.9637 24.9736 34.2417 24.7309C34.8324 24.2454 35.4232 24.0374 36.0835 24.1414C36.7437 24.2108 37.3345 24.5575 37.8557 25.1817C38.377 25.8058 38.6203 26.4647 38.5855 27.2275C38.5508 27.9557 38.238 28.6146 37.6125 29.1347C37.126 29.5508 36.6742 29.7935 36.2225 29.8282L37.8905 31.8047ZM34.5892 25.5631C34.1027 25.9792 33.8942 26.4993 33.8942 27.1235L35.597 29.1347C36.0835 29.0653 36.5352 28.8573 36.9522 28.5452C37.3692 28.1985 37.6125 27.7477 37.6125 27.2622C37.6472 26.7768 37.4735 26.326 37.0912 25.8752C36.7437 25.4591 36.3267 25.2163 35.875 25.147C35.4232 25.0776 34.9715 25.2163 34.5892 25.5631Z" fill="#191919"/>
<path d="M41.9562 25.7366L40.4967 26.6035L37.7861 22.0263L38.5854 21.5408L39.3847 22.8932L40.1492 22.4424C40.7747 22.061 41.2959 21.957 41.7824 22.061C42.269 22.165 42.6165 22.4771 42.8945 22.9625C43.1725 23.4133 43.242 23.8988 43.1377 24.3843C43.0335 24.9044 42.6165 25.3205 41.9562 25.7366ZM40.4619 23.344L39.8712 23.6907L40.8789 25.3552L41.4697 25.0084C41.8519 24.7657 42.0952 24.5576 42.1995 24.3149C42.3037 24.0722 42.269 23.8294 42.0952 23.5174C41.7129 22.9625 41.1917 22.8932 40.4619 23.344ZM45.5355 23.5867L44.7362 24.0722L42.0257 19.495L42.825 19.0095L45.5355 23.5867Z" fill="#191919"/>
<path d="M51.3736 21.2985L50.5048 21.6452L49.7056 19.5647L46.9603 20.6049L47.7595 22.6855L46.8908 23.0322L44.9795 18.0736L45.8483 17.7269L46.6475 19.7727L49.3928 18.7325L48.5935 16.6866L49.4623 16.3398L51.3736 21.2985Z" fill="#191919"/>
<path d="M53.7711 20.6739L52.8329 20.882L51.6514 15.7153L52.5896 15.5073L53.7711 20.6739ZM54.9874 14.9525L56.2037 14.675L54.5009 17.6572L57.6285 19.7724L56.3427 20.0498L53.3889 17.9346L54.9874 14.9525Z" fill="#191919"/>
<path d="M62.1806 17.9346L62.5628 18.6282C62.1111 19.1483 61.4856 19.4604 60.6516 19.5297C59.7828 19.6337 59.0878 19.4604 58.497 19.0096C57.941 18.5588 57.5935 17.9346 57.4893 17.1024C57.385 16.3049 57.5588 15.646 58.0105 15.0566C58.4275 14.4671 59.0531 14.155 59.9218 14.051C60.6168 13.9816 61.2423 14.1203 61.7636 14.5364C62.2849 14.9179 62.5976 15.4727 62.6671 16.2009C62.7019 16.4436 62.7019 16.6516 62.6671 16.825L58.6013 17.2758C58.7055 17.7613 58.9141 18.1427 59.2963 18.3854C59.6438 18.6282 60.0956 18.7322 60.6168 18.6628C61.3118 18.5935 61.8331 18.3507 62.1806 17.9346ZM59.9913 14.9525C59.5396 14.9872 59.1573 15.1606 58.8793 15.4727C58.6013 15.7847 58.4623 16.1315 58.4623 16.5476L61.6593 16.2009C61.5898 15.7501 61.4161 15.438 61.1033 15.2299C60.8253 14.9872 60.4431 14.9179 59.9913 14.9525Z" fill="#191919"/>
<path d="M99.7568 66.0905L99.7916 65.1542L104.17 65.397L104.274 63.5245L103.371 63.4204C102.641 63.3164 102.05 63.1777 101.564 63.039C101.077 62.9003 100.73 62.7269 100.487 62.5189C100.243 62.3108 100.104 62.1028 100.035 61.8947C99.9653 61.6867 99.9306 61.4093 99.9306 61.0972L100.869 61.0625C100.869 61.1319 100.869 61.2359 100.904 61.3399C100.938 61.4439 101.008 61.548 101.112 61.652C101.216 61.756 101.39 61.8947 101.564 61.9987C101.772 62.1028 102.016 62.2068 102.398 62.2761C102.745 62.3802 103.162 62.4495 103.614 62.4842L105.247 62.6576L105.039 66.3332L99.7568 66.0905Z" fill="#191919"/>
<path d="M100.243 71.9853L99.4789 72.1587C99.0966 71.5692 98.9576 70.8757 99.0966 70.0781C99.2356 69.2112 99.5831 68.5871 100.174 68.171C100.765 67.7202 101.46 67.5815 102.294 67.7202C103.093 67.8589 103.684 68.171 104.135 68.7605C104.587 69.3153 104.726 70.0088 104.622 70.8757C104.518 71.5692 104.205 72.124 103.684 72.5054C103.162 72.8869 102.572 73.0602 101.842 72.9215C101.599 72.8869 101.425 72.8522 101.216 72.7828L101.842 68.7605C101.355 68.7258 100.938 68.8645 100.591 69.1419C100.243 69.4193 100.07 69.8354 99.9654 70.3555C99.8611 70.9797 99.9654 71.5345 100.243 71.9853ZM103.718 70.6329C103.788 70.1822 103.718 69.7661 103.51 69.454C103.301 69.1419 102.989 68.8992 102.572 68.7605L102.085 71.9506C102.537 71.9853 102.884 71.9159 103.197 71.6732C103.475 71.4305 103.649 71.0837 103.718 70.6329Z" fill="#191919"/>
<path d="M102.537 75.7651L103.023 73.8926L103.927 74.1353L102.745 78.8165L101.842 78.5738L102.328 76.7013L98.0889 75.6264L98.3321 74.7248L102.537 75.7651Z" fill="#191919"/>
<path d="M94.5439 85.2659L94.9262 84.399L96.9765 85.3005L98.158 82.5958L96.1077 81.6943L96.49 80.8274L101.355 82.9426L100.973 83.8095L98.9573 82.9426L97.7758 85.6473L99.7913 86.5142L99.409 87.3811L94.5439 85.2659Z" fill="#191919"/>
<path d="M97.2552 89.011L98.0197 89.1844C98.0197 89.8085 97.846 90.398 97.4985 90.9529C97.1162 91.577 96.6992 91.9238 96.2127 91.9931C95.7262 92.0972 95.2049 91.9238 94.5447 91.5423L91.7646 89.8432L92.2512 89.0804L92.8419 89.4271C92.6334 88.803 92.7029 88.1788 93.0852 87.5893C93.3284 87.1732 93.6759 86.9305 94.0929 86.8264C94.5099 86.7224 94.9269 86.7918 95.344 87.0692C95.7957 87.3466 96.039 87.728 96.1085 88.1788C96.178 88.6642 96.039 89.1497 95.7262 89.6352C95.4482 90.1206 95.1007 90.4327 94.7532 90.5714C95.2744 90.8835 95.6567 91.0222 95.9695 91.0222C96.2822 91.0222 96.5602 90.8141 96.8035 90.398C97.0467 90.0513 97.2205 89.5658 97.2552 89.011ZM93.6412 88.3175C93.3632 88.7683 93.3284 89.2884 93.5022 89.8432L94.0929 90.19C94.4752 90.0166 94.7879 89.7392 95.0312 89.3578C95.205 89.0804 95.2744 88.803 95.2744 88.5602C95.2744 88.2828 95.1354 88.0748 94.8922 87.9361C94.6837 87.7974 94.4404 87.7627 94.2319 87.832C93.9887 87.9014 93.8149 88.0748 93.6412 88.3175Z" fill="#191919"/>
<path d="M87.1079 91.9237L87.7682 91.2649L93.1545 96.7437L92.4943 97.4025L92.0425 96.9517C92.0773 97.2291 92.0078 97.5412 91.8688 97.8879C91.7298 98.2 91.5212 98.5121 91.278 98.7548C90.722 99.275 90.1312 99.5177 89.471 99.4484C88.8107 99.4137 88.1852 99.1016 87.6292 98.5468C87.0732 97.9573 86.7604 97.2985 86.7604 96.5703C86.7257 95.8421 87.0384 95.1832 87.6292 94.5938C88.0809 94.143 88.5327 93.9002 88.9497 93.7962L87.1079 91.9237ZM90.861 97.9226C91.3127 97.4718 91.4865 96.9517 91.4517 96.3275L89.61 94.4551C89.1235 94.5591 88.6717 94.7671 88.3242 95.1486C87.9419 95.53 87.7334 95.9808 87.7334 96.4662C87.7334 96.9517 87.9419 97.4025 88.359 97.8186C88.7412 98.2 89.1582 98.4428 89.6447 98.4428C90.0617 98.4774 90.4787 98.3041 90.861 97.9226Z" fill="#191919"/>
<path d="M79.9492 100.35L80.7485 99.8646L83.5633 104.372L82.764 104.858L79.9492 100.35ZM83.4938 98.1308L84.9533 97.2292L87.7681 101.737L86.9688 102.223L86.1348 100.87L85.4051 101.321C84.7795 101.702 84.2583 101.841 83.8065 101.737C83.3548 101.633 82.9725 101.356 82.6598 100.87C82.3818 100.419 82.2775 99.9339 82.3818 99.4485C82.4513 98.9977 82.8335 98.5469 83.4938 98.1308ZM85.0575 100.489L85.6483 100.107L84.6058 98.4429L84.015 98.7897C83.6328 99.0324 83.3895 99.2751 83.32 99.5178C83.2505 99.7606 83.2853 100.003 83.459 100.315C83.8065 100.905 84.3278 100.94 85.0575 100.489Z" fill="#191919"/>
<path d="M74.1455 102.534L75.049 102.222L75.8135 104.337L78.5936 103.332L77.8291 101.217L78.7326 100.905L80.5396 105.898L79.6361 106.21L78.8716 104.164L76.0915 105.17L76.856 107.216L75.9525 107.528L74.1455 102.534Z" fill="#191919"/>
<path d="M70.3583 108.742L69.142 108.984L70.9491 106.072L67.9258 103.818L69.2115 103.575L72.0611 105.794L70.3583 108.742ZM71.8178 103.055L72.7561 102.881L73.7291 108.083L72.7909 108.256L71.8178 103.055Z" fill="#191919"/>
<path d="M63.2689 105.378L62.9214 104.65C63.4079 104.164 64.0682 103.887 64.8674 103.817C65.7362 103.748 66.4312 103.991 66.9872 104.442C67.5432 104.927 67.8212 105.551 67.8907 106.418C67.9255 107.216 67.7517 107.874 67.2652 108.429C66.8135 108.984 66.1532 109.296 65.3192 109.331C64.6242 109.365 63.9987 109.192 63.5122 108.741C63.0256 108.325 62.7476 107.77 62.7129 107.042C62.7129 106.799 62.7129 106.591 62.7476 106.418L66.8135 106.21C66.744 105.725 66.5355 105.343 66.1879 105.066C65.8404 104.788 65.3887 104.684 64.8674 104.719C64.1724 104.754 63.6512 104.996 63.2689 105.378ZM65.3192 108.464C65.7709 108.429 66.1532 108.291 66.4312 108.013C66.7092 107.736 66.883 107.389 66.9177 106.973L63.6859 107.181C63.7207 107.632 63.8944 107.944 64.2072 108.187C64.4852 108.395 64.8674 108.499 65.3192 108.464Z" fill="#191919"/>
<defs>
<filter id="filter0_b_1543_1908" x="-4" y="-4" width="131" height="131" filterUnits="userSpaceOnUse" color-interpolation-filters="sRGB">
<feFlood flood-opacity="0" result="BackgroundImageFix"/>
<feGaussianBlur in="BackgroundImage" stdDeviation="2"/>
<feComposite in2="SourceAlpha" operator="in" result="effect1_backgroundBlur_1543_1908"/>
<feBlend mode="normal" in="SourceGraphic" in2="effect1_backgroundBlur_1543_1908" result="shape"/>
</filter>
<filter id="filter1_b_1543_1908" x="-7" y="-7" width="137" height="137" filterUnits="userSpaceOnUse" color-interpolation-filters="sRGB">
<feFlood flood-opacity="0" result="BackgroundImageFix"/>
<feGaussianBlur in="BackgroundImage" stdDeviation="3.5"/>
<feComposite in2="SourceAlpha" operator="in" result="effect1_backgroundBlur_1543_1908"/>
<feBlend mode="normal" in="SourceGraphic" in2="effect1_backgroundBlur_1543_1908" result="shape"/>
</filter>
</defs>
</svg>
