<?xml version="1.0" encoding="utf-8"?>
<!-- Generator: Adobe Illustrator 23.0.3, SVG Export Plug-In . SVG Version: 6.00 Build 0)  -->
<svg version="1.1" id="Слой_1" xmlns="http://www.w3.org/2000/svg" xmlns:xlink="http://www.w3.org/1999/xlink" x="0px" y="0px"
	 viewBox="0 0 169 74.4" style="enable-background:new 0 0 169 74.4;" xml:space="preserve">
<style type="text/css">
	.st0{fill:url(#SVGID_1_);}
	.st1{fill:url(#SVGID_2_);}
	.st2{fill:url(#SVGID_3_);}
	.st3{fill-opacity:0.2;}
	.st4{fill:url(#SVGID_4_);}
	.st5{fill:#87A1A9;fill-opacity:0.5;}
	.st6{fill:url(#SVGID_5_);}
	.st7{fill:url(#SVGID_6_);}
	.st8{fill:url(#SVGID_7_);}
	.st9{fill:url(#SVGID_8_);}
	.st10{fill:url(#SVGID_9_);}
	.st11{fill:url(#SVGID_10_);}
	.st12{fill:url(#SVGID_11_);}
	.st13{fill:url(#SVGID_12_);}
	.st14{fill:url(#SVGID_13_);}
	.st15{fill:url(#SVGID_14_);}
	.st16{fill:url(#SVGID_15_);}
	.st17{fill:url(#SVGID_16_);}
	.st18{fill:url(#SVGID_17_);}
	.st19{fill:url(#SVGID_18_);}
	.st20{fill:url(#SVGID_19_);}
	.st21{fill:url(#SVGID_20_);}
	.st22{fill:url(#SVGID_21_);}
	.st23{fill:url(#SVGID_22_);}
	.st24{fill:url(#SVGID_23_);}
	.st25{fill:url(#SVGID_24_);}
	.st26{fill:url(#SVGID_25_);}
	.st27{fill:url(#SVGID_26_);}
	.st28{fill:url(#SVGID_27_);}
	.st29{fill:url(#SVGID_28_);}
	.st30{fill:url(#SVGID_29_);}
	.st31{fill:url(#SVGID_30_);}
	.st32{fill:url(#SVGID_31_);}
	.st33{fill:url(#SVGID_32_);}
	.st34{fill:url(#SVGID_33_);}
	.st35{fill:url(#SVGID_34_);}
	.st36{fill:url(#SVGID_35_);}
	.st37{fill:url(#SVGID_36_);}
	.st38{fill:url(#SVGID_37_);}
	.st39{fill:url(#SVGID_38_);}
	.st40{fill:url(#SVGID_39_);}
	.st41{fill:url(#SVGID_40_);}
	.st42{fill:url(#SVGID_41_);}
	.st43{fill:url(#SVGID_42_);}
	.st44{fill:url(#SVGID_43_);}
	.st45{fill:url(#SVGID_44_);}
	.st46{fill:url(#SVGID_45_);}
	.st47{fill:url(#SVGID_46_);}
	.st48{fill:url(#SVGID_47_);}
	.st49{fill:url(#SVGID_48_);}
	.st50{fill:url(#SVGID_49_);}
	.st51{fill:url(#SVGID_50_);}
	.st52{fill:url(#SVGID_51_);}
	.st53{fill:url(#SVGID_52_);}
	.st54{fill:url(#SVGID_53_);}
	.st55{fill:url(#SVGID_54_);}
	.st56{fill:url(#SVGID_55_);}
	.st57{fill:url(#SVGID_56_);}
	.st58{fill:url(#SVGID_57_);}
	.st59{fill:url(#SVGID_58_);}
	.st60{fill:url(#SVGID_59_);}
	.st61{fill:url(#SVGID_60_);}
	.st62{fill:url(#SVGID_61_);}
	.st63{fill:url(#SVGID_62_);}
	.st64{fill:#87A1A9;fill-opacity:0.4;}
	.st65{fill:url(#SVGID_63_);}
	.st66{fill:url(#SVGID_64_);}
	.st67{fill:url(#SVGID_65_);}
	.st68{fill:url(#SVGID_66_);}
	.st69{fill:url(#SVGID_67_);}
	.st70{fill:url(#SVGID_68_);}
	.st71{fill:url(#SVGID_69_);}
</style>
<linearGradient id="SVGID_1_" gradientUnits="userSpaceOnUse" x1="2.4807" y1="-38.333" x2="2.4807" y2="-56.377" gradientTransform="matrix(1 0 0 -1 0 18)">
	<stop  offset="0" style="stop-color:#BAE0FF"/>
	<stop  offset="0.3191" style="stop-color:#FFFFFF"/>
	<stop  offset="1" style="stop-color:#C1CCCF"/>
</linearGradient>
<path class="st0" d="M0,65.4c0,5,1.1,9,2.5,9c1.4,0,2.5-4,2.5-9s-1.1-9-2.5-9C1.1,56.3,0,60.4,0,65.4z"/>
<linearGradient id="SVGID_2_" gradientUnits="userSpaceOnUse" x1="80.62" y1="-38.333" x2="80.62" y2="-56.377" gradientTransform="matrix(1 0 0 -1 0 18)">
	<stop  offset="0" style="stop-color:#BAE0FF"/>
	<stop  offset="0.3191" style="stop-color:#FFFFFF"/>
	<stop  offset="1" style="stop-color:#C1CCCF"/>
</linearGradient>
<path class="st1" d="M158.8,74.4v-18H2.5v18H158.8z"/>
<linearGradient id="SVGID_3_" gradientUnits="userSpaceOnUse" x1="163.2466" y1="-42.0483" x2="154.9916" y2="-51.6363" gradientTransform="matrix(1 0 0 -1 0 18)">
	<stop  offset="0" style="stop-color:#BAE0FF"/>
	<stop  offset="0.3191" style="stop-color:#EBEBEB"/>
	<stop  offset="1" style="stop-color:#E1DFDB"/>
</linearGradient>
<path class="st2" d="M156.2,65.4c0,5,1.1,9,2.5,9c1.4,0,2.5-4,2.5-9s-1.1-9-2.5-9C157.3,56.3,156.2,60.4,156.2,65.4z"/>
<path class="st3" d="M156.2,65.4c0,5,1.1,9,2.5,9c1.4,0,2.5-4,2.5-9s-1.1-9-2.5-9C157.3,56.3,156.2,60.4,156.2,65.4z"/>
<linearGradient id="SVGID_4_" gradientUnits="userSpaceOnUse" x1="5.1216" y1="-38.7045" x2="10.1946" y2="-38.7045" gradientTransform="matrix(1 0 0 -1 0 18)">
	<stop  offset="0" style="stop-color:#BAE0FF"/>
	<stop  offset="0.3191" style="stop-color:#FFFFFF"/>
	<stop  offset="1" style="stop-color:#C1CCCF"/>
</linearGradient>
<path class="st4" d="M7.7,57.8c1.4,0,2.5-0.5,2.5-1.1c0-0.6-1.1-1.1-2.5-1.1c-1.4,0-2.5,0.5-2.5,1.1C5.1,57.3,6.3,57.8,7.7,57.8z"/>
<path class="st5" d="M7.7,57.8c1.4,0,2.5-0.5,2.5-1.1c0-0.6-1.1-1.1-2.5-1.1c-1.4,0-2.5,0.5-2.5,1.1C5.1,57.3,6.3,57.8,7.7,57.8z"/>
<linearGradient id="SVGID_5_" gradientUnits="userSpaceOnUse" x1="5.1216" y1="-32.1505" x2="10.2428" y2="-32.1505" gradientTransform="matrix(1 0 0 -1 0 18)">
	<stop  offset="0" style="stop-color:#BAE0FF"/>
	<stop  offset="0.3191" style="stop-color:#FFFFFF"/>
	<stop  offset="1" style="stop-color:#C1CCCF"/>
</linearGradient>
<path class="st6" d="M10.2,43.5H5.1v13.3h5.1V43.5z"/>
<path class="st5" d="M10.2,43.5H5.1v13.3h5.1V43.5z"/>
<linearGradient id="SVGID_6_" gradientUnits="userSpaceOnUse" x1="5.6566" y1="-24.6846" x2="9.2734" y2="-26.6586" gradientTransform="matrix(1 0 0 -1 0 18)">
	<stop  offset="0" style="stop-color:#BAE0FF"/>
	<stop  offset="0.3191" style="stop-color:#EBEBEB"/>
	<stop  offset="1" style="stop-color:#E1DFDB"/>
</linearGradient>
<path class="st7" d="M7.7,44.9c1.4,0,2.5-0.5,2.5-1.1s-1.1-1.1-2.5-1.1c-1.4,0-2.5,0.5-2.5,1.1S6.3,44.9,7.7,44.9z"/>
<linearGradient id="SVGID_7_" gradientUnits="userSpaceOnUse" x1="5.7342" y1="-24.7013" x2="9.2117" y2="-26.5793" gradientTransform="matrix(1 0 0 -1 0 18)">
	<stop  offset="0" style="stop-color:#BAE0FF"/>
	<stop  offset="0.3191" style="stop-color:#EBEBEB"/>
	<stop  offset="1" style="stop-color:#E1DFDB"/>
</linearGradient>
<path class="st8" d="M7.7,44.8c1.3,0,2.4-0.5,2.4-1.1c0-0.6-1.1-1.1-2.4-1.1c-1.3,0-2.4,0.5-2.4,1.1C5.2,44.3,6.3,44.8,7.7,44.8z"/>
<linearGradient id="SVGID_8_" gradientUnits="userSpaceOnUse" x1="7.6586" y1="-23.442" x2="7.6586" y2="-28.791" gradientTransform="matrix(1 0 0 -1 0 18)">
	<stop  offset="0" style="stop-color:#5F97BC;stop-opacity:0.33"/>
	<stop  offset="0.7083" style="stop-color:#103F5F"/>
</linearGradient>
<path class="st9" d="M7.7,44.8c1.3,0,2.4-0.5,2.4-1.1c0-0.6-1.1-1.1-2.4-1.1c-1.3,0-2.4,0.5-2.4,1.1C5.2,44.3,6.3,44.8,7.7,44.8z"/>
<linearGradient id="SVGID_9_" gradientUnits="userSpaceOnUse" x1="2.4807" y1="-10.167" x2="2.4807" y2="-28.21" gradientTransform="matrix(1 0 0 -1 0 18)">
	<stop  offset="0" style="stop-color:#BAE0FF"/>
	<stop  offset="0.3191" style="stop-color:#FFFFFF"/>
	<stop  offset="1" style="stop-color:#C1CCCF"/>
</linearGradient>
<path class="st10" d="M0,37.2c0,5,1.1,9,2.5,9c1.4,0,2.5-4,2.5-9c0-5-1.1-9-2.5-9C1.1,28.2,0,32.2,0,37.2z"/>
<linearGradient id="SVGID_10_" gradientUnits="userSpaceOnUse" x1="80.62" y1="-10.167" x2="80.62" y2="-28.21" gradientTransform="matrix(1 0 0 -1 0 18)">
	<stop  offset="0" style="stop-color:#BAE0FF"/>
	<stop  offset="0.3191" style="stop-color:#FFFFFF"/>
	<stop  offset="1" style="stop-color:#C1CCCF"/>
</linearGradient>
<path class="st11" d="M158.8,46.2v-18H2.5v18H158.8z"/>
<linearGradient id="SVGID_11_" gradientUnits="userSpaceOnUse" x1="163.2469" y1="-13.8816" x2="154.9919" y2="-23.4696" gradientTransform="matrix(1 0 0 -1 0 18)">
	<stop  offset="0" style="stop-color:#BAE0FF"/>
	<stop  offset="0.3191" style="stop-color:#EBEBEB"/>
	<stop  offset="1" style="stop-color:#E1DFDB"/>
</linearGradient>
<path class="st12" d="M156.2,37.2c0,5,1.1,9,2.5,9c1.4,0,2.5-4,2.5-9c0-5-1.1-9-2.5-9C157.3,28.2,156.2,32.2,156.2,37.2z"/>
<path class="st3" d="M156.2,37.2c0,5,1.1,9,2.5,9c1.4,0,2.5-4,2.5-9c0-5-1.1-9-2.5-9C157.3,28.2,156.2,32.2,156.2,37.2z"/>
<linearGradient id="SVGID_12_" gradientUnits="userSpaceOnUse" x1="5.1216" y1="-11.391" x2="10.1946" y2="-11.391" gradientTransform="matrix(1 0 0 -1 0 18)">
	<stop  offset="0" style="stop-color:#BAE0FF"/>
	<stop  offset="0.3191" style="stop-color:#FFFFFF"/>
	<stop  offset="1" style="stop-color:#C1CCCF"/>
</linearGradient>
<path class="st13" d="M7.7,30.5c1.4,0,2.5-0.5,2.5-1.1s-1.1-1.1-2.5-1.1c-1.4,0-2.5,0.5-2.5,1.1S6.3,30.5,7.7,30.5z"/>
<path class="st5" d="M7.7,30.5c1.4,0,2.5-0.5,2.5-1.1s-1.1-1.1-2.5-1.1c-1.4,0-2.5,0.5-2.5,1.1S6.3,30.5,7.7,30.5z"/>
<linearGradient id="SVGID_13_" gradientUnits="userSpaceOnUse" x1="5.1216" y1="-4.8373" x2="10.2428" y2="-4.8373" gradientTransform="matrix(1 0 0 -1 0 18)">
	<stop  offset="0" style="stop-color:#BAE0FF"/>
	<stop  offset="0.3191" style="stop-color:#FFFFFF"/>
	<stop  offset="1" style="stop-color:#C1CCCF"/>
</linearGradient>
<path class="st14" d="M10.2,16.2H5.1v13.3h5.1V16.2z"/>
<path class="st5" d="M10.2,16.2H5.1v13.3h5.1V16.2z"/>
<linearGradient id="SVGID_14_" gradientUnits="userSpaceOnUse" x1="5.6564" y1="2.6286" x2="9.2732" y2="0.6547" gradientTransform="matrix(1 0 0 -1 0 18)">
	<stop  offset="0" style="stop-color:#BAE0FF"/>
	<stop  offset="0.3191" style="stop-color:#EBEBEB"/>
	<stop  offset="1" style="stop-color:#E1DFDB"/>
</linearGradient>
<path class="st15" d="M7.7,17.6c1.4,0,2.5-0.5,2.5-1.1c0-0.6-1.1-1.1-2.5-1.1c-1.4,0-2.5,0.5-2.5,1.1C5.1,17.1,6.3,17.6,7.7,17.6z"
	/>
<linearGradient id="SVGID_15_" gradientUnits="userSpaceOnUse" x1="5.734" y1="2.6124" x2="9.2115" y2="0.7336" gradientTransform="matrix(1 0 0 -1 0 18)">
	<stop  offset="0" style="stop-color:#BAE0FF"/>
	<stop  offset="0.3191" style="stop-color:#EBEBEB"/>
	<stop  offset="1" style="stop-color:#E1DFDB"/>
</linearGradient>
<path class="st16" d="M7.7,17.5c1.3,0,2.4-0.5,2.4-1.1c0-0.6-1.1-1.1-2.4-1.1c-1.3,0-2.4,0.5-2.4,1.1C5.2,17,6.3,17.5,7.7,17.5z"/>
<linearGradient id="SVGID_16_" gradientUnits="userSpaceOnUse" x1="7.6586" y1="3.8708" x2="7.6586" y2="-1.478" gradientTransform="matrix(1 0 0 -1 0 18)">
	<stop  offset="0" style="stop-color:#5F97BC;stop-opacity:0.33"/>
	<stop  offset="0.7083" style="stop-color:#103F5F"/>
</linearGradient>
<path class="st17" d="M7.7,17.5c1.3,0,2.4-0.5,2.4-1.1c0-0.6-1.1-1.1-2.4-1.1c-1.3,0-2.4,0.5-2.4,1.1C5.2,17,6.3,17.5,7.7,17.5z"/>
<linearGradient id="SVGID_17_" gradientUnits="userSpaceOnUse" x1="2.4807" y1="18" x2="2.4807" y2="-4.299927e-02" gradientTransform="matrix(1 0 0 -1 0 18)">
	<stop  offset="0" style="stop-color:#BAE0FF"/>
	<stop  offset="0.3191" style="stop-color:#FFFFFF"/>
	<stop  offset="1" style="stop-color:#C1CCCF"/>
</linearGradient>
<path class="st18" d="M0,9c0,5,1.1,9,2.5,9C3.9,18,5,14,5,9c0-5-1.1-9-2.5-9C1.1,0,0,4,0,9z"/>
<linearGradient id="SVGID_18_" gradientUnits="userSpaceOnUse" x1="80.62" y1="18" x2="80.62" y2="-4.299927e-02" gradientTransform="matrix(1 0 0 -1 0 18)">
	<stop  offset="0" style="stop-color:#BAE0FF"/>
	<stop  offset="0.3191" style="stop-color:#FFFFFF"/>
	<stop  offset="1" style="stop-color:#C1CCCF"/>
</linearGradient>
<path class="st19" d="M158.8,18V0H2.5v18H158.8z"/>
<linearGradient id="SVGID_19_" gradientUnits="userSpaceOnUse" x1="163.2464" y1="14.2848" x2="154.9914" y2="4.697" gradientTransform="matrix(1 0 0 -1 0 18)">
	<stop  offset="0" style="stop-color:#BAE0FF"/>
	<stop  offset="0.3191" style="stop-color:#EBEBEB"/>
	<stop  offset="1" style="stop-color:#E1DFDB"/>
</linearGradient>
<path class="st20" d="M156.2,9c0,5,1.1,9,2.5,9c1.4,0,2.5-4,2.5-9c0-5-1.1-9-2.5-9C157.3,0,156.2,4,156.2,9z"/>
<path class="st3" d="M156.2,9c0,5,1.1,9,2.5,9c1.4,0,2.5-4,2.5-9c0-5-1.1-9-2.5-9C157.3,0,156.2,4,156.2,9z"/>
<linearGradient id="SVGID_20_" gradientUnits="userSpaceOnUse" x1="25.672" y1="-12.729" x2="25.672" y2="-25.617" gradientTransform="matrix(1 0 0 -1 0 18)">
	<stop  offset="0" style="stop-color:#BAE0FF"/>
	<stop  offset="0.3191" style="stop-color:#FFFFFF"/>
	<stop  offset="1" style="stop-color:#C1CCCF"/>
</linearGradient>
<path class="st21" d="M23.9,37.2c0,3.6,0.8,6.4,1.8,6.4c1,0,1.8-2.9,1.8-6.4c0-3.6-0.8-6.4-1.8-6.4C24.7,30.7,23.9,33.6,23.9,37.2z"
	/>
<path class="st3" d="M23.9,37.2c0,3.6,0.8,6.4,1.8,6.4c1,0,1.8-2.9,1.8-6.4c0-3.6-0.8-6.4-1.8-6.4C24.7,30.7,23.9,33.6,23.9,37.2z"
	/>
<linearGradient id="SVGID_21_" gradientUnits="userSpaceOnUse" x1="25.9717" y1="-12.727" x2="25.9717" y2="-25.617" gradientTransform="matrix(1 0 0 -1 0 18)">
	<stop  offset="0" style="stop-color:#BAE0FF"/>
	<stop  offset="0.3191" style="stop-color:#FFFFFF"/>
	<stop  offset="1" style="stop-color:#C1CCCF"/>
</linearGradient>
<path class="st22" d="M26.4,43.6V30.7h-0.9v12.9H26.4z"/>
<path class="st3" d="M26.4,43.6V30.7h-0.9v12.9H26.4z"/>
<linearGradient id="SVGID_22_" gradientUnits="userSpaceOnUse" x1="29.736" y1="-15.3826" x2="23.8394" y2="-22.2316" gradientTransform="matrix(1 0 0 -1 0 18)">
	<stop  offset="0" style="stop-color:#E6E6E6"/>
	<stop  offset="0.4583" style="stop-color:#F5F5F5"/>
	<stop  offset="1" style="stop-color:#EFEFEF"/>
</linearGradient>
<path class="st23" d="M24.7,37.2c0,3.6,0.8,6.4,1.8,6.4c1,0,1.8-2.9,1.8-6.4c0-3.6-0.8-6.4-1.8-6.4C25.5,30.7,24.7,33.6,24.7,37.2z"
	/>
<linearGradient id="SVGID_23_" gradientUnits="userSpaceOnUse" x1="53.7617" y1="-12.729" x2="53.7617" y2="-25.617" gradientTransform="matrix(1 0 0 -1 0 18)">
	<stop  offset="0" style="stop-color:#BAE0FF"/>
	<stop  offset="0.3191" style="stop-color:#FFFFFF"/>
	<stop  offset="1" style="stop-color:#C1CCCF"/>
</linearGradient>
<path class="st24" d="M52,37.2c0,3.6,0.8,6.4,1.8,6.4c1,0,1.8-2.9,1.8-6.4c0-3.6-0.8-6.4-1.8-6.4C52.8,30.7,52,33.6,52,37.2z"/>
<path class="st3" d="M52,37.2c0,3.6,0.8,6.4,1.8,6.4c1,0,1.8-2.9,1.8-6.4c0-3.6-0.8-6.4-1.8-6.4C52.8,30.7,52,33.6,52,37.2z"/>
<linearGradient id="SVGID_24_" gradientUnits="userSpaceOnUse" x1="54.0616" y1="-12.727" x2="54.0616" y2="-25.617" gradientTransform="matrix(1 0 0 -1 0 18)">
	<stop  offset="0" style="stop-color:#BAE0FF"/>
	<stop  offset="0.3191" style="stop-color:#FFFFFF"/>
	<stop  offset="1" style="stop-color:#C1CCCF"/>
</linearGradient>
<path class="st25" d="M54.5,43.6V30.7h-0.9v12.9H54.5z"/>
<path class="st3" d="M54.5,43.6V30.7h-0.9v12.9H54.5z"/>
<linearGradient id="SVGID_25_" gradientUnits="userSpaceOnUse" x1="57.8258" y1="-15.3826" x2="51.9292" y2="-22.2316" gradientTransform="matrix(1 0 0 -1 0 18)">
	<stop  offset="0" style="stop-color:#E6E6E6"/>
	<stop  offset="0.4583" style="stop-color:#F5F5F5"/>
	<stop  offset="1" style="stop-color:#EFEFEF"/>
</linearGradient>
<path class="st26" d="M52.8,37.2c0,3.6,0.8,6.4,1.8,6.4c1,0,1.8-2.9,1.8-6.4c0-3.6-0.8-6.4-1.8-6.4C53.6,30.7,52.8,33.6,52.8,37.2z"
	/>
<linearGradient id="SVGID_26_" gradientUnits="userSpaceOnUse" x1="81.9277" y1="-12.729" x2="81.9277" y2="-25.617" gradientTransform="matrix(1 0 0 -1 0 18)">
	<stop  offset="0" style="stop-color:#BAE0FF"/>
	<stop  offset="0.3191" style="stop-color:#FFFFFF"/>
	<stop  offset="1" style="stop-color:#C1CCCF"/>
</linearGradient>
<path class="st27" d="M80.2,37.2c0,3.6,0.8,6.4,1.8,6.4c1,0,1.8-2.9,1.8-6.4c0-3.6-0.8-6.4-1.8-6.4C80.9,30.7,80.2,33.6,80.2,37.2z"
	/>
<path class="st3" d="M80.2,37.2c0,3.6,0.8,6.4,1.8,6.4c1,0,1.8-2.9,1.8-6.4c0-3.6-0.8-6.4-1.8-6.4C80.9,30.7,80.2,33.6,80.2,37.2z"
	/>
<linearGradient id="SVGID_27_" gradientUnits="userSpaceOnUse" x1="82.2277" y1="-12.727" x2="82.2277" y2="-25.617" gradientTransform="matrix(1 0 0 -1 0 18)">
	<stop  offset="0" style="stop-color:#BAE0FF"/>
	<stop  offset="0.3191" style="stop-color:#FFFFFF"/>
	<stop  offset="1" style="stop-color:#C1CCCF"/>
</linearGradient>
<path class="st28" d="M82.7,43.6V30.7h-0.9v12.9H82.7z"/>
<path class="st3" d="M82.7,43.6V30.7h-0.9v12.9H82.7z"/>
<linearGradient id="SVGID_28_" gradientUnits="userSpaceOnUse" x1="85.9919" y1="-15.3826" x2="80.0952" y2="-22.2316" gradientTransform="matrix(1 0 0 -1 0 18)">
	<stop  offset="0" style="stop-color:#E6E6E6"/>
	<stop  offset="0.4583" style="stop-color:#F5F5F5"/>
	<stop  offset="1" style="stop-color:#EFEFEF"/>
</linearGradient>
<path class="st29" d="M81,37.2c0,3.6,0.8,6.4,1.8,6.4c1,0,1.8-2.9,1.8-6.4c0-3.6-0.8-6.4-1.8-6.4C81.7,30.7,81,33.6,81,37.2z"/>
<linearGradient id="SVGID_29_" gradientUnits="userSpaceOnUse" x1="110.0935" y1="-12.729" x2="110.0935" y2="-25.617" gradientTransform="matrix(1 0 0 -1 0 18)">
	<stop  offset="0" style="stop-color:#BAE0FF"/>
	<stop  offset="0.3191" style="stop-color:#FFFFFF"/>
	<stop  offset="1" style="stop-color:#C1CCCF"/>
</linearGradient>
<path class="st30" d="M108.3,37.2c0,3.6,0.8,6.4,1.8,6.4c1,0,1.8-2.9,1.8-6.4c0-3.6-0.8-6.4-1.8-6.4
	C109.1,30.7,108.3,33.6,108.3,37.2z"/>
<path class="st3" d="M108.3,37.2c0,3.6,0.8,6.4,1.8,6.4c1,0,1.8-2.9,1.8-6.4c0-3.6-0.8-6.4-1.8-6.4
	C109.1,30.7,108.3,33.6,108.3,37.2z"/>
<linearGradient id="SVGID_30_" gradientUnits="userSpaceOnUse" x1="110.394" y1="-12.727" x2="110.394" y2="-25.617" gradientTransform="matrix(1 0 0 -1 0 18)">
	<stop  offset="0" style="stop-color:#BAE0FF"/>
	<stop  offset="0.3191" style="stop-color:#FFFFFF"/>
	<stop  offset="1" style="stop-color:#C1CCCF"/>
</linearGradient>
<path class="st31" d="M110.9,43.6V30.7h-0.9v12.9H110.9z"/>
<path class="st3" d="M110.9,43.6V30.7h-0.9v12.9H110.9z"/>
<linearGradient id="SVGID_31_" gradientUnits="userSpaceOnUse" x1="114.1581" y1="-15.3825" x2="108.2611" y2="-22.2315" gradientTransform="matrix(1 0 0 -1 0 18)">
	<stop  offset="0" style="stop-color:#E6E6E6"/>
	<stop  offset="0.4583" style="stop-color:#F5F5F5"/>
	<stop  offset="1" style="stop-color:#EFEFEF"/>
</linearGradient>
<path class="st32" d="M109.1,37.2c0,3.6,0.8,6.4,1.8,6.4c1,0,1.8-2.9,1.8-6.4c0-3.6-0.8-6.4-1.8-6.4
	C109.9,30.7,109.1,33.6,109.1,37.2z"/>
<linearGradient id="SVGID_32_" gradientUnits="userSpaceOnUse" x1="138.2615" y1="-12.729" x2="138.2615" y2="-25.617" gradientTransform="matrix(1 0 0 -1 0 18)">
	<stop  offset="0" style="stop-color:#BAE0FF"/>
	<stop  offset="0.3191" style="stop-color:#FFFFFF"/>
	<stop  offset="1" style="stop-color:#C1CCCF"/>
</linearGradient>
<path class="st33" d="M136.5,37.2c0,3.6,0.8,6.4,1.8,6.4c1,0,1.8-2.9,1.8-6.4c0-3.6-0.8-6.4-1.8-6.4
	C137.3,30.7,136.5,33.6,136.5,37.2z"/>
<path class="st3" d="M136.5,37.2c0,3.6,0.8,6.4,1.8,6.4c1,0,1.8-2.9,1.8-6.4c0-3.6-0.8-6.4-1.8-6.4
	C137.3,30.7,136.5,33.6,136.5,37.2z"/>
<linearGradient id="SVGID_33_" gradientUnits="userSpaceOnUse" x1="138.5615" y1="-12.727" x2="138.5615" y2="-25.617" gradientTransform="matrix(1 0 0 -1 0 18)">
	<stop  offset="0" style="stop-color:#BAE0FF"/>
	<stop  offset="0.3191" style="stop-color:#FFFFFF"/>
	<stop  offset="1" style="stop-color:#C1CCCF"/>
</linearGradient>
<path class="st34" d="M139,43.6V30.7h-0.9v12.9H139z"/>
<path class="st3" d="M139,43.6V30.7h-0.9v12.9H139z"/>
<linearGradient id="SVGID_34_" gradientUnits="userSpaceOnUse" x1="142.3261" y1="-15.3825" x2="136.4291" y2="-22.2315" gradientTransform="matrix(1 0 0 -1 0 18)">
	<stop  offset="0" style="stop-color:#E6E6E6"/>
	<stop  offset="0.4583" style="stop-color:#F5F5F5"/>
	<stop  offset="1" style="stop-color:#EFEFEF"/>
</linearGradient>
<path class="st35" d="M137.3,37.2c0,3.6,0.8,6.4,1.8,6.4s1.8-2.9,1.8-6.4c0-3.6-0.8-6.4-1.8-6.4S137.3,33.6,137.3,37.2z"/>
<radialGradient id="SVGID_35_" cx="137.0116" cy="342.8635" r="1" gradientTransform="matrix(0.7242 0.7242 0.7242 -0.7242 -288.1533 186.3863)" gradientUnits="userSpaceOnUse">
	<stop  offset="0" style="stop-color:#C4C4C4"/>
	<stop  offset="1" style="stop-color:#414040"/>
</radialGradient>
<circle class="st36" cx="59.6" cy="37.4" r="0.7"/>
<radialGradient id="SVGID_36_" cx="137.0116" cy="342.8635" r="1" gradientTransform="matrix(0.7242 0.7242 0.7242 -0.7242 -270.2294 185.5323)" gradientUnits="userSpaceOnUse">
	<stop  offset="0" style="stop-color:#C4C4C4"/>
	<stop  offset="1" style="stop-color:#414040"/>
</radialGradient>
<circle class="st37" cx="77.5" cy="36.6" r="0.7"/>
<radialGradient id="SVGID_37_" cx="137.0116" cy="342.8635" r="1" gradientTransform="matrix(0.7242 0.7242 0.7242 -0.7242 -280.4716 188.9463)" gradientUnits="userSpaceOnUse">
	<stop  offset="0" style="stop-color:#C4C4C4"/>
	<stop  offset="1" style="stop-color:#414040"/>
</radialGradient>
<circle class="st38" cx="67.3" cy="40" r="0.7"/>
<radialGradient id="SVGID_38_" cx="137.0116" cy="342.8635" r="1" gradientTransform="matrix(0.7242 0.7242 0.7242 -0.7242 -285.6357 183.3323)" gradientUnits="userSpaceOnUse">
	<stop  offset="0" style="stop-color:#C4C4C4"/>
	<stop  offset="1" style="stop-color:#414040"/>
</radialGradient>
<circle class="st39" cx="62.1" cy="34.4" r="0.7"/>
<radialGradient id="SVGID_39_" cx="137.0116" cy="342.8635" r="1" gradientTransform="matrix(0.7242 0.7242 0.7242 -0.7242 -292.5165 188.4023)" gradientUnits="userSpaceOnUse">
	<stop  offset="0" style="stop-color:#C4C4C4"/>
	<stop  offset="1" style="stop-color:#414040"/>
</radialGradient>
<circle class="st40" cx="55.3" cy="39.4" r="0.7"/>
<radialGradient id="SVGID_40_" cx="137.0116" cy="342.8635" r="1" gradientTransform="matrix(0.7242 0.7242 0.7242 -0.7242 -248.0376 182.9713)" gradientUnits="userSpaceOnUse">
	<stop  offset="0" style="stop-color:#B5BEDE"/>
	<stop  offset="1" style="stop-color:#6A78A8"/>
</radialGradient>
<circle class="st41" cx="99.7" cy="34" r="0.7"/>
<radialGradient id="SVGID_41_" cx="137.0116" cy="342.8635" r="1" gradientTransform="matrix(0.7242 0.7242 0.7242 -0.7242 -254.0126 185.5323)" gradientUnits="userSpaceOnUse">
	<stop  offset="0" style="stop-color:#B5BEDE"/>
	<stop  offset="1" style="stop-color:#6A78A8"/>
</radialGradient>
<circle class="st42" cx="93.8" cy="36.6" r="0.7"/>
<radialGradient id="SVGID_42_" cx="137.0116" cy="342.8635" r="1" gradientTransform="matrix(0.7242 0.7242 0.7242 -0.7242 -257.4267 187.2393)" gradientUnits="userSpaceOnUse">
	<stop  offset="0" style="stop-color:#B5BEDE"/>
	<stop  offset="1" style="stop-color:#6A78A8"/>
</radialGradient>
<circle class="st43" cx="90.3" cy="38.3" r="0.7"/>
<radialGradient id="SVGID_43_" cx="137.0116" cy="342.8635" r="1" gradientTransform="matrix(0.7242 0.7242 0.7242 -0.7242 -263.6005 183.3323)" gradientUnits="userSpaceOnUse">
	<stop  offset="0" style="stop-color:#B5BEDE"/>
	<stop  offset="1" style="stop-color:#6A78A8"/>
</radialGradient>
<circle class="st44" cx="84.2" cy="34.4" r="0.7"/>
<radialGradient id="SVGID_44_" cx="137.0116" cy="342.8635" r="1" gradientTransform="matrix(0.7242 0.7242 0.7242 -0.7242 -250.5986 188.9463)" gradientUnits="userSpaceOnUse">
	<stop  offset="0" style="stop-color:#B5BEDE"/>
	<stop  offset="1" style="stop-color:#6A78A8"/>
</radialGradient>
<circle class="st45" cx="97.2" cy="40" r="0.7"/>
<radialGradient id="SVGID_45_" cx="137.0116" cy="342.8635" r="1" gradientTransform="matrix(0.7242 0.7242 0.7242 -0.7242 -240.1666 188.7643)" gradientUnits="userSpaceOnUse">
	<stop  offset="0" style="stop-color:#FFFFFF"/>
	<stop  offset="1" style="stop-color:#CBCBCB"/>
</radialGradient>
<circle class="st46" cx="107.6" cy="39.8" r="0.7"/>
<radialGradient id="SVGID_46_" cx="137.0116" cy="342.8635" r="1" gradientTransform="matrix(0.7242 0.7242 0.7242 -0.7242 -225.7506 187.2393)" gradientUnits="userSpaceOnUse">
	<stop  offset="0" style="stop-color:#FFFFFF"/>
	<stop  offset="1" style="stop-color:#CBCBCB"/>
</radialGradient>
<circle class="st47" cx="122" cy="38.3" r="0.7"/>
<radialGradient id="SVGID_47_" cx="137.0116" cy="342.8635" r="1" gradientTransform="matrix(0.7242 0.7242 0.7242 -0.7242 -230.9676 188.0933)" gradientUnits="userSpaceOnUse">
	<stop  offset="0" style="stop-color:#FFFFFF"/>
	<stop  offset="1" style="stop-color:#CBCBCB"/>
</radialGradient>
<circle class="st48" cx="116.8" cy="39.1" r="0.7"/>
<radialGradient id="SVGID_48_" cx="137.0116" cy="342.8635" r="1" gradientTransform="matrix(0.7242 0.7242 0.7242 -0.7242 -229.5456 182.6873)" gradientUnits="userSpaceOnUse">
	<stop  offset="0" style="stop-color:#FFFFFF"/>
	<stop  offset="1" style="stop-color:#CBCBCB"/>
</radialGradient>
<circle class="st49" cx="118.2" cy="33.7" r="0.7"/>
<radialGradient id="SVGID_49_" cx="137.0116" cy="342.8635" r="1" gradientTransform="matrix(0.7242 0.7242 0.7242 -0.7242 -243.7706 183.8253)" gradientUnits="userSpaceOnUse">
	<stop  offset="0" style="stop-color:#FFFFFF"/>
	<stop  offset="1" style="stop-color:#CBCBCB"/>
</radialGradient>
<circle class="st50" cx="104" cy="34.9" r="0.7"/>
<radialGradient id="SVGID_50_" cx="137.0116" cy="342.8635" r="1" gradientTransform="matrix(0.7242 0.7242 0.7242 -0.7242 -214.7506 183.8253)" gradientUnits="userSpaceOnUse">
	<stop  offset="0" style="stop-color:#FFFFFF"/>
	<stop  offset="1" style="stop-color:#CBCBCB"/>
</radialGradient>
<circle class="st51" cx="133" cy="34.9" r="0.7"/>
<radialGradient id="SVGID_51_" cx="257.2213" cy="322.058" r="1" gradientTransform="matrix(0.5425 0.5425 0.5425 -0.5425 -179.067 72.331)" gradientUnits="userSpaceOnUse">
	<stop  offset="0" style="stop-color:#DDDDDD"/>
	<stop  offset="1" style="stop-color:#8E8E8E"/>
</radialGradient>
<circle class="st52" cx="135.4" cy="37.2" r="0.5"/>
<radialGradient id="SVGID_52_" cx="257.2213" cy="322.058" r="1" gradientTransform="matrix(0.5425 0.5425 0.5425 -0.5425 -186.7489 74.038)" gradientUnits="userSpaceOnUse">
	<stop  offset="0" style="stop-color:#DDDDDD"/>
	<stop  offset="1" style="stop-color:#8E8E8E"/>
</radialGradient>
<circle class="st53" cx="127.7" cy="39" r="0.5"/>
<radialGradient id="SVGID_53_" cx="257.2213" cy="322.058" r="1" gradientTransform="matrix(0.5425 0.5425 0.5425 -0.5425 -190.1629 70.624)" gradientUnits="userSpaceOnUse">
	<stop  offset="0" style="stop-color:#DDDDDD"/>
	<stop  offset="1" style="stop-color:#8E8E8E"/>
</radialGradient>
<circle class="st54" cx="124.3" cy="35.5" r="0.5"/>
<radialGradient id="SVGID_54_" cx="257.2213" cy="322.058" r="1" gradientTransform="matrix(0.5425 0.5425 0.5425 -0.5425 -213.2079 74.038)" gradientUnits="userSpaceOnUse">
	<stop  offset="0" style="stop-color:#DDDDDD"/>
	<stop  offset="1" style="stop-color:#8E8E8E"/>
</radialGradient>
<circle class="st55" cx="101.3" cy="39" r="0.5"/>
<radialGradient id="SVGID_55_" cx="17.3404" cy="363.5758" r="1" gradientTransform="matrix(1.0863 1.0863 1.0863 -1.0863 -377.5081 410.7898)" gradientUnits="userSpaceOnUse">
	<stop  offset="0" style="stop-color:#C4C4C4"/>
	<stop  offset="1" style="stop-color:#414040"/>
</radialGradient>
<circle class="st56" cx="36.7" cy="34.8" r="1.1"/>
<radialGradient id="SVGID_56_" cx="-69.6917" cy="378.639" r="1" gradientTransform="matrix(1.7071 1.7071 1.7071 -1.7071 -508.3321 803.4564)" gradientUnits="userSpaceOnUse">
	<stop  offset="0" style="stop-color:#C4C4C4"/>
	<stop  offset="1" style="stop-color:#414040"/>
</radialGradient>
<circle class="st57" cx="19.6" cy="38.4" r="1.7"/>
<radialGradient id="SVGID_57_" cx="-69.6917" cy="378.639" r="1" gradientTransform="matrix(1.7071 1.7071 1.7071 -1.7071 -515.1602 798.3344)" gradientUnits="userSpaceOnUse">
	<stop  offset="0" style="stop-color:#C4C4C4"/>
	<stop  offset="1" style="stop-color:#414040"/>
</radialGradient>
<circle class="st58" cx="12.8" cy="33.3" r="1.7"/>
<radialGradient id="SVGID_58_" cx="17.3404" cy="363.5758" r="1" gradientTransform="matrix(1.0863 1.0863 1.0863 -1.0863 -366.1292 414.5838)" gradientUnits="userSpaceOnUse">
	<stop  offset="0" style="stop-color:#C4C4C4"/>
	<stop  offset="1" style="stop-color:#414040"/>
</radialGradient>
<circle class="st59" cx="48" cy="38.6" r="1.1"/>
<radialGradient id="SVGID_59_" cx="17.3404" cy="363.5758" r="1" gradientTransform="matrix(1.0863 1.0863 1.0863 -1.0863 -379.0257 417.6188)" gradientUnits="userSpaceOnUse">
	<stop  offset="0" style="stop-color:#C4C4C4"/>
	<stop  offset="1" style="stop-color:#414040"/>
</radialGradient>
<circle class="st60" cx="35.1" cy="41.7" r="1.1"/>
<radialGradient id="SVGID_60_" cx="17.3404" cy="363.5758" r="1" gradientTransform="matrix(1.0863 1.0863 1.0863 -1.0863 -383.5784 415.3418)" gradientUnits="userSpaceOnUse">
	<stop  offset="0" style="stop-color:#C4C4C4"/>
	<stop  offset="1" style="stop-color:#414040"/>
</radialGradient>
<circle class="st61" cx="30.6" cy="39.4" r="1.1"/>
<radialGradient id="SVGID_61_" cx="17.3404" cy="363.5758" r="1" gradientTransform="matrix(1.0863 1.0863 1.0863 -1.0863 -372.1038 409.4628)" gradientUnits="userSpaceOnUse">
	<stop  offset="0" style="stop-color:#C4C4C4"/>
	<stop  offset="1" style="stop-color:#414040"/>
</radialGradient>
<circle class="st62" cx="42.1" cy="33.5" r="1.1"/>
<linearGradient id="SVGID_62_" gradientUnits="userSpaceOnUse" x1="163.8795" y1="-48.775" x2="168.9525" y2="-48.775" gradientTransform="matrix(1 0 0 -1 0 18)">
	<stop  offset="0" style="stop-color:#BAE0FF"/>
	<stop  offset="0.3191" style="stop-color:#FFFFFF"/>
	<stop  offset="1" style="stop-color:#C1CCCF"/>
</linearGradient>
<path class="st63" d="M166.4,67.9c1.4,0,2.5-0.5,2.5-1.1c0-0.6-1.1-1.1-2.5-1.1c-1.4,0-2.5,0.5-2.5,1.1
	C163.9,67.4,165,67.9,166.4,67.9z"/>
<path class="st64" d="M166.4,67.9c1.4,0,2.5-0.5,2.5-1.1c0-0.6-1.1-1.1-2.5-1.1c-1.4,0-2.5,0.5-2.5,1.1
	C163.9,67.4,165,67.9,166.4,67.9z"/>
<linearGradient id="SVGID_63_" gradientUnits="userSpaceOnUse" x1="163.8795" y1="-18.6732" x2="169.0005" y2="-18.6732" gradientTransform="matrix(1 0 0 -1 0 18)">
	<stop  offset="0" style="stop-color:#BAE0FF"/>
	<stop  offset="0.3191" style="stop-color:#FFFFFF"/>
	<stop  offset="1" style="stop-color:#C1CCCF"/>
</linearGradient>
<path class="st65" d="M169,6.8h-5.1v59.7h5.1V6.8z"/>
<path class="st5" d="M169,6.8h-5.1v59.7h5.1V6.8z"/>
<linearGradient id="SVGID_64_" gradientUnits="userSpaceOnUse" x1="158.711" y1="11.1716" x2="158.711" y2="6.0987" gradientTransform="matrix(1 0 0 -1 0 18)">
	<stop  offset="0" style="stop-color:#BAE0FF"/>
	<stop  offset="0.3191" style="stop-color:#FFFFFF"/>
	<stop  offset="1" style="stop-color:#C1CCCF"/>
</linearGradient>
<path class="st66" d="M157.9,9.4c0,1.4,0.4,2.5,0.8,2.5c0.4,0,0.8-1.1,0.8-2.5c0-1.4-0.4-2.5-0.8-2.5C158.3,6.8,157.9,8,157.9,9.4z"
	/>
<path class="st5" d="M157.9,9.4c0,1.4,0.4,2.5,0.8,2.5c0.4,0,0.8-1.1,0.8-2.5c0-1.4-0.4-2.5-0.8-2.5C158.3,6.8,157.9,8,157.9,9.4z"
	/>
<linearGradient id="SVGID_65_" gradientUnits="userSpaceOnUse" x1="163.8795" y1="11.1716" x2="163.8795" y2="6.0504" gradientTransform="matrix(1 0 0 -1 0 18)">
	<stop  offset="0" style="stop-color:#BAE0FF"/>
	<stop  offset="0.3191" style="stop-color:#FFFFFF"/>
	<stop  offset="1" style="stop-color:#C1CCCF"/>
</linearGradient>
<path class="st67" d="M169,11.9V6.8h-10.2v5.1H169z"/>
<path class="st5" d="M169,11.9V6.8h-10.2v5.1H169z"/>
<linearGradient id="SVGID_66_" gradientUnits="userSpaceOnUse" x1="158.711" y1="-16.995" x2="158.711" y2="-22.068" gradientTransform="matrix(1 0 0 -1 0 18)">
	<stop  offset="0" style="stop-color:#BAE0FF"/>
	<stop  offset="0.3191" style="stop-color:#FFFFFF"/>
	<stop  offset="1" style="stop-color:#C1CCCF"/>
</linearGradient>
<path class="st68" d="M157.9,37.5c0,1.4,0.4,2.5,0.8,2.5c0.4,0,0.8-1.1,0.8-2.5s-0.4-2.5-0.8-2.5C158.3,35,157.9,36.1,157.9,37.5z"
	/>
<path class="st5" d="M157.9,37.5c0,1.4,0.4,2.5,0.8,2.5c0.4,0,0.8-1.1,0.8-2.5s-0.4-2.5-0.8-2.5C158.3,35,157.9,36.1,157.9,37.5z"/>
<linearGradient id="SVGID_67_" gradientUnits="userSpaceOnUse" x1="163.8795" y1="-16.995" x2="163.8795" y2="-22.116" gradientTransform="matrix(1 0 0 -1 0 18)">
	<stop  offset="0" style="stop-color:#BAE0FF"/>
	<stop  offset="0.3191" style="stop-color:#FFFFFF"/>
	<stop  offset="1" style="stop-color:#C1CCCF"/>
</linearGradient>
<path class="st69" d="M169,40.1V35h-10.2v5.1H169z"/>
<path class="st5" d="M169,40.1V35h-10.2v5.1H169z"/>
<linearGradient id="SVGID_68_" gradientUnits="userSpaceOnUse" x1="158.711" y1="-45.162" x2="158.711" y2="-50.235" gradientTransform="matrix(1 0 0 -1 0 18)">
	<stop  offset="0" style="stop-color:#BAE0FF"/>
	<stop  offset="0.3191" style="stop-color:#FFFFFF"/>
	<stop  offset="1" style="stop-color:#C1CCCF"/>
</linearGradient>
<path class="st70" d="M157.9,65.7c0,1.4,0.4,2.5,0.8,2.5c0.4,0,0.8-1.1,0.8-2.5s-0.4-2.5-0.8-2.5C158.3,63.2,157.9,64.3,157.9,65.7z
	"/>
<path class="st5" d="M157.9,65.7c0,1.4,0.4,2.5,0.8,2.5c0.4,0,0.8-1.1,0.8-2.5s-0.4-2.5-0.8-2.5C158.3,63.2,157.9,64.3,157.9,65.7z"
	/>
<linearGradient id="SVGID_69_" gradientUnits="userSpaceOnUse" x1="163.8795" y1="-45.162" x2="163.8795" y2="-50.283" gradientTransform="matrix(1 0 0 -1 0 18)">
	<stop  offset="0" style="stop-color:#BAE0FF"/>
	<stop  offset="0.3191" style="stop-color:#FFFFFF"/>
	<stop  offset="1" style="stop-color:#C1CCCF"/>
</linearGradient>
<path class="st71" d="M169,68.3v-5.1h-10.2v5.1H169z"/>
<path class="st5" d="M169,68.3v-5.1h-10.2v5.1H169z"/>
</svg>
