<?xml version="1.0" encoding="utf-8"?>
<!-- Generator: Adobe Illustrator 23.0.3, SVG Export Plug-In . SVG Version: 6.00 Build 0)  -->
<svg version="1.1" id="Слой_1" xmlns="http://www.w3.org/2000/svg" xmlns:xlink="http://www.w3.org/1999/xlink" x="0px" y="0px"
	 viewBox="0 0 169 103.9" style="enable-background:new 0 0 169 103.9;" xml:space="preserve">
<style type="text/css">
	.st0{fill:url(#SVGID_1_);}
	.st1{fill:url(#SVGID_2_);}
	.st2{fill:url(#SVGID_3_);}
	.st3{fill:url(#SVGID_4_);}
	.st4{fill:#87A1A9;fill-opacity:0.4;}
	.st5{fill:url(#SVGID_5_);}
	.st6{fill:url(#SVGID_6_);}
	.st7{fill:url(#SVGID_7_);}
	.st8{fill:url(#SVGID_8_);}
	.st9{fill:url(#SVGID_9_);fill-opacity:0.2;}
	.st10{fill:url(#SVGID_10_);}
	.st11{fill:url(#SVGID_11_);}
	.st12{fill:url(#SVGID_12_);}
	.st13{fill:url(#SVGID_13_);}
	.st14{fill:url(#SVGID_14_);}
	.st15{fill:url(#SVGID_15_);}
	.st16{fill:url(#SVGID_16_);}
	.st17{fill:url(#SVGID_17_);}
	.st18{fill:url(#SVGID_18_);}
	.st19{fill:url(#SVGID_19_);}
	.st20{fill:url(#SVGID_20_);}
	.st21{fill:url(#SVGID_21_);}
	.st22{fill:url(#SVGID_22_);}
	.st23{fill:url(#SVGID_23_);}
	.st24{fill:url(#SVGID_24_);}
	.st25{fill:url(#SVGID_25_);}
	.st26{fill:url(#SVGID_26_);}
	.st27{fill:url(#SVGID_27_);}
	.st28{fill:#FFFFFF;fill-opacity:0.32;}
	.st29{fill:url(#SVGID_28_);}
	.st30{fill:url(#SVGID_29_);}
	.st31{fill:url(#SVGID_30_);}
	.st32{fill:url(#SVGID_31_);}
	.st33{fill:url(#SVGID_32_);}
	.st34{fill:url(#SVGID_33_);}
	.st35{fill:url(#SVGID_34_);}
	.st36{fill:url(#SVGID_35_);}
	.st37{fill:url(#SVGID_36_);}
	.st38{fill:url(#SVGID_37_);}
	.st39{fill:url(#SVGID_38_);}
	.st40{fill:url(#SVGID_39_);}
	.st41{fill:url(#SVGID_40_);}
	.st42{fill:url(#SVGID_41_);}
	.st43{fill:url(#SVGID_42_);}
	.st44{fill:url(#SVGID_43_);}
	.st45{fill:url(#SVGID_44_);}
	.st46{fill:url(#SVGID_45_);}
	.st47{fill:url(#SVGID_46_);}
	.st48{fill:url(#SVGID_47_);}
	.st49{fill:url(#SVGID_48_);}
	.st50{fill:url(#SVGID_49_);}
	.st51{fill:url(#SVGID_50_);}
	.st52{fill:url(#SVGID_51_);}
	.st53{fill:url(#SVGID_52_);}
	.st54{fill:url(#SVGID_53_);}
	.st55{fill:url(#SVGID_54_);}
	.st56{fill:url(#SVGID_55_);}
	.st57{fill:url(#SVGID_56_);}
	.st58{fill:url(#SVGID_57_);}
	.st59{fill:url(#SVGID_58_);}
	.st60{fill:url(#SVGID_59_);}
	.st61{fill:url(#SVGID_60_);}
	.st62{fill:url(#SVGID_61_);}
	.st63{fill:url(#SVGID_62_);}
	.st64{fill:url(#SVGID_63_);}
	.st65{fill:url(#SVGID_64_);}
	.st66{fill:url(#SVGID_65_);}
	.st67{fill:url(#SVGID_66_);}
</style>
<linearGradient id="SVGID_1_" gradientUnits="userSpaceOnUse" x1="42.9291" y1="49.0076" x2="38.3792" y2="43.7232" gradientTransform="matrix(1 0 0 -1 0 80)">
	<stop  offset="0" style="stop-color:#BAE0FF"/>
	<stop  offset="0.3191" style="stop-color:#EBEBEB"/>
	<stop  offset="1" style="stop-color:#E1DFDB"/>
</linearGradient>
<path class="st0" d="M39,33.9c0,2.7,0.6,5,1.4,5c0.8,0,1.4-2.2,1.4-5c0-2.7-0.6-5-1.4-5C39.7,28.9,39,31.2,39,33.9z"/>
<linearGradient id="SVGID_2_" gradientUnits="userSpaceOnUse" x1="42.8627" y1="48.9063" x2="38.5148" y2="43.8051" gradientTransform="matrix(1 0 0 -1 0 80)">
	<stop  offset="0" style="stop-color:#BAE0FF"/>
	<stop  offset="0.3191" style="stop-color:#EBEBEB"/>
	<stop  offset="1" style="stop-color:#E1DFDB"/>
</linearGradient>
<path class="st1" d="M39.1,33.9c0,2.6,0.6,4.8,1.3,4.8c0.7,0,1.3-2.1,1.3-4.8c0-2.6-0.6-4.8-1.3-4.8C39.7,29.2,39.1,31.3,39.1,33.9z
	"/>
<linearGradient id="SVGID_3_" gradientUnits="userSpaceOnUse" x1="43.312" y1="46.0831" x2="36.6659" y2="46.0831" gradientTransform="matrix(1 0 0 -1 0 80)">
	<stop  offset="0" style="stop-color:#5F97BC;stop-opacity:0.33"/>
	<stop  offset="0.7083" style="stop-color:#103F5F"/>
</linearGradient>
<path class="st2" d="M39.1,33.9c0,2.6,0.6,4.8,1.3,4.8c0.7,0,1.3-2.1,1.3-4.8c0-2.6-0.6-4.8-1.3-4.8C39.7,29.2,39.1,31.3,39.1,33.9z
	"/>
<linearGradient id="SVGID_4_" gradientUnits="userSpaceOnUse" x1="40.6697" y1="54.4607" x2="40.6697" y2="37.6036" gradientTransform="matrix(1 0 0 -1 0 80)">
	<stop  offset="0" style="stop-color:#BAE0FF"/>
	<stop  offset="0.4427" style="stop-color:#FFFFFF"/>
	<stop  offset="1" style="stop-color:#C1CCCF"/>
</linearGradient>
<path class="st3" d="M38.8,34c0,4.7,0.9,8.4,1.9,8.4c1.1,0,1.9-3.8,1.9-8.4c0-4.7-0.9-8.4-1.9-8.4C39.6,25.5,38.8,29.3,38.8,34z"/>
<path class="st4" d="M38.8,34c0,4.7,0.9,8.4,1.9,8.4c1.1,0,1.9-3.8,1.9-8.4c0-4.7-0.9-8.4-1.9-8.4C39.6,25.5,38.8,29.3,38.8,34z"/>
<linearGradient id="SVGID_5_" gradientUnits="userSpaceOnUse" x1="42.0758" y1="54.4607" x2="42.0758" y2="37.6036" gradientTransform="matrix(1 0 0 -1 0 80)">
	<stop  offset="0" style="stop-color:#BAE0FF"/>
	<stop  offset="0.4479" style="stop-color:#FFFFFF"/>
	<stop  offset="1" style="stop-color:#C1CCCF"/>
</linearGradient>
<path class="st5" d="M43.5,42.4V25.5h-2.8v16.9H43.5z"/>
<path class="st4" d="M43.5,42.4V25.5h-2.8v16.9H43.5z"/>
<linearGradient id="SVGID_6_" gradientUnits="userSpaceOnUse" x1="47.404" y1="50.3893" x2="39.6841" y2="42.6708" gradientTransform="matrix(1 0 0 -1 0 80)">
	<stop  offset="0" style="stop-color:#BAE0FF"/>
	<stop  offset="0.3191" style="stop-color:#EBEBEB"/>
	<stop  offset="1" style="stop-color:#E1DFDB"/>
</linearGradient>
<path class="st6" d="M41.2,33.9c0,4.6,0.9,8.3,2,8.3s2-3.7,2-8.3c0-4.6-0.9-8.3-2-8.3S41.2,29.3,41.2,33.9z"/>
<linearGradient id="SVGID_7_" gradientUnits="userSpaceOnUse" x1="47.2858" y1="50.2474" x2="39.8977" y2="42.7853" gradientTransform="matrix(1 0 0 -1 0 80)">
	<stop  offset="0" style="stop-color:#BAE0FF"/>
	<stop  offset="0.3191" style="stop-color:#EBEBEB"/>
	<stop  offset="1" style="stop-color:#E1DFDB"/>
</linearGradient>
<path class="st7" d="M41.3,33.9c0,4.4,0.9,8,1.9,8s1.9-3.6,1.9-8c0-4.4-0.9-8-1.9-8S41.3,29.5,41.3,33.9z"/>
<linearGradient id="SVGID_8_" gradientUnits="userSpaceOnUse" x1="50.0752" y1="-17.463" x2="116.5297" y2="-17.463" gradientTransform="matrix(1 0 0 -1 0 80)">
	<stop  offset="0" style="stop-color:#BAE0FF"/>
	<stop  offset="0.3191" style="stop-color:#FFFFFF"/>
	<stop  offset="1" style="stop-color:#C1CCCF"/>
</linearGradient>
<path class="st8" d="M83.3,103.9c16.6,0,30-2.9,30-6.4s-13.5-6.4-30-6.4c-16.6,0-30,2.9-30,6.4S66.7,103.9,83.3,103.9z"/>
<linearGradient id="SVGID_9_" gradientUnits="userSpaceOnUse" x1="83.3027" y1="-29.589" x2="83.3027" y2="-19.659" gradientTransform="matrix(1 0 0 -1 0 80)">
	<stop  offset="0" style="stop-color:#000000"/>
	<stop  offset="1" style="stop-color:#000000;stop-opacity:0"/>
</linearGradient>
<path class="st9" d="M83.3,103.9c16.6,0,30-2.9,30-6.4s-13.5-6.4-30-6.4c-16.6,0-30,2.9-30,6.4S66.7,103.9,83.3,103.9z"/>
<linearGradient id="SVGID_10_" gradientUnits="userSpaceOnUse" x1="43.4876" y1="51.0554" x2="43.4876" y2="41.0088" gradientTransform="matrix(1 0 0 -1 0 80)">
	<stop  offset="0" style="stop-color:#BAE0FF"/>
	<stop  offset="0.4427" style="stop-color:#FFFFFF"/>
	<stop  offset="1" style="stop-color:#C1CCCF"/>
</linearGradient>
<path class="st10" d="M42.2,34c0,2.8,0.6,5,1.3,5c0.7,0,1.3-2.2,1.3-5s-0.6-5-1.3-5C42.8,28.9,42.2,31.2,42.2,34z"/>
<path class="st4" d="M42.2,34c0,2.8,0.6,5,1.3,5c0.7,0,1.3-2.2,1.3-5s-0.6-5-1.3-5C42.8,28.9,42.2,31.2,42.2,34z"/>
<linearGradient id="SVGID_11_" gradientUnits="userSpaceOnUse" x1="53.138" y1="51.0554" x2="53.138" y2="41.0088" gradientTransform="matrix(1 0 0 -1 0 80)">
	<stop  offset="0" style="stop-color:#BAE0FF"/>
	<stop  offset="0.4479" style="stop-color:#FFFFFF"/>
	<stop  offset="1" style="stop-color:#C1CCCF"/>
</linearGradient>
<path class="st11" d="M62.8,39v-10H43.5v10H62.8z"/>
<path class="st4" d="M62.8,39v-10H43.5v10H62.8z"/>
<linearGradient id="SVGID_12_" gradientUnits="userSpaceOnUse" x1="65.0639" y1="49.0076" x2="60.5139" y2="43.7232" gradientTransform="matrix(1 0 0 -1 0 80)">
	<stop  offset="0" style="stop-color:#BAE0FF"/>
	<stop  offset="0.3191" style="stop-color:#EBEBEB"/>
	<stop  offset="1" style="stop-color:#E1DFDB"/>
</linearGradient>
<path class="st12" d="M61.2,33.9c0,2.7,0.6,5,1.4,5c0.8,0,1.4-2.2,1.4-5c0-2.7-0.6-5-1.4-5C61.8,28.9,61.2,31.2,61.2,33.9z"/>
<linearGradient id="SVGID_13_" gradientUnits="userSpaceOnUse" x1="64.9973" y1="48.9063" x2="60.6495" y2="43.8051" gradientTransform="matrix(1 0 0 -1 0 80)">
	<stop  offset="0" style="stop-color:#BAE0FF"/>
	<stop  offset="0.3191" style="stop-color:#EBEBEB"/>
	<stop  offset="1" style="stop-color:#E1DFDB"/>
</linearGradient>
<path class="st13" d="M61.3,33.9c0,2.6,0.6,4.8,1.3,4.8c0.7,0,1.3-2.1,1.3-4.8c0-2.6-0.6-4.8-1.3-4.8C61.9,29.2,61.3,31.3,61.3,33.9
	z"/>
<linearGradient id="SVGID_14_" gradientUnits="userSpaceOnUse" x1="65.4467" y1="46.0831" x2="58.8007" y2="46.0831" gradientTransform="matrix(1 0 0 -1 0 80)">
	<stop  offset="0" style="stop-color:#5F97BC;stop-opacity:0.33"/>
	<stop  offset="0.7083" style="stop-color:#103F5F"/>
</linearGradient>
<path class="st14" d="M61.3,33.9c0,2.6,0.6,4.8,1.3,4.8c0.7,0,1.3-2.1,1.3-4.8c0-2.6-0.6-4.8-1.3-4.8C61.9,29.2,61.3,31.3,61.3,33.9
	z"/>
<linearGradient id="SVGID_15_" gradientUnits="userSpaceOnUse" x1="49.6943" y1="23.175" x2="116.8761" y2="23.175" gradientTransform="matrix(1 0 0 -1 0 80)">
	<stop  offset="0" style="stop-color:#BAE0FF"/>
	<stop  offset="0.3191" style="stop-color:#FFFFFF"/>
	<stop  offset="1" style="stop-color:#C1CCCF"/>
</linearGradient>
<path class="st15" d="M111.7,97.3H54.9c-2.9,0-5.2-2.3-5.2-5.2V23.1c0-3.7,3-6.7,6.7-6.7h53.7c3.7,0,6.7,3,6.7,6.7V92
	C116.9,94.9,114.6,97.3,111.7,97.3z"/>
<linearGradient id="SVGID_16_" gradientUnits="userSpaceOnUse" x1="55.5146" y1="65.0654" x2="111.0917" y2="65.0654" gradientTransform="matrix(1 0 0 -1 0 80)">
	<stop  offset="0" style="stop-color:#BAE0FF"/>
	<stop  offset="0.3191" style="stop-color:#EBEBEB"/>
	<stop  offset="1" style="stop-color:#E1DFDB"/>
</linearGradient>
<path class="st16" d="M83.3,22.2c15.3,0,27.8-2.5,27.8-5.6c0-3.1-12.4-8.9-27.8-8.9c-15.3,0-27.8,5.8-27.8,8.9
	C55.5,19.7,68,22.2,83.3,22.2z"/>
<linearGradient id="SVGID_17_" gradientUnits="userSpaceOnUse" x1="79.9755" y1="70.1699" x2="86.6313" y2="70.1699" gradientTransform="matrix(1 0 0 -1 0 80)">
	<stop  offset="0" style="stop-color:#BAE0FF"/>
	<stop  offset="0.3191" style="stop-color:#FFFFFF"/>
	<stop  offset="1" style="stop-color:#C1CCCF"/>
</linearGradient>
<path class="st17" d="M83.3,10.7c1.8,0,3.3-0.4,3.3-0.9c0-0.5-1.5-0.9-3.3-0.9S80,9.3,80,9.8C80,10.3,81.5,10.7,83.3,10.7z"/>
<linearGradient id="SVGID_18_" gradientUnits="userSpaceOnUse" x1="79.9755" y1="72.1087" x2="86.6313" y2="72.1087" gradientTransform="matrix(1 0 0 -1 0 80)">
	<stop  offset="0" style="stop-color:#BAE0FF"/>
	<stop  offset="0.3191" style="stop-color:#FFFFFF"/>
	<stop  offset="1" style="stop-color:#C1CCCF"/>
</linearGradient>
<path class="st18" d="M86.6,6H80v3.9h6.7V6z"/>
<linearGradient id="SVGID_19_" gradientUnits="userSpaceOnUse" x1="81.346" y1="75.7326" x2="84.8827" y2="72.6875" gradientTransform="matrix(1 0 0 -1 0 80)">
	<stop  offset="0" style="stop-color:#BAE0FF"/>
	<stop  offset="0.3191" style="stop-color:#EBEBEB"/>
	<stop  offset="1" style="stop-color:#E1DFDB"/>
</linearGradient>
<path class="st19" d="M83.3,6.9c1.8,0,3.3-0.4,3.3-0.9c0-0.5-1.5-0.9-3.3-0.9S80,5.4,80,6C80,6.5,81.5,6.9,83.3,6.9z"/>
<linearGradient id="SVGID_20_" gradientUnits="userSpaceOnUse" x1="80.3427" y1="74.1619" x2="86.2642" y2="74.1619" gradientTransform="matrix(1 0 0 -1 0 80)">
	<stop  offset="0" style="stop-color:#BAE0FF"/>
	<stop  offset="0.3191" style="stop-color:#FFFFFF"/>
	<stop  offset="1" style="stop-color:#C1CCCF"/>
</linearGradient>
<path class="st20" d="M83.3,6.7c1.6,0,3-0.4,3-0.8c0-0.4-1.3-0.8-3-0.8c-1.6,0-3,0.4-3,0.8C80.3,6.3,81.7,6.7,83.3,6.7z"/>
<path class="st4" d="M83.3,6.7c1.6,0,3-0.4,3-0.8c0-0.4-1.3-0.8-3-0.8c-1.6,0-3,0.4-3,0.8C80.3,6.3,81.7,6.7,83.3,6.7z"/>
<linearGradient id="SVGID_21_" gradientUnits="userSpaceOnUse" x1="80.3427" y1="76.6805" x2="86.2642" y2="76.6805" gradientTransform="matrix(1 0 0 -1 0 80)">
	<stop  offset="0" style="stop-color:#BAE0FF"/>
	<stop  offset="0.3191" style="stop-color:#FFFFFF"/>
	<stop  offset="1" style="stop-color:#C1CCCF"/>
</linearGradient>
<path class="st21" d="M86.3,0.8h-5.9v5h5.9V0.8z"/>
<path class="st4" d="M86.3,0.8h-5.9v5h5.9V0.8z"/>
<linearGradient id="SVGID_22_" gradientUnits="userSpaceOnUse" x1="81.5621" y1="80.6853" x2="84.7086" y2="77.9761" gradientTransform="matrix(1 0 0 -1 0 80)">
	<stop  offset="0" style="stop-color:#BAE0FF"/>
	<stop  offset="0.3191" style="stop-color:#EBEBEB"/>
	<stop  offset="1" style="stop-color:#E1DFDB"/>
</linearGradient>
<path class="st22" d="M83.3,1.6c1.6,0,3-0.4,3-0.8S84.9,0,83.3,0c-1.6,0-3,0.4-3,0.8S81.7,1.6,83.3,1.6z"/>
<linearGradient id="SVGID_23_" gradientUnits="userSpaceOnUse" x1="81.6223" y1="80.6457" x2="84.6597" y2="78.0568" gradientTransform="matrix(1 0 0 -1 0 80)">
	<stop  offset="0" style="stop-color:#BAE0FF"/>
	<stop  offset="0.3191" style="stop-color:#EBEBEB"/>
	<stop  offset="1" style="stop-color:#E1DFDB"/>
</linearGradient>
<path class="st23" d="M83.3,1.6c1.6,0,2.8-0.4,2.8-0.8S84.9,0,83.3,0c-1.6,0-2.8,0.4-2.8,0.8S81.7,1.6,83.3,1.6z"/>
<linearGradient id="SVGID_24_" gradientUnits="userSpaceOnUse" x1="83.3033" y1="80.9132" x2="83.3033" y2="76.956" gradientTransform="matrix(1 0 0 -1 0 80)">
	<stop  offset="0" style="stop-color:#5F97BC;stop-opacity:0.33"/>
	<stop  offset="0.7083" style="stop-color:#103F5F"/>
</linearGradient>
<path class="st24" d="M83.3,1.6c1.6,0,2.8-0.4,2.8-0.8S84.9,0,83.3,0c-1.6,0-2.8,0.4-2.8,0.8S81.7,1.6,83.3,1.6z"/>
<linearGradient id="SVGID_25_" gradientUnits="userSpaceOnUse" x1="75.1279" y1="-1.7975" x2="89.9043" y2="-1.7975" gradientTransform="matrix(1 0 0 -1 0 80)">
	<stop  offset="0" style="stop-color:#BAE0FF"/>
	<stop  offset="0.3191" style="stop-color:#FFFFFF"/>
	<stop  offset="1" style="stop-color:#C1CCCF"/>
</linearGradient>
<path class="st25" d="M82.5,83.8c4.1,0,7.4-0.9,7.4-2c0-1.1-3.3-2-7.4-2s-7.4,0.9-7.4,2C75.1,82.9,78.4,83.8,82.5,83.8z"/>
<path class="st4" d="M82.5,83.8c4.1,0,7.4-0.9,7.4-2c0-1.1-3.3-2-7.4-2s-7.4,0.9-7.4,2C75.1,82.9,78.4,83.8,82.5,83.8z"/>
<linearGradient id="SVGID_26_" gradientUnits="userSpaceOnUse" x1="55.8037" y1="13.9828" x2="110.8007" y2="13.9828" gradientTransform="matrix(1 0 0 -1 0 80)">
	<stop  offset="0" style="stop-color:#2E5DA4"/>
	<stop  offset="0.3191" style="stop-color:#69B2DB"/>
	<stop  offset="1" style="stop-color:#285A95"/>
</linearGradient>
<path class="st26" d="M110.8,41.3h-55v49.5h55V41.3z"/>
<linearGradient id="SVGID_27_" gradientUnits="userSpaceOnUse" x1="55.8037" y1="38.9104" x2="110.8007" y2="38.9104" gradientTransform="matrix(1 0 0 -1 0 80)">
	<stop  offset="0" style="stop-color:#3C72B1"/>
	<stop  offset="0.3191" style="stop-color:#69B2DB"/>
	<stop  offset="1" style="stop-color:#2E629B"/>
</linearGradient>
<path class="st27" d="M83.3,44.8c15.2,0,27.5-1.7,27.5-3.7c0-2.1-12.3-3.7-27.5-3.7c-15.2,0-27.5,1.7-27.5,3.7
	C55.8,43.2,68.1,44.8,83.3,44.8z"/>
<path class="st28" d="M83.3,44.8c15.2,0,27.5-1.7,27.5-3.7c0-2.1-12.3-3.7-27.5-3.7c-15.2,0-27.5,1.7-27.5,3.7
	C55.8,43.2,68.1,44.8,83.3,44.8z"/>
<linearGradient id="SVGID_28_" gradientUnits="userSpaceOnUse" x1="55.8037" y1="-10.8745" x2="110.8007" y2="-10.8745" gradientTransform="matrix(1 0 0 -1 0 80)">
	<stop  offset="0" style="stop-color:#2E5DA4"/>
	<stop  offset="0.3191" style="stop-color:#69B2DB"/>
	<stop  offset="1" style="stop-color:#285A95"/>
</linearGradient>
<path class="st29" d="M83.3,96.2c15.2,0,27.5-2.4,27.5-5.3c0-3-12.3-5.3-27.5-5.3c-15.2,0-27.5,2.4-27.5,5.3
	C55.8,93.8,68.1,96.2,83.3,96.2z"/>
<linearGradient id="SVGID_29_" gradientUnits="userSpaceOnUse" x1="114.9997" y1="6.787" x2="114.9997" y2="-3.259" gradientTransform="matrix(1 0 0 -1 0 80)">
	<stop  offset="0" style="stop-color:#BAE0FF"/>
	<stop  offset="0.4427" style="stop-color:#FFFFFF"/>
	<stop  offset="1" style="stop-color:#C1CCCF"/>
</linearGradient>
<path class="st30" d="M113.7,78.2c0,2.8,0.6,5,1.3,5c0.7,0,1.3-2.2,1.3-5c0-2.8-0.6-5-1.3-5C114.3,73.2,113.7,75.5,113.7,78.2z"/>
<path class="st4" d="M113.7,78.2c0,2.8,0.6,5,1.3,5c0.7,0,1.3-2.2,1.3-5c0-2.8-0.6-5-1.3-5C114.3,73.2,113.7,75.5,113.7,78.2z"/>
<linearGradient id="SVGID_30_" gradientUnits="userSpaceOnUse" x1="120.3922" y1="6.787" x2="120.3922" y2="-3.259" gradientTransform="matrix(1 0 0 -1 0 80)">
	<stop  offset="0" style="stop-color:#BAE0FF"/>
	<stop  offset="0.4479" style="stop-color:#FFFFFF"/>
	<stop  offset="1" style="stop-color:#C1CCCF"/>
</linearGradient>
<path class="st31" d="M125.8,83.3v-10H115v10H125.8z"/>
<path class="st4" d="M125.8,83.3v-10H115v10H125.8z"/>
<linearGradient id="SVGID_31_" gradientUnits="userSpaceOnUse" x1="128.0618" y1="4.7393" x2="123.5117" y2="-0.5447" gradientTransform="matrix(1 0 0 -1 0 80)">
	<stop  offset="0" style="stop-color:#BAE0FF"/>
	<stop  offset="0.3191" style="stop-color:#EBEBEB"/>
	<stop  offset="1" style="stop-color:#E1DFDB"/>
</linearGradient>
<path class="st32" d="M124.2,78.2c0,2.7,0.6,5,1.4,5c0.8,0,1.4-2.2,1.4-5c0-2.7-0.6-5-1.4-5C124.8,73.2,124.2,75.4,124.2,78.2z"/>
<linearGradient id="SVGID_32_" gradientUnits="userSpaceOnUse" x1="127.9955" y1="4.6383" x2="123.6475" y2="-0.4627" gradientTransform="matrix(1 0 0 -1 0 80)">
	<stop  offset="0" style="stop-color:#BAE0FF"/>
	<stop  offset="0.3191" style="stop-color:#EBEBEB"/>
	<stop  offset="1" style="stop-color:#E1DFDB"/>
</linearGradient>
<path class="st33" d="M124.3,78.2c0,2.6,0.6,4.8,1.3,4.8c0.7,0,1.3-2.1,1.3-4.8c0-2.6-0.6-4.8-1.3-4.8
	C124.9,73.4,124.3,75.6,124.3,78.2z"/>
<linearGradient id="SVGID_33_" gradientUnits="userSpaceOnUse" x1="128.4447" y1="1.815" x2="121.7987" y2="1.815" gradientTransform="matrix(1 0 0 -1 0 80)">
	<stop  offset="0" style="stop-color:#5F97BC;stop-opacity:0.33"/>
	<stop  offset="0.7083" style="stop-color:#103F5F"/>
</linearGradient>
<path class="st34" d="M124.3,78.2c0,2.6,0.6,4.8,1.3,4.8c0.7,0,1.3-2.1,1.3-4.8c0-2.6-0.6-4.8-1.3-4.8
	C124.9,73.4,124.3,75.6,124.3,78.2z"/>
<linearGradient id="SVGID_34_" gradientUnits="userSpaceOnUse" x1="125.8022" y1="10.193" x2="125.8022" y2="-6.664" gradientTransform="matrix(1 0 0 -1 0 80)">
	<stop  offset="0" style="stop-color:#BAE0FF"/>
	<stop  offset="0.4427" style="stop-color:#FFFFFF"/>
	<stop  offset="1" style="stop-color:#C1CCCF"/>
</linearGradient>
<path class="st35" d="M123.9,78.2c0,4.7,0.9,8.4,1.9,8.4c1.1,0,1.9-3.8,1.9-8.4c0-4.7-0.9-8.4-1.9-8.4
	C124.7,69.8,123.9,73.6,123.9,78.2z"/>
<path class="st4" d="M123.9,78.2c0,4.7,0.9,8.4,1.9,8.4c1.1,0,1.9-3.8,1.9-8.4c0-4.7-0.9-8.4-1.9-8.4
	C124.7,69.8,123.9,73.6,123.9,78.2z"/>
<linearGradient id="SVGID_35_" gradientUnits="userSpaceOnUse" x1="127.2087" y1="10.193" x2="127.2087" y2="-6.664" gradientTransform="matrix(1 0 0 -1 0 80)">
	<stop  offset="0" style="stop-color:#BAE0FF"/>
	<stop  offset="0.4479" style="stop-color:#FFFFFF"/>
	<stop  offset="1" style="stop-color:#C1CCCF"/>
</linearGradient>
<path class="st36" d="M128.6,86.7V69.8h-2.8v16.9H128.6z"/>
<path class="st4" d="M128.6,86.7V69.8h-2.8v16.9H128.6z"/>
<linearGradient id="SVGID_36_" gradientUnits="userSpaceOnUse" x1="132.5371" y1="6.1215" x2="124.8171" y2="-1.5975" gradientTransform="matrix(1 0 0 -1 0 80)">
	<stop  offset="0" style="stop-color:#BAE0FF"/>
	<stop  offset="0.3191" style="stop-color:#EBEBEB"/>
	<stop  offset="1" style="stop-color:#E1DFDB"/>
</linearGradient>
<path class="st37" d="M126.3,78.1c0,4.6,0.9,8.3,2,8.3c1.1,0,2-3.7,2-8.3c0-4.6-0.9-8.3-2-8.3C127.2,69.8,126.3,73.5,126.3,78.1z"/>
<linearGradient id="SVGID_37_" gradientUnits="userSpaceOnUse" x1="132.4184" y1="5.9789" x2="125.0304" y2="-1.4831" gradientTransform="matrix(1 0 0 -1 0 80)">
	<stop  offset="0" style="stop-color:#BAE0FF"/>
	<stop  offset="0.3191" style="stop-color:#EBEBEB"/>
	<stop  offset="1" style="stop-color:#E1DFDB"/>
</linearGradient>
<path class="st38" d="M126.4,78.1c0,4.4,0.9,8,1.9,8c1.1,0,1.9-3.6,1.9-8c0-4.4-0.9-8-1.9-8C127.3,70.2,126.4,73.7,126.4,78.1z"/>
<linearGradient id="SVGID_38_" gradientUnits="userSpaceOnUse" x1="130.299" y1="3.4956" x2="126.416" y2="0.2146" gradientTransform="matrix(1 0 0 -1 0 80)">
	<stop  offset="0" style="stop-color:#BAE0FF"/>
	<stop  offset="0.3191" style="stop-color:#EBEBEB"/>
	<stop  offset="1" style="stop-color:#E1DFDB"/>
</linearGradient>
<path class="st39" d="M127.3,78.3c0,2.4,0.4,4.3,0.9,4.3c0.5,0,0.9-1.9,0.9-4.3c0-2.4-0.4-4.3-0.9-4.3
	C127.7,74.1,127.3,76,127.3,78.3z"/>
<linearGradient id="SVGID_39_" gradientUnits="userSpaceOnUse" x1="129.9887" y1="1.6795" x2="125.7087" y2="1.6795" gradientTransform="matrix(1 0 0 -1 0 80)">
	<stop  offset="0" style="stop-color:#5F97BC;stop-opacity:0.33"/>
	<stop  offset="0.7083" style="stop-color:#103F5F"/>
</linearGradient>
<path class="st40" d="M127.3,78.3c0,2.4,0.4,4.3,0.9,4.3c0.5,0,0.9-1.9,0.9-4.3c0-2.4-0.4-4.3-0.9-4.3
	C127.7,74.1,127.3,76,127.3,78.3z"/>
<linearGradient id="SVGID_40_" gradientUnits="userSpaceOnUse" x1="62.0767" y1="56.1633" x2="62.0767" y2="53.6517" gradientTransform="matrix(1 0 0 -1 0 80)">
	<stop  offset="0" style="stop-color:#BAE0FF"/>
	<stop  offset="0.4427" style="stop-color:#FFFFFF"/>
	<stop  offset="1" style="stop-color:#C1CCCF"/>
</linearGradient>
<path class="st41" d="M61.7,25.1c0,0.7,0.1,1.3,0.3,1.3c0.2,0,0.3-0.6,0.3-1.3c0-0.7-0.1-1.3-0.3-1.3C61.9,23.8,61.7,24.4,61.7,25.1
	z"/>
<path class="st4" d="M61.7,25.1c0,0.7,0.1,1.3,0.3,1.3c0.2,0,0.3-0.6,0.3-1.3c0-0.7-0.1-1.3-0.3-1.3C61.9,23.8,61.7,24.4,61.7,25.1z
	"/>
<linearGradient id="SVGID_41_" gradientUnits="userSpaceOnUse" x1="83.8803" y1="56.1633" x2="83.8803" y2="53.6094" gradientTransform="matrix(1 0 0 -1 0 80)">
	<stop  offset="0" style="stop-color:#BAE0FF"/>
	<stop  offset="0.4479" style="stop-color:#FFFFFF"/>
	<stop  offset="1" style="stop-color:#C1CCCF"/>
</linearGradient>
<path class="st42" d="M105.6,26.4v-2.6H62.2v2.6H105.6z"/>
<path class="st4" d="M105.6,26.4v-2.6H62.2v2.6H105.6z"/>
<linearGradient id="SVGID_42_" gradientUnits="userSpaceOnUse" x1="106.1345" y1="55.6513" x2="104.9965" y2="54.3302" gradientTransform="matrix(1 0 0 -1 0 80)">
	<stop  offset="0" style="stop-color:#BAE0FF"/>
	<stop  offset="0.3191" style="stop-color:#EBEBEB"/>
	<stop  offset="1" style="stop-color:#E1DFDB"/>
</linearGradient>
<path class="st43" d="M105.2,25.1c0,0.7,0.2,1.2,0.3,1.2c0.2,0,0.3-0.6,0.3-1.2c0-0.7-0.2-1.2-0.3-1.2
	C105.3,23.8,105.2,24.4,105.2,25.1z"/>
<linearGradient id="SVGID_43_" gradientUnits="userSpaceOnUse" x1="72.6884" y1="70.3859" x2="77.3428" y2="70.3859" gradientTransform="matrix(1 0 0 -1 0 80)">
	<stop  offset="0" style="stop-color:#BAE0FF"/>
	<stop  offset="0.4427" style="stop-color:#FFFFFF"/>
	<stop  offset="1" style="stop-color:#C1CCCF"/>
</linearGradient>
<path class="st44" d="M75,10.2c1.3,0,2.3-0.3,2.3-0.6S76.3,9,75,9s-2.3,0.3-2.3,0.6S73.7,10.2,75,10.2z"/>
<path class="st4" d="M75,10.2c1.3,0,2.3-0.3,2.3-0.6S76.3,9,75,9s-2.3,0.3-2.3,0.6S73.7,10.2,75,10.2z"/>
<linearGradient id="SVGID_44_" gradientUnits="userSpaceOnUse" x1="72.6884" y1="72.8847" x2="77.3428" y2="72.8847" gradientTransform="matrix(1 0 0 -1 0 80)">
	<stop  offset="0" style="stop-color:#BAE0FF"/>
	<stop  offset="0.4479" style="stop-color:#FFFFFF"/>
	<stop  offset="1" style="stop-color:#C1CCCF"/>
</linearGradient>
<path class="st45" d="M77.3,4.6h-4.7v5h4.7V4.6z"/>
<path class="st4" d="M77.3,4.6h-4.7v5h4.7V4.6z"/>
<linearGradient id="SVGID_45_" gradientUnits="userSpaceOnUse" x1="73.6371" y1="76.4377" x2="76.0853" y2="74.3298" gradientTransform="matrix(1 0 0 -1 0 80)">
	<stop  offset="0" style="stop-color:#BAE0FF"/>
	<stop  offset="0.3191" style="stop-color:#EBEBEB"/>
	<stop  offset="1" style="stop-color:#E1DFDB"/>
</linearGradient>
<path class="st46" d="M75,5.4c1.3,0,2.3-0.3,2.3-0.6s-1-0.6-2.3-0.6s-2.3,0.3-2.3,0.6S73.7,5.4,75,5.4z"/>
<linearGradient id="SVGID_46_" gradientUnits="userSpaceOnUse" x1="73.6848" y1="76.4069" x2="76.0481" y2="74.3926" gradientTransform="matrix(1 0 0 -1 0 80)">
	<stop  offset="0" style="stop-color:#BAE0FF"/>
	<stop  offset="0.3191" style="stop-color:#EBEBEB"/>
	<stop  offset="1" style="stop-color:#E1DFDB"/>
</linearGradient>
<path class="st47" d="M75,5.3c1.2,0,2.2-0.3,2.2-0.6c0-0.3-1-0.6-2.2-0.6c-1.2,0-2.2,0.3-2.2,0.6C72.8,5,73.8,5.3,75,5.3z"/>
<linearGradient id="SVGID_47_" gradientUnits="userSpaceOnUse" x1="74.9927" y1="76.6151" x2="74.9927" y2="73.5361" gradientTransform="matrix(1 0 0 -1 0 80)">
	<stop  offset="0" style="stop-color:#5F97BC;stop-opacity:0.33"/>
	<stop  offset="0.7083" style="stop-color:#103F5F"/>
</linearGradient>
<path class="st48" d="M75,5.3c1.2,0,2.2-0.3,2.2-0.6c0-0.3-1-0.6-2.2-0.6c-1.2,0-2.2,0.3-2.2,0.6C72.8,5,73.8,5.3,75,5.3z"/>
<linearGradient id="SVGID_48_" gradientUnits="userSpaceOnUse" x1="71.1103" y1="75.3908" x2="78.9198" y2="75.3908" gradientTransform="matrix(1 0 0 -1 0 80)">
	<stop  offset="0" style="stop-color:#BAE0FF"/>
	<stop  offset="0.4427" style="stop-color:#FFFFFF"/>
	<stop  offset="1" style="stop-color:#C1CCCF"/>
</linearGradient>
<path class="st49" d="M75,5.5c2.2,0,3.9-0.4,3.9-0.9c0-0.5-1.7-0.9-3.9-0.9c-2.2,0-3.9,0.4-3.9,0.9C71.1,5.1,72.9,5.5,75,5.5z"/>
<path class="st4" d="M75,5.5c2.2,0,3.9-0.4,3.9-0.9c0-0.5-1.7-0.9-3.9-0.9c-2.2,0-3.9,0.4-3.9,0.9C71.1,5.1,72.9,5.5,75,5.5z"/>
<linearGradient id="SVGID_49_" gradientUnits="userSpaceOnUse" x1="71.1103" y1="76.0419" x2="78.9198" y2="76.0419" gradientTransform="matrix(1 0 0 -1 0 80)">
	<stop  offset="0" style="stop-color:#BAE0FF"/>
	<stop  offset="0.4479" style="stop-color:#FFFFFF"/>
	<stop  offset="1" style="stop-color:#C1CCCF"/>
</linearGradient>
<path class="st50" d="M78.9,3.3h-7.8v1.3h7.8V3.3z"/>
<path class="st4" d="M78.9,3.3h-7.8v1.3h7.8V3.3z"/>
<linearGradient id="SVGID_50_" gradientUnits="userSpaceOnUse" x1="72.9965" y1="78.5104" x2="76.5723" y2="74.934" gradientTransform="matrix(1 0 0 -1 0 80)">
	<stop  offset="0" style="stop-color:#BAE0FF"/>
	<stop  offset="0.3191" style="stop-color:#EBEBEB"/>
	<stop  offset="1" style="stop-color:#E1DFDB"/>
</linearGradient>
<path class="st51" d="M75,4.4c2.1,0,3.9-0.4,3.9-0.9c0-0.5-1.7-0.9-3.9-0.9c-2.1,0-3.9,0.4-3.9,0.9C71.1,4,72.8,4.4,75,4.4z"/>
<linearGradient id="SVGID_51_" gradientUnits="userSpaceOnUse" x1="73.0623" y1="78.4557" x2="76.5193" y2="75.033" gradientTransform="matrix(1 0 0 -1 0 80)">
	<stop  offset="0" style="stop-color:#BAE0FF"/>
	<stop  offset="0.3191" style="stop-color:#EBEBEB"/>
	<stop  offset="1" style="stop-color:#E1DFDB"/>
</linearGradient>
<path class="st52" d="M75,4.3c2,0,3.7-0.4,3.7-0.9C78.7,3,77,2.6,75,2.6c-2,0-3.7,0.4-3.7,0.9C71.3,3.9,72.9,4.3,75,4.3z"/>
<linearGradient id="SVGID_52_" gradientUnits="userSpaceOnUse" x1="90.6884" y1="72.7638" x2="91.5397" y2="72.7638" gradientTransform="matrix(1 0 0 -1 0 80)">
	<stop  offset="0" style="stop-color:#BAE0FF"/>
	<stop  offset="0.4479" style="stop-color:#FFFFFF"/>
	<stop  offset="1" style="stop-color:#C1CCCF"/>
</linearGradient>
<path class="st53" d="M91.5,4.3h-0.9v6h0.9V4.3z"/>
<path class="st4" d="M91.5,4.3h-0.9v6h0.9V4.3z"/>
<linearGradient id="SVGID_53_" gradientUnits="userSpaceOnUse" x1="90.3638" y1="76.0452" x2="91.6981" y2="74.8963" gradientTransform="matrix(1 0 0 -1 0 80)">
	<stop  offset="0" style="stop-color:#BAE0FF"/>
	<stop  offset="0.3191" style="stop-color:#EBEBEB"/>
	<stop  offset="1" style="stop-color:#E1DFDB"/>
</linearGradient>
<path class="st54" d="M91.1,4.9c0.7,0,1.3-0.2,1.3-0.3s-0.6-0.3-1.3-0.3s-1.3,0.2-1.3,0.3S90.4,4.9,91.1,4.9z"/>
<linearGradient id="SVGID_54_" gradientUnits="userSpaceOnUse" x1="90.3901" y1="76.0285" x2="91.6782" y2="74.9306" gradientTransform="matrix(1 0 0 -1 0 80)">
	<stop  offset="0" style="stop-color:#BAE0FF"/>
	<stop  offset="0.3191" style="stop-color:#EBEBEB"/>
	<stop  offset="1" style="stop-color:#E1DFDB"/>
</linearGradient>
<path class="st55" d="M91.1,4.9c0.7,0,1.2-0.1,1.2-0.3c0-0.2-0.5-0.3-1.2-0.3c-0.7,0-1.2,0.1-1.2,0.3C89.9,4.8,90.4,4.9,91.1,4.9z"
	/>
<linearGradient id="SVGID_55_" gradientUnits="userSpaceOnUse" x1="91.103" y1="76.1419" x2="91.103" y2="74.4637" gradientTransform="matrix(1 0 0 -1 0 80)">
	<stop  offset="0" style="stop-color:#5F97BC;stop-opacity:0.33"/>
	<stop  offset="0.7083" style="stop-color:#103F5F"/>
</linearGradient>
<path class="st56" d="M91.1,4.9c0.7,0,1.2-0.1,1.2-0.3c0-0.2-0.5-0.3-1.2-0.3c-0.7,0-1.2,0.1-1.2,0.3C89.9,4.8,90.4,4.9,91.1,4.9z"
	/>
<linearGradient id="SVGID_56_" gradientUnits="userSpaceOnUse" x1="88.9873" y1="75.4744" x2="93.2437" y2="75.4744" gradientTransform="matrix(1 0 0 -1 0 80)">
	<stop  offset="0" style="stop-color:#BAE0FF"/>
	<stop  offset="0.4427" style="stop-color:#FFFFFF"/>
	<stop  offset="1" style="stop-color:#C1CCCF"/>
</linearGradient>
<path class="st57" d="M91.1,5c1.2,0,2.1-0.2,2.1-0.5S92.3,4,91.1,4C89.9,4,89,4.3,89,4.5S89.9,5,91.1,5z"/>
<path class="st4" d="M91.1,5c1.2,0,2.1-0.2,2.1-0.5S92.3,4,91.1,4C89.9,4,89,4.3,89,4.5S89.9,5,91.1,5z"/>
<linearGradient id="SVGID_57_" gradientUnits="userSpaceOnUse" x1="88.9873" y1="75.8294" x2="93.2437" y2="75.8294" gradientTransform="matrix(1 0 0 -1 0 80)">
	<stop  offset="0" style="stop-color:#BAE0FF"/>
	<stop  offset="0.4479" style="stop-color:#FFFFFF"/>
	<stop  offset="1" style="stop-color:#C1CCCF"/>
</linearGradient>
<path class="st58" d="M93.2,3.8H89v0.7h4.3V3.8z"/>
<path class="st4" d="M93.2,3.8H89v0.7h4.3V3.8z"/>
<linearGradient id="SVGID_58_" gradientUnits="userSpaceOnUse" x1="90.0153" y1="77.1749" x2="91.9643" y2="75.2256" gradientTransform="matrix(1 0 0 -1 0 80)">
	<stop  offset="0" style="stop-color:#BAE0FF"/>
	<stop  offset="0.3191" style="stop-color:#EBEBEB"/>
	<stop  offset="1" style="stop-color:#E1DFDB"/>
</linearGradient>
<path class="st59" d="M91.1,4.4c1.2,0,2.1-0.2,2.1-0.5c0-0.3-0.9-0.5-2.1-0.5c-1.2,0-2.1,0.2-2.1,0.5C89,4.2,89.9,4.4,91.1,4.4z"/>
<linearGradient id="SVGID_59_" gradientUnits="userSpaceOnUse" x1="90.0505" y1="77.1451" x2="91.9348" y2="75.2796" gradientTransform="matrix(1 0 0 -1 0 80)">
	<stop  offset="0" style="stop-color:#BAE0FF"/>
	<stop  offset="0.3191" style="stop-color:#EBEBEB"/>
	<stop  offset="1" style="stop-color:#E1DFDB"/>
</linearGradient>
<path class="st60" d="M91.1,4.4c1.1,0,2-0.2,2-0.5s-0.9-0.5-2-0.5c-1.1,0-2,0.2-2,0.5S90,4.4,91.1,4.4z"/>
<linearGradient id="SVGID_60_" gradientUnits="userSpaceOnUse" x1="66.4088" y1="53.6094" x2="66.4088" y2="39.9884" gradientTransform="matrix(1 0 0 -1 0 80)">
	<stop  offset="0" style="stop-color:#448BBA"/>
	<stop  offset="1" style="stop-color:#C5E0F2"/>
</linearGradient>
<rect x="66" y="26.4" class="st61" width="0.8" height="13.6"/>
<linearGradient id="SVGID_61_" gradientUnits="userSpaceOnUse" x1="72.0904" y1="53.6094" x2="72.0904" y2="39.9884" gradientTransform="matrix(1 0 0 -1 0 80)">
	<stop  offset="0" style="stop-color:#448BBA"/>
	<stop  offset="1" style="stop-color:#C5E0F2"/>
</linearGradient>
<rect x="71.7" y="26.4" class="st62" width="0.8" height="13.6"/>
<linearGradient id="SVGID_62_" gradientUnits="userSpaceOnUse" x1="77.7721" y1="53.6094" x2="77.7721" y2="39.9884" gradientTransform="matrix(1 0 0 -1 0 80)">
	<stop  offset="0" style="stop-color:#448BBA"/>
	<stop  offset="1" style="stop-color:#C5E0F2"/>
</linearGradient>
<rect x="77.4" y="26.4" class="st63" width="0.8" height="13.6"/>
<linearGradient id="SVGID_63_" gradientUnits="userSpaceOnUse" x1="83.4557" y1="53.6094" x2="83.4557" y2="39.9884" gradientTransform="matrix(1 0 0 -1 0 80)">
	<stop  offset="0" style="stop-color:#448BBA"/>
	<stop  offset="1" style="stop-color:#C5E0F2"/>
</linearGradient>
<rect x="83" y="26.4" class="st64" width="0.8" height="13.6"/>
<linearGradient id="SVGID_64_" gradientUnits="userSpaceOnUse" x1="89.1373" y1="53.6094" x2="89.1373" y2="39.9884" gradientTransform="matrix(1 0 0 -1 0 80)">
	<stop  offset="0" style="stop-color:#448BBA"/>
	<stop  offset="1" style="stop-color:#C5E0F2"/>
</linearGradient>
<rect x="88.7" y="26.4" class="st65" width="0.8" height="13.6"/>
<linearGradient id="SVGID_65_" gradientUnits="userSpaceOnUse" x1="94.8186" y1="53.6094" x2="94.8186" y2="39.9884" gradientTransform="matrix(1 0 0 -1 0 80)">
	<stop  offset="0" style="stop-color:#448BBA"/>
	<stop  offset="1" style="stop-color:#C5E0F2"/>
</linearGradient>
<rect x="94.4" y="26.4" class="st66" width="0.8" height="13.6"/>
<linearGradient id="SVGID_66_" gradientUnits="userSpaceOnUse" x1="100.5006" y1="53.6094" x2="100.5006" y2="39.9884" gradientTransform="matrix(1 0 0 -1 0 80)">
	<stop  offset="0" style="stop-color:#448BBA"/>
	<stop  offset="1" style="stop-color:#C5E0F2"/>
</linearGradient>
<rect x="100.1" y="26.4" class="st67" width="0.8" height="13.6"/>
</svg>
