<?xml version="1.0" encoding="utf-8"?>
<!-- Generator: Adobe Illustrator 23.0.3, SVG Export Plug-In . SVG Version: 6.00 Build 0)  -->
<svg version="1.1" id="Слой_1" xmlns="http://www.w3.org/2000/svg" xmlns:xlink="http://www.w3.org/1999/xlink" x="0px" y="0px"
	 viewBox="0 0 169 129.7" style="enable-background:new 0 0 169 129.7;" xml:space="preserve">
<style type="text/css">
	.st0{fill:url(#SVGID_1_);}
	.st1{fill:#87A1A9;fill-opacity:0.4;}
	.st2{fill:url(#SVGID_2_);}
	.st3{fill:url(#SVGID_3_);}
	.st4{fill:url(#SVGID_4_);}
	.st5{fill:url(#SVGID_5_);}
	.st6{fill:url(#SVGID_6_);}
	.st7{fill:url(#SVGID_7_);fill-opacity:0.2;}
	.st8{fill:url(#SVGID_8_);}
	.st9{fill:url(#SVGID_9_);}
	.st10{fill:url(#SVGID_10_);}
	.st11{fill:url(#SVGID_11_);}
	.st12{fill:url(#SVGID_12_);}
	.st13{fill:url(#SVGID_13_);}
	.st14{fill:url(#SVGID_14_);}
	.st15{fill:url(#SVGID_15_);}
	.st16{fill:url(#SVGID_16_);}
	.st17{fill:url(#SVGID_17_);}
	.st18{fill:url(#SVGID_18_);}
	.st19{fill:url(#SVGID_19_);}
	.st20{fill:url(#SVGID_20_);}
	.st21{fill:#FFFFFF;fill-opacity:0.32;}
	.st22{fill:url(#SVGID_21_);}
</style>
<linearGradient id="SVGID_1_" gradientUnits="userSpaceOnUse" x1="36.4" y1="694.7" x2="36.4" y2="709.3488" gradientTransform="matrix(1 0 0 1 0 -660)">
	<stop  offset="0" style="stop-color:#BAE0FF"/>
	<stop  offset="0.4427" style="stop-color:#FFFFFF"/>
	<stop  offset="1" style="stop-color:#C1CCCF"/>
</linearGradient>
<path class="st0" d="M34.5,42c0,4,0.9,7.3,1.9,7.3c1.1,0,1.9-3.3,1.9-7.3s-0.9-7.3-1.9-7.3S34.5,38,34.5,42z"/>
<path class="st1" d="M34.5,42c0,4,0.9,7.3,1.9,7.3c1.1,0,1.9-3.3,1.9-7.3s-0.9-7.3-1.9-7.3S34.5,38,34.5,42z"/>
<linearGradient id="SVGID_2_" gradientUnits="userSpaceOnUse" x1="50.5" y1="694.7" x2="50.5" y2="709.3488" gradientTransform="matrix(1 0 0 1 0 -660)">
	<stop  offset="0" style="stop-color:#BAE0FF"/>
	<stop  offset="0.4479" style="stop-color:#FFFFFF"/>
	<stop  offset="1" style="stop-color:#C1CCCF"/>
</linearGradient>
<path class="st2" d="M64.6,49.3V34.7H36.4v14.6C36.4,49.3,64.6,49.3,64.6,49.3z"/>
<path class="st1" d="M64.6,49.3V34.7H36.4v14.6C36.4,49.3,64.6,49.3,64.6,49.3z"/>
<linearGradient id="SVGID_3_" gradientUnits="userSpaceOnUse" x1="67.8582" y1="697.6558" x2="61.224" y2="705.3609" gradientTransform="matrix(1 0 0 1 0 -660)">
	<stop  offset="0" style="stop-color:#BAE0FF"/>
	<stop  offset="0.3191" style="stop-color:#EBEBEB"/>
	<stop  offset="1" style="stop-color:#E1DFDB"/>
</linearGradient>
<path class="st3" d="M62.2,41.9c0,4,0.9,7.3,2,7.3s2-3.2,2-7.3c0-4-0.9-7.3-2-7.3S62.2,37.9,62.2,41.9z"/>
<linearGradient id="SVGID_4_" gradientUnits="userSpaceOnUse" x1="67.7786" y1="697.8186" x2="61.4391" y2="705.2567" gradientTransform="matrix(1 0 0 1 0 -660)">
	<stop  offset="0" style="stop-color:#BAE0FF"/>
	<stop  offset="0.3191" style="stop-color:#EBEBEB"/>
	<stop  offset="1" style="stop-color:#E1DFDB"/>
</linearGradient>
<path class="st4" d="M62.4,41.9c0,3.8,0.9,6.9,1.9,6.9s1.9-3.1,1.9-6.9S65.3,35,64.3,35S62.4,38.1,62.4,41.9z"/>
<linearGradient id="SVGID_5_" gradientUnits="userSpaceOnUse" x1="68.4447" y1="701.9" x2="58.7543" y2="701.9" gradientTransform="matrix(1 0 0 1 0 -660)">
	<stop  offset="0" style="stop-color:#5F97BC;stop-opacity:0.33"/>
	<stop  offset="0.7083" style="stop-color:#103F5F"/>
</linearGradient>
<path class="st5" d="M62.4,41.9c0,3.8,0.9,6.9,1.9,6.9s1.9-3.1,1.9-6.9S65.3,35,64.3,35S62.4,38.1,62.4,41.9z"/>
<linearGradient id="SVGID_6_" gradientUnits="userSpaceOnUse" x1="51.0772" y1="783.2" x2="118.1525" y2="783.2" gradientTransform="matrix(1 0 0 1 0 -660)">
	<stop  offset="0" style="stop-color:#BAE0FF"/>
	<stop  offset="0.3191" style="stop-color:#FFFFFF"/>
	<stop  offset="1" style="stop-color:#C1CCCF"/>
</linearGradient>
<path class="st6" d="M84.6,129.7c16.7,0,30.3-2.9,30.3-6.5s-13.6-6.5-30.3-6.5s-30.3,2.9-30.3,6.5S67.9,129.7,84.6,129.7z"/>
<linearGradient id="SVGID_7_" gradientUnits="userSpaceOnUse" x1="84.6" y1="795.532" x2="84.6" y2="785.509" gradientTransform="matrix(1 0 0 1 0 -660)">
	<stop  offset="0" style="stop-color:#000000"/>
	<stop  offset="1" style="stop-color:#000000;stop-opacity:0"/>
</linearGradient>
<path class="st7" d="M84.6,129.7c16.7,0,30.3-2.9,30.3-6.5s-13.6-6.5-30.3-6.5s-30.3,2.9-30.3,6.5S67.9,129.7,84.6,129.7z"/>
<linearGradient id="SVGID_8_" gradientUnits="userSpaceOnUse" x1="50.7" y1="733.7" x2="118.5" y2="733.7" gradientTransform="matrix(1 0 0 1 0 -660)">
	<stop  offset="0" style="stop-color:#BAE0FF"/>
	<stop  offset="0.3191" style="stop-color:#FFFFFF"/>
	<stop  offset="1" style="stop-color:#C1CCCF"/>
</linearGradient>
<path class="st8" d="M113.3,123.1H56c-2.9,0-5.3-2.4-5.3-5.3V31.1c0-3.8,3-6.8,6.8-6.8h54.2c3.8,0,6.8,3,6.8,6.8v86.8
	C118.5,120.7,116.2,123.1,113.3,123.1z"/>
<linearGradient id="SVGID_9_" gradientUnits="userSpaceOnUse" x1="56.6" y1="684.4" x2="112.6966" y2="684.4" gradientTransform="matrix(1 0 0 1 0 -660)">
	<stop  offset="0" style="stop-color:#BAE0FF"/>
	<stop  offset="0.3191" style="stop-color:#EBEBEB"/>
	<stop  offset="1" style="stop-color:#E1DFDB"/>
</linearGradient>
<path class="st9" d="M84.6,30.1c15.5,0,28-2.6,28-5.7s-12.6-5.7-28-5.7c-15.5,0-28,2.6-28,5.7C56.6,27.6,69.1,30.1,84.6,30.1z"/>
<linearGradient id="SVGID_10_" gradientUnits="userSpaceOnUse" x1="76.4643" y1="684.1" x2="92.7627" y2="684.1" gradientTransform="matrix(1 0 0 1 0 -660)">
	<stop  offset="0" style="stop-color:#BAE0FF"/>
	<stop  offset="0.3191" style="stop-color:#FFFFFF"/>
	<stop  offset="1" style="stop-color:#C1CCCF"/>
</linearGradient>
<path class="st10" d="M84.6,26.3c4.5,0,8.1-1,8.1-2.2s-3.6-2.2-8.1-2.2s-8.1,1-8.1,2.2S80.1,26.3,84.6,26.3z"/>
<linearGradient id="SVGID_11_" gradientUnits="userSpaceOnUse" x1="76.4643" y1="679.35" x2="92.7643" y2="679.35" gradientTransform="matrix(1 0 0 1 0 -660)">
	<stop  offset="0" style="stop-color:#BAE0FF"/>
	<stop  offset="0.3191" style="stop-color:#FFFFFF"/>
	<stop  offset="1" style="stop-color:#C1CCCF"/>
</linearGradient>
<path class="st11" d="M92.8,14.6H76.5v9.5h16.3V14.6z"/>
<linearGradient id="SVGID_12_" gradientUnits="userSpaceOnUse" x1="79.8031" y1="670.4698" x2="88.4637" y2="677.9266" gradientTransform="matrix(1 0 0 1 0 -660)">
	<stop  offset="0" style="stop-color:#BAE0FF"/>
	<stop  offset="0.3191" style="stop-color:#EBEBEB"/>
	<stop  offset="1" style="stop-color:#E1DFDB"/>
</linearGradient>
<path class="st12" d="M84.6,16.8c4.5,0,8.1-1,8.1-2.2s-3.6-2.2-8.1-2.2s-8.1,1-8.1,2.2S80.1,16.8,84.6,16.8z"/>
<linearGradient id="SVGID_13_" gradientUnits="userSpaceOnUse" x1="77.3628" y1="674.3" x2="91.863" y2="674.3" gradientTransform="matrix(1 0 0 1 0 -660)">
	<stop  offset="0" style="stop-color:#BAE0FF"/>
	<stop  offset="0.3191" style="stop-color:#FFFFFF"/>
	<stop  offset="1" style="stop-color:#C1CCCF"/>
</linearGradient>
<path class="st13" d="M84.6,16.3c4,0,7.3-0.9,7.3-2s-3.2-2-7.3-2c-4,0-7.3,0.9-7.3,2C77.4,15.4,80.6,16.3,84.6,16.3z"/>
<path class="st1" d="M84.6,16.3c4,0,7.3-0.9,7.3-2s-3.2-2-7.3-2c-4,0-7.3,0.9-7.3,2C77.4,15.4,80.6,16.3,84.6,16.3z"/>
<linearGradient id="SVGID_14_" gradientUnits="userSpaceOnUse" x1="77.3628" y1="668.15" x2="91.8628" y2="668.15" gradientTransform="matrix(1 0 0 1 0 -660)">
	<stop  offset="0" style="stop-color:#BAE0FF"/>
	<stop  offset="0.3191" style="stop-color:#FFFFFF"/>
	<stop  offset="1" style="stop-color:#C1CCCF"/>
</linearGradient>
<path class="st14" d="M91.9,2H77.4v12.3h14.5V2z"/>
<path class="st1" d="M91.9,2H77.4v12.3h14.5V2z"/>
<linearGradient id="SVGID_15_" gradientUnits="userSpaceOnUse" x1="80.3498" y1="658.3207" x2="88.0548" y2="664.9549" gradientTransform="matrix(1 0 0 1 0 -660)">
	<stop  offset="0" style="stop-color:#BAE0FF"/>
	<stop  offset="0.3191" style="stop-color:#EBEBEB"/>
	<stop  offset="1" style="stop-color:#E1DFDB"/>
</linearGradient>
<path class="st15" d="M84.6,4c4,0,7.3-0.9,7.3-2s-3.2-2-7.3-2c-4,0-7.3,0.9-7.3,2C77.4,3.1,80.6,4,84.6,4z"/>
<linearGradient id="SVGID_16_" gradientUnits="userSpaceOnUse" x1="80.4642" y1="658.4561" x2="87.9021" y2="664.7956" gradientTransform="matrix(1 0 0 1 0 -660)">
	<stop  offset="0" style="stop-color:#BAE0FF"/>
	<stop  offset="0.3191" style="stop-color:#EBEBEB"/>
	<stop  offset="1" style="stop-color:#E1DFDB"/>
</linearGradient>
<path class="st16" d="M84.6,3.9c3.8,0,6.9-0.9,6.9-1.9c0-1.1-3.1-1.9-6.9-1.9S77.7,1,77.7,2S80.8,3.9,84.6,3.9z"/>
<linearGradient id="SVGID_17_" gradientUnits="userSpaceOnUse" x1="84.6" y1="657.7637" x2="84.6" y2="667.4542" gradientTransform="matrix(1 0 0 1 0 -660)">
	<stop  offset="0" style="stop-color:#5F97BC;stop-opacity:0.33"/>
	<stop  offset="0.7083" style="stop-color:#103F5F"/>
</linearGradient>
<path class="st17" d="M84.6,3.9c3.8,0,6.9-0.9,6.9-1.9c0-1.1-3.1-1.9-6.9-1.9S77.7,1,77.7,2S80.8,3.9,84.6,3.9z"/>
<linearGradient id="SVGID_18_" gradientUnits="userSpaceOnUse" x1="76.3647" y1="750.25" x2="91.2793" y2="750.25" gradientTransform="matrix(1 0 0 1 0 -660)">
	<stop  offset="0" style="stop-color:#BAE0FF"/>
	<stop  offset="0.3191" style="stop-color:#FFFFFF"/>
	<stop  offset="1" style="stop-color:#C1CCCF"/>
</linearGradient>
<path class="st18" d="M83.8,92.3c4.1,0,7.5-0.9,7.5-2.1c0-1.1-3.3-2-7.5-2s-7.5,0.9-7.5,2C76.4,91.4,79.7,92.3,83.8,92.3z"/>
<path class="st1" d="M83.8,92.3c4.1,0,7.5-0.9,7.5-2.1c0-1.1-3.3-2-7.5-2s-7.5,0.9-7.5,2C76.4,91.4,79.7,92.3,83.8,92.3z"/>
<linearGradient id="SVGID_19_" gradientUnits="userSpaceOnUse" x1="56.9" y1="742.95" x2="112.4" y2="742.95" gradientTransform="matrix(1 0 0 1 0 -660)">
	<stop  offset="0" style="stop-color:#897960"/>
	<stop  offset="0.3191" style="stop-color:#A7967C"/>
	<stop  offset="1" style="stop-color:#817056"/>
</linearGradient>
<path class="st19" d="M112.4,49.4H56.9v67.1h55.5V49.4z"/>
<linearGradient id="SVGID_20_" gradientUnits="userSpaceOnUse" x1="56.8589" y1="709.2" x2="112.3695" y2="709.2" gradientTransform="matrix(1 0 0 1 0 -660)">
	<stop  offset="0" style="stop-color:#897960"/>
	<stop  offset="0.3191" style="stop-color:#A7967C"/>
	<stop  offset="1" style="stop-color:#817056"/>
</linearGradient>
<path class="st20" d="M84.6,53c15.3,0,27.8-1.7,27.8-3.8s-12.4-3.8-27.8-3.8c-15.3,0-27.8,1.7-27.8,3.8C56.9,51.3,69.3,53,84.6,53z"
	/>
<path class="st21" d="M84.6,53c15.3,0,27.8-1.7,27.8-3.8s-12.4-3.8-27.8-3.8c-15.3,0-27.8,1.7-27.8,3.8C56.9,51.3,69.3,53,84.6,53z"
	/>
<linearGradient id="SVGID_21_" gradientUnits="userSpaceOnUse" x1="56.8589" y1="776.6" x2="112.3695" y2="776.6" gradientTransform="matrix(1 0 0 1 0 -660)">
	<stop  offset="0" style="stop-color:#897960"/>
	<stop  offset="0.3191" style="stop-color:#A7967C"/>
	<stop  offset="1" style="stop-color:#817056"/>
</linearGradient>
<path class="st22" d="M84.6,122c15.3,0,27.8-2.4,27.8-5.4s-12.4-5.4-27.8-5.4c-15.3,0-27.8,2.4-27.8,5.4
	C56.9,119.6,69.3,122,84.6,122z"/>
</svg>
