<?xml version="1.0" encoding="utf-8"?>
<!-- Generator: Adobe Illustrator 23.0.3, SVG Export Plug-In . SVG Version: 6.00 Build 0)  -->
<svg version="1.1" id="Слой_1" xmlns="http://www.w3.org/2000/svg" xmlns:xlink="http://www.w3.org/1999/xlink" x="0px" y="0px"
	 viewBox="0 0 169 89" style="enable-background:new 0 0 169 89;" xml:space="preserve">
<style type="text/css">
	.st0{fill:url(#SVGID_1_);}
	.st1{fill:url(#SVGID_2_);}
	.st2{fill:url(#SVGID_3_);}
	.st3{fill:url(#SVGID_4_);}
	.st4{fill:url(#SVGID_5_);}
	.st5{fill:url(#SVGID_6_);}
	.st6{fill:url(#SVGID_7_);}
	.st7{fill:url(#SVGID_8_);}
	.st8{fill:url(#SVGID_9_);}
	.st9{fill:url(#SVGID_10_);}
	.st10{fill:url(#SVGID_11_);}
	.st11{fill:url(#SVGID_12_);}
	.st12{fill:url(#SVGID_13_);}
	.st13{fill:url(#SVGID_14_);}
	.st14{fill:url(#SVGID_15_);}
	.st15{fill:url(#SVGID_16_);}
	.st16{fill:url(#SVGID_17_);}
	.st17{fill:url(#SVGID_18_);}
	.st18{fill:url(#SVGID_19_);}
	.st19{fill:url(#SVGID_20_);}
	.st20{fill:#FFFFFF;fill-opacity:0.32;}
	.st21{fill:url(#SVGID_21_);}
	.st22{fill:#FFFFFF;}
</style>
<linearGradient id="SVGID_1_" gradientUnits="userSpaceOnUse" x1="57.7988" y1="-30.0232" x2="111.2012" y2="-30.0232" gradientTransform="matrix(1 0 0 -1 0 50)">
	<stop  offset="0" style="stop-color:#BAE0FF"/>
	<stop  offset="0.3191" style="stop-color:#FFFFFF"/>
	<stop  offset="1" style="stop-color:#C1CCCF"/>
</linearGradient>
<path class="st0" d="M84.5,89c-3.4,0-26.7,0.9-26.7-7.7V77c0-3.3,2.4-6,5.3-6h42.7c3,0,5.3,2.7,5.3,6v4.3
	C111.3,89.9,87.8,89,84.5,89z"/>
<linearGradient id="SVGID_2_" gradientUnits="userSpaceOnUse" x1="59.1523" y1="-15.9082" x2="109.9051" y2="-15.9082" gradientTransform="matrix(1 0 0 -1 0 50)">
	<stop  offset="0" style="stop-color:#BAE0FF"/>
	<stop  offset="0.3191" style="stop-color:#E5E8EA"/>
	<stop  offset="1" style="stop-color:#C1CCCF"/>
</linearGradient>
<path class="st1" d="M84.5,78.4c-3.2,0-25.4,0.8-25.4-7.1V58.9c0-3.1,2.3-5.5,5.1-5.5h40.6c2.8,0,5.1,2.5,5.1,5.5v12.3
	C110,79.2,87.7,78.4,84.5,78.4z"/>
<linearGradient id="SVGID_3_" gradientUnits="userSpaceOnUse" x1="57.7988" y1="-4.0912" x2="111.2012" y2="-4.0912" gradientTransform="matrix(1 0 0 -1 0 50)">
	<stop  offset="0" style="stop-color:#BAE0FF"/>
	<stop  offset="0.3191" style="stop-color:#FFFFFF"/>
	<stop  offset="1" style="stop-color:#C1CCCF"/>
</linearGradient>
<path class="st2" d="M84.5,63.1c-3.4,0-26.7,0.9-26.7-7.7v-4.3c0-3.3,2.4-6,5.3-6h42.7c3,0,5.3,2.7,5.3,6v4.3
	C111.3,63.9,87.8,63.1,84.5,63.1z"/>
<linearGradient id="SVGID_4_" gradientUnits="userSpaceOnUse" x1="59.1523" y1="8.555" x2="109.9051" y2="8.555" gradientTransform="matrix(1 0 0 -1 0 50)">
	<stop  offset="0" style="stop-color:#BAE0FF"/>
	<stop  offset="0.3191" style="stop-color:#E5E8EA"/>
	<stop  offset="1" style="stop-color:#C1CCCF"/>
</linearGradient>
<path class="st3" d="M84.5,52.9c-3.2,0-25.4,0.8-25.4-7.1V35.5c0-3.1,2.3-5.5,5.1-5.5h40.6c2.8,0,5.1,2.5,5.1,5.5v10.4
	C110,53.7,87.7,52.9,84.5,52.9z"/>
<linearGradient id="SVGID_5_" gradientUnits="userSpaceOnUse" x1="57.7988" y1="19.9699" x2="111.2012" y2="19.9699" gradientTransform="matrix(1 0 0 -1 0 50)">
	<stop  offset="0" style="stop-color:#BAE0FF"/>
	<stop  offset="0.3191" style="stop-color:#FFFFFF"/>
	<stop  offset="1" style="stop-color:#C1CCCF"/>
</linearGradient>
<path class="st4" d="M84.5,39c-3.4,0-26.7,0.9-26.7-7.7V27c0-3.3,2.4-6,5.3-6h42.7c3,0,5.3,2.7,5.3,6v4.3
	C111.3,39.9,87.8,39,84.5,39z"/>
<linearGradient id="SVGID_6_" gradientUnits="userSpaceOnUse" x1="62.4258" y1="28.8158" x2="106.6038" y2="28.8158" gradientTransform="matrix(1 0 0 -1 0 50)">
	<stop  offset="0" style="stop-color:#BAE0FF"/>
	<stop  offset="0.3191" style="stop-color:#EBEBEB"/>
	<stop  offset="1" style="stop-color:#E1DFDB"/>
</linearGradient>
<path class="st5" d="M84.5,26.2c12.2,0,22.1-2.2,22.1-5c0-2.8-9.9-5-22.1-5c-12.2,0-22.1,2.2-22.1,5C62.4,24,72.3,26.2,84.5,26.2z"
	/>
<linearGradient id="SVGID_7_" gradientUnits="userSpaceOnUse" x1="78.0976" y1="29.1507" x2="90.9332" y2="29.1507" gradientTransform="matrix(1 0 0 -1 0 50)">
	<stop  offset="0" style="stop-color:#BAE0FF"/>
	<stop  offset="0.3191" style="stop-color:#FFFFFF"/>
	<stop  offset="1" style="stop-color:#C1CCCF"/>
</linearGradient>
<path class="st6" d="M84.5,22.8c3.5,0,6.4-0.9,6.4-2c0-1.1-2.9-2-6.4-2c-3.5,0-6.4,0.9-6.4,2C78.1,21.9,81,22.8,84.5,22.8z"/>
<linearGradient id="SVGID_8_" gradientUnits="userSpaceOnUse" x1="78.0976" y1="33.3358" x2="90.9332" y2="33.3358" gradientTransform="matrix(1 0 0 -1 0 50)">
	<stop  offset="0" style="stop-color:#BAE0FF"/>
	<stop  offset="0.3191" style="stop-color:#FFFFFF"/>
	<stop  offset="1" style="stop-color:#C1CCCF"/>
</linearGradient>
<path class="st7" d="M90.9,12.5H78.1v8.4h12.8V12.5z"/>
<linearGradient id="SVGID_9_" gradientUnits="userSpaceOnUse" x1="80.3858" y1="40.6973" x2="87.8477" y2="34.9576" gradientTransform="matrix(1 0 0 -1 0 50)">
	<stop  offset="0" style="stop-color:#BAE0FF"/>
	<stop  offset="0.3191" style="stop-color:#EBEBEB"/>
	<stop  offset="1" style="stop-color:#E1DFDB"/>
</linearGradient>
<path class="st8" d="M84.5,14.5c3.5,0,6.4-0.9,6.4-2c0-1.1-2.9-2-6.4-2c-3.5,0-6.4,0.9-6.4,2C78.1,13.6,81,14.5,84.5,14.5z"/>
<linearGradient id="SVGID_10_" gradientUnits="userSpaceOnUse" x1="76.6465" y1="35.8639" x2="92.3531" y2="35.8639" gradientTransform="matrix(1 0 0 -1 0 50)">
	<stop  offset="0" style="stop-color:#BAE0FF"/>
	<stop  offset="0.3191" style="stop-color:#FFFFFF"/>
	<stop  offset="1" style="stop-color:#C1CCCF"/>
</linearGradient>
<path class="st9" d="M84.5,16.8c4.3,0,7.9-1.2,7.9-2.6c0-1.4-3.5-2.6-7.9-2.6c-4.3,0-7.9,1.2-7.9,2.6C76.6,15.6,80.2,16.8,84.5,16.8
	z"/>
<linearGradient id="SVGID_11_" gradientUnits="userSpaceOnUse" x1="76.6465" y1="37.4346" x2="92.3531" y2="37.4346" gradientTransform="matrix(1 0 0 -1 0 50)">
	<stop  offset="0" style="stop-color:#BAE0FF"/>
	<stop  offset="0.3191" style="stop-color:#FFFFFF"/>
	<stop  offset="1" style="stop-color:#C1CCCF"/>
</linearGradient>
<path class="st10" d="M92.4,10.5H76.6v4.2h15.7V10.5z"/>
<linearGradient id="SVGID_12_" gradientUnits="userSpaceOnUse" x1="80.0019" y1="43.5222" x2="88.1291" y2="36.3066" gradientTransform="matrix(1 0 0 -1 0 50)">
	<stop  offset="0" style="stop-color:#BAE0FF"/>
	<stop  offset="0.3191" style="stop-color:#EBEBEB"/>
	<stop  offset="1" style="stop-color:#E1DFDB"/>
</linearGradient>
<path class="st11" d="M84.5,12.6c4.3,0,7.9-0.9,7.9-2.1s-3.5-2.1-7.9-2.1c-4.3,0-7.9,0.9-7.9,2.1S80.2,12.6,84.5,12.6z"/>
<linearGradient id="SVGID_13_" gradientUnits="userSpaceOnUse" x1="78.0976" y1="40.7019" x2="90.9332" y2="40.7019" gradientTransform="matrix(1 0 0 -1 0 50)">
	<stop  offset="0" style="stop-color:#BAE0FF"/>
	<stop  offset="0.3191" style="stop-color:#FFFFFF"/>
	<stop  offset="1" style="stop-color:#C1CCCF"/>
</linearGradient>
<path class="st12" d="M84.5,11.3c3.5,0,6.4-0.9,6.4-2c0-1.1-2.9-2-6.4-2c-3.5,0-6.4,0.9-6.4,2C78.1,10.4,81,11.3,84.5,11.3z"/>
<linearGradient id="SVGID_14_" gradientUnits="userSpaceOnUse" x1="78.0976" y1="42.7924" x2="90.9332" y2="42.7924" gradientTransform="matrix(1 0 0 -1 0 50)">
	<stop  offset="0" style="stop-color:#BAE0FF"/>
	<stop  offset="0.3191" style="stop-color:#FFFFFF"/>
	<stop  offset="1" style="stop-color:#C1CCCF"/>
</linearGradient>
<path class="st13" d="M90.9,5.1H78.1v4.2h12.8V5.1z"/>
<linearGradient id="SVGID_15_" gradientUnits="userSpaceOnUse" x1="80.3858" y1="48.0598" x2="87.8477" y2="42.3201" gradientTransform="matrix(1 0 0 -1 0 50)">
	<stop  offset="0" style="stop-color:#BAE0FF"/>
	<stop  offset="0.3191" style="stop-color:#EBEBEB"/>
	<stop  offset="1" style="stop-color:#E1DFDB"/>
</linearGradient>
<path class="st14" d="M84.5,7.1c3.5,0,6.4-0.9,6.4-2c0-1.1-2.9-2-6.4-2c-3.5,0-6.4,0.9-6.4,2C78.1,6.2,81,7.1,84.5,7.1z"/>
<linearGradient id="SVGID_16_" gradientUnits="userSpaceOnUse" x1="76.6465" y1="44.2408" x2="92.3531" y2="44.2408" gradientTransform="matrix(1 0 0 -1 0 50)">
	<stop  offset="0" style="stop-color:#BAE0FF"/>
	<stop  offset="0.3191" style="stop-color:#FFFFFF"/>
	<stop  offset="1" style="stop-color:#C1CCCF"/>
</linearGradient>
<path class="st15" d="M84.5,8.4c4.3,0,7.9-1.2,7.9-2.6c0-1.4-3.5-2.6-7.9-2.6c-4.3,0-7.9,1.2-7.9,2.6C76.6,7.2,80.2,8.4,84.5,8.4z"
	/>
<linearGradient id="SVGID_17_" gradientUnits="userSpaceOnUse" x1="76.6465" y1="45.8116" x2="92.3531" y2="45.8116" gradientTransform="matrix(1 0 0 -1 0 50)">
	<stop  offset="0" style="stop-color:#BAE0FF"/>
	<stop  offset="0.3191" style="stop-color:#FFFFFF"/>
	<stop  offset="1" style="stop-color:#C1CCCF"/>
</linearGradient>
<path class="st16" d="M92.4,2.1H76.6v4.2h15.7V2.1z"/>
<linearGradient id="SVGID_18_" gradientUnits="userSpaceOnUse" x1="80.0019" y1="51.8992" x2="88.1291" y2="44.6837" gradientTransform="matrix(1 0 0 -1 0 50)">
	<stop  offset="0" style="stop-color:#BAE0FF"/>
	<stop  offset="0.3191" style="stop-color:#EBEBEB"/>
	<stop  offset="1" style="stop-color:#E1DFDB"/>
</linearGradient>
<path class="st17" d="M84.5,4.2c4.3,0,7.9-0.9,7.9-2.1S88.8,0,84.5,0c-4.3,0-7.9,0.9-7.9,2.1S80.2,4.2,84.5,4.2z"/>
<linearGradient id="SVGID_19_" gradientUnits="userSpaceOnUse" x1="65.1289" y1="-5.4966" x2="103.8718" y2="-5.4966" gradientTransform="matrix(1 0 0 -1 0 50)">
	<stop  offset="0" style="stop-color:#2E5DA4"/>
	<stop  offset="0.3191" style="stop-color:#69B2DB"/>
	<stop  offset="1" style="stop-color:#285A95"/>
</linearGradient>
<path class="st18" d="M103.9,30.4H65.1v50.3h38.7V30.4z"/>
<linearGradient id="SVGID_20_" gradientUnits="userSpaceOnUse" x1="65.1289" y1="19.6337" x2="103.8718" y2="19.6337" gradientTransform="matrix(1 0 0 -1 0 50)">
	<stop  offset="0" style="stop-color:#3C72B1"/>
	<stop  offset="0.3191" style="stop-color:#69B2DB"/>
	<stop  offset="1" style="stop-color:#2E629B"/>
</linearGradient>
<path class="st19" d="M84.5,34.6c10.7,0,19.4-1.9,19.4-4.2c0-2.3-8.7-4.2-19.4-4.2s-19.4,1.9-19.4,4.2
	C65.1,32.7,73.8,34.6,84.5,34.6z"/>
<path class="st20" d="M84.5,34.6c10.7,0,19.4-1.9,19.4-4.2c0-2.3-8.7-4.2-19.4-4.2s-19.4,1.9-19.4,4.2
	C65.1,32.7,73.8,34.6,84.5,34.6z"/>
<linearGradient id="SVGID_21_" gradientUnits="userSpaceOnUse" x1="65.1289" y1="-30.1035" x2="103.8718" y2="-30.1035" gradientTransform="matrix(1 0 0 -1 0 50)">
	<stop  offset="0" style="stop-color:#2E5DA4"/>
	<stop  offset="0.3191" style="stop-color:#69B2DB"/>
	<stop  offset="1" style="stop-color:#285A95"/>
</linearGradient>
<path class="st21" d="M84.5,83.8c10.7,0,19.4-1.6,19.4-3.7s-8.7-3.7-19.4-3.7s-19.4,1.6-19.4,3.7S73.8,83.8,84.5,83.8z"/>
<path class="st22" d="M88.3,51.4v3.9c0,1.5-0.2,2.9-0.5,4c-0.4,1.1-0.9,2.1-1.5,2.8c-0.7,0.7-1.4,1.3-2.3,1.7
	c-0.9,0.4-1.9,0.5-3,0.5c-0.9,0-1.7-0.1-2.5-0.3c-0.8-0.2-1.5-0.6-2.1-1.1c-0.6-0.5-1.1-1.1-1.6-1.8c-0.4-0.7-0.8-1.6-1-2.5
	c-0.2-1-0.4-2.1-0.4-3.3v-3.9c0-1.5,0.2-2.9,0.5-4c0.4-1.1,0.9-2.1,1.5-2.8c0.7-0.7,1.5-1.3,2.4-1.7c0.9-0.4,1.9-0.5,3-0.5
	c0.9,0,1.7,0.1,2.4,0.4c0.8,0.2,1.5,0.6,2.1,1.1c0.6,0.5,1.1,1.1,1.6,1.8c0.4,0.7,0.8,1.6,1,2.5C88.1,49.1,88.3,50.2,88.3,51.4z
	 M83.3,55.9v-5.1c0-0.7,0-1.3-0.1-1.8c-0.1-0.5-0.2-0.9-0.3-1.3c-0.1-0.4-0.3-0.6-0.5-0.8c-0.2-0.2-0.4-0.4-0.7-0.5
	c-0.3-0.1-0.5-0.2-0.8-0.2c-0.4,0-0.7,0.1-1.1,0.2c-0.3,0.2-0.6,0.4-0.8,0.8c-0.2,0.4-0.4,0.8-0.5,1.4c-0.1,0.6-0.2,1.3-0.2,2.2v5.1
	c0,0.7,0,1.3,0.1,1.8c0.1,0.5,0.2,0.9,0.3,1.3c0.1,0.4,0.3,0.6,0.5,0.9c0.2,0.2,0.4,0.4,0.7,0.5c0.3,0.1,0.6,0.1,0.9,0.1
	c0.4,0,0.7-0.1,1-0.2c0.3-0.2,0.6-0.4,0.8-0.8c0.2-0.4,0.4-0.8,0.5-1.4C83.3,57.5,83.3,56.8,83.3,55.9z"/>
<path class="st22" d="M96.9,67.7v1.8H90V68l3.2-3.4c0.3-0.3,0.5-0.6,0.7-0.9c0.2-0.3,0.3-0.5,0.4-0.7c0.1-0.2,0.1-0.4,0.1-0.6
	c0-0.3,0-0.5-0.1-0.7c-0.1-0.2-0.2-0.3-0.4-0.4c-0.2-0.1-0.4-0.2-0.6-0.2c-0.2,0-0.4,0.1-0.6,0.2c-0.2,0.1-0.3,0.3-0.4,0.6
	c-0.1,0.2-0.1,0.5-0.1,0.8h-2.3c0-0.6,0.1-1.2,0.4-1.7c0.3-0.5,0.7-0.9,1.3-1.2c0.5-0.3,1.2-0.5,1.9-0.5c0.7,0,1.3,0.1,1.8,0.3
	c0.5,0.2,0.9,0.6,1.1,1c0.3,0.4,0.4,0.9,0.4,1.6c0,0.3-0.1,0.7-0.2,1c-0.1,0.3-0.3,0.6-0.5,0.9c-0.2,0.3-0.5,0.6-0.8,1
	c-0.3,0.3-0.6,0.7-1,1L93,67.7H96.9z"/>
</svg>
