<svg width="68" height="46" viewBox="0 0 68 46" fill="none" xmlns="http://www.w3.org/2000/svg">
<path d="M36.936 45.5358C36.936 43.7403 36.936 42.0101 36.936 40.2689C43.8352 39.8554 48.4382 36.4058 50.9085 29.8984C50.3317 29.7678 49.842 29.6699 49.3632 29.5502C43.0734 28.0267 38.4921 22.5422 38.0242 15.9912C37.5671 9.61438 41.3976 3.4987 47.35 1.11555C56.5018 -2.55168 66.5785 3.31371 67.8517 13.1075C68.2652 16.2633 67.7647 19.3646 66.9594 22.4116C63.8036 34.2947 54.1078 43.1309 41.9852 45.1441C40.4726 45.3944 38.9274 45.427 37.393 45.5576C37.2516 45.5685 37.1101 45.5358 36.936 45.5358Z" fill="#BAE0FF"/>
<path d="M0.998547 45.5576C0.998547 43.7403 0.998547 42.0101 0.998547 40.269C7.89773 39.8555 12.5008 36.4059 14.971 29.9202C14.7316 29.8549 14.5902 29.8005 14.4378 29.7787C7.33186 28.5055 2.14116 22.4116 2.0541 15.2404C1.96705 8.00388 6.98365 1.7685 14.0461 0.310316C22.8061 -1.49609 31.2614 4.7937 31.9687 13.6952C32.3169 18.0588 31.3811 22.2484 29.7379 26.2639C25.0477 37.7552 14.0025 45.3073 1.57529 45.5576C1.40118 45.5576 1.21619 45.5576 0.998547 45.5576Z" fill="#BAE0FF"/>
</svg>
