<svg width="51" height="68" viewBox="0 0 51 68" fill="none" xmlns="http://www.w3.org/2000/svg">
<path d="M22.8918 8.78772C23.605 9.89711 28.6765 17.1081 31.0538 19.8816C33.8273 23.0513 36.6007 26.221 38.8988 29.7077C41.1968 33.1943 42.9401 36.9979 43.5741 41.1185C45.0004 49.9937 42.4647 57.3632 35.2536 62.9101C31.0538 66.1591 26.1408 67.5854 20.9108 67.0307C12.5111 66.2383 6.48871 61.9592 2.84357 54.352C1.17949 50.8653 0.783276 47.1409 1.10024 43.2581C1.5757 37.5526 3.87372 32.4019 7.20189 27.8058C9.81689 24.3192 20.9108 12.2744 22.8126 8.86696C22.8126 8.86696 22.8918 8.86696 22.8918 8.78772Z" stroke="#979797" stroke-linecap="round" stroke-linejoin="round"/>
<path d="M22.812 57.5216L15.6802 55.9367L9.34082 44.8428L14.8878 29.7868L22.812 22.655H23.2082L30.023 29.7868L35.887 44.8428L29.1514 55.9367L23.2082 57.5216H22.812Z" stroke="#979797" stroke-width="0.6005" stroke-linecap="round" stroke-linejoin="round"/>
<path d="M15.6807 55.9367L22.8125 42.4656L29.1518 55.9367" stroke="#979797" stroke-width="0.6005" stroke-linecap="round" stroke-linejoin="round"/>
<path d="M22.8125 57.5216V9.18384" stroke="#979797" stroke-width="0.6005" stroke-linecap="round" stroke-linejoin="round"/>
<path d="M9.34082 44.8428L22.812 42.4656L35.4907 44.8428" stroke="#979797" stroke-width="0.6005" stroke-linecap="round" stroke-linejoin="round"/>
<path d="M14.8887 29.7869L22.8129 42.4656L29.9447 29.7869" stroke="#979797" stroke-width="0.6005" stroke-linecap="round" stroke-linejoin="round"/>
<path d="M15.6806 17.9004L14.8881 29.7868H5.85452L9.34118 44.8428L3.63574 55.9367H15.6806L16.5522 66.3967L22.8124 57.5215L28.8348 66.3967L29.1517 55.9367L41.1965 56.4121L36.2835 44.8428L38.3438 28.9151L29.9441 29.7868L29.1517 17.6627L22.8124 22.655L15.6806 17.9004Z" stroke="#979797" stroke-width="0.6005" stroke-linecap="round" stroke-linejoin="round"/>
<path d="M43.2379 1L37.0762 9.62643V15.7882L43.2379 19.4852L49.3996 15.7882V9.62643L43.2379 1Z" stroke="#03ABE0" stroke-width="2" stroke-linecap="round" stroke-linejoin="round"/>
<path d="M43.2379 1.36975V13.3235L37.0762 9.62647" stroke="#03ABE0" stroke-linecap="round" stroke-linejoin="round"/>
<path d="M49.401 9.62634L43.2393 13.3234L49.401 15.7881" stroke="#03ABE0" stroke-linecap="round" stroke-linejoin="round"/>
<path d="M37.0762 15.7882L43.2379 13.3235V19.4852" stroke="#03ABE0" stroke-linecap="round" stroke-linejoin="round"/>
</svg>
