<svg width="52" height="47" viewBox="0 0 52 47" fill="none" xmlns="http://www.w3.org/2000/svg">
<path d="M11.3486 39.3759V45.1494H49.9111V4.08142" stroke="#9E9E9E" stroke-linecap="round" stroke-linejoin="round"/>
<path d="M12.4375 44.8232V46.2394H51V4.51782H49.9106" stroke="#9E9E9E" stroke-width="0.5" stroke-linecap="round" stroke-linejoin="round"/>
<path d="M11.3487 4.08142H49.9112L49.8022 6.5869C49.3665 15.8462 46.7521 24.7788 42.1769 32.8399L39.6714 37.1972H1L2.30721 35.0185C7.75388 25.6503 10.804 14.9748 11.3487 4.08142Z" stroke="#9E9E9E" stroke-linecap="round" stroke-linejoin="round"/>
<path d="M49.9112 4.08142V6.91369C49.4755 16.4998 47.2968 25.9771 42.7216 34.256L40.2161 38.8312H1.98047L2.30727 38.2865" stroke="#9E9E9E" stroke-width="0.5" stroke-linecap="round" stroke-linejoin="round"/>
<path d="M18.6448 6.6964C18.9716 6.3696 19.4074 6.15173 19.952 6.15173C21.0414 6.15173 21.9128 7.0232 21.9128 8.11254C21.9128 9.20188 21.0414 10.0733 19.952 10.0733C18.8627 10.0733 17.9912 9.20188 17.9912 8.11254C17.9912 7.89467 17.9912 7.56787 18.1002 7.35" stroke="#9E9E9E" stroke-width="0.5" stroke-linecap="round" stroke-linejoin="round"/>
<path d="M18.8625 7.1319C19.1893 6.8051 19.5161 6.69617 19.9518 6.69617C20.8233 6.69617 21.4769 7.34977 21.4769 8.22124C21.4769 9.09271 20.8233 9.74631 19.9518 9.74631C19.0804 9.74631 18.4268 9.09271 18.4268 8.22124C18.4268 8.1123 18.4268 8.00337 18.4268 7.89443" stroke="#9E9E9E" stroke-width="0.5" stroke-linecap="round" stroke-linejoin="round"/>
<path d="M20.1711 8.76604C18.6461 8.76604 17.3389 6.91416 17.3389 4.73549C17.3389 2.55682 18.6461 0.704956 20.1711 0.704956C21.5873 0.704956 22.7855 2.12109 23.0034 4.08189" stroke="#9E9E9E" stroke-width="0.5" stroke-linecap="round" stroke-linejoin="round"/>
<path d="M20.2807 7.89429C19.736 7.89429 19.1913 7.56749 18.8645 7.02283C18.4288 6.36922 18.2109 5.49775 18.2109 4.62628C18.2109 2.77441 19.1913 1.35828 20.3896 1.35828C21.4789 1.35828 22.3504 2.55655 22.4593 4.08161" stroke="#9E9E9E" stroke-width="0.5" stroke-linecap="round" stroke-linejoin="round"/>
<path d="M20.2783 8.76588C20.4962 8.76588 20.714 8.54801 20.714 8.33014C20.714 8.11228 20.4962 7.89441 20.2783 7.89441" stroke="#9E9E9E" stroke-width="0.5" stroke-linecap="round" stroke-linejoin="round"/>
<path d="M38.9075 6.6964C39.2343 6.3696 39.67 6.15173 40.2147 6.15173C41.304 6.15173 42.1755 7.0232 42.1755 8.11254C42.1755 9.20188 41.304 10.0733 40.2147 10.0733C39.1254 10.0733 38.2539 9.20188 38.2539 8.11254C38.2539 7.89467 38.2539 7.56787 38.3628 7.35" stroke="#9E9E9E" stroke-width="0.5" stroke-linecap="round" stroke-linejoin="round"/>
<path d="M39.1252 7.1319C39.452 6.8051 39.7788 6.69617 40.2145 6.69617C41.086 6.69617 41.7396 7.34977 41.7396 8.22124C41.7396 9.09271 41.086 9.74631 40.2145 9.74631C39.3431 9.74631 38.6895 9.09271 38.6895 8.22124C38.6895 8.1123 38.6895 8.00337 38.6895 7.89443" stroke="#9E9E9E" stroke-width="0.5" stroke-linecap="round" stroke-linejoin="round"/>
<path d="M40.4338 8.76604C38.9088 8.76604 37.6016 6.91416 37.6016 4.73549C37.6016 2.55682 38.9088 0.704956 40.4338 0.704956C41.85 0.704956 43.0482 2.12109 43.2661 4.08189" stroke="#9E9E9E" stroke-width="0.5" stroke-linecap="round" stroke-linejoin="round"/>
<path d="M40.5434 7.89429C39.9987 7.89429 39.454 7.56749 39.1272 7.02283C38.6915 6.36922 38.4736 5.49775 38.4736 4.62628C38.4736 2.77441 39.454 1.35828 40.6523 1.35828C41.7416 1.35828 42.6131 2.55655 42.722 4.08161" stroke="#9E9E9E" stroke-width="0.5" stroke-linecap="round" stroke-linejoin="round"/>
<path d="M40.541 8.76588C40.7589 8.76588 40.9768 8.54801 40.9768 8.33014C40.9768 8.11228 40.7589 7.89441 40.541 7.89441" stroke="#9E9E9E" stroke-width="0.5" stroke-linecap="round" stroke-linejoin="round"/>
<path d="M19.1237 22.636H13.0234V21.3288C14.1128 20.2394 14.8753 19.4769 15.311 18.9322C16.5093 17.625 17.054 16.5357 17.054 15.5553C17.054 15.1196 16.945 14.7928 16.7272 14.5749C16.5093 14.357 16.1825 14.2481 15.8557 14.2481C15.0932 14.2481 14.6574 14.6838 14.4396 15.5553L13.0234 15.1196C13.1324 14.357 13.4592 13.8124 14.0038 13.3766C14.5485 12.9409 15.2021 12.723 15.9646 12.723C16.8361 12.723 17.4897 12.9409 18.0344 13.4856C18.4701 14.0302 18.7969 14.5749 18.7969 15.2285C18.7969 15.7732 18.688 16.3178 18.4701 16.8625C18.2522 17.4072 18.0344 17.8429 17.7076 18.2786C17.3808 18.7144 17.054 19.1501 16.7272 19.5858C16.4004 19.9126 16.0736 20.2394 15.8557 20.5662C15.7468 20.6752 15.5289 20.893 15.2021 21.1109H19.2326V22.636H19.1237Z" fill="#03ABE0"/>
<path d="M25.988 22.6362H24.354V20.3486H19.8877V19.1503L23.5914 12.8322H25.4433L22.0664 18.8235H24.4629V16.427H26.0969V18.8235H27.4041V20.4575H26.0969V22.6362H25.988Z" fill="#03ABE0"/>
<path d="M38.305 21.869H34.0566V20.235H40.1569V21.3243L36.671 30.039H34.9281L38.305 21.869Z" fill="#03ABE0"/>
<path d="M34.0551 14.226L25.041 29.2495" stroke="#03ABE0" stroke-miterlimit="10"/>
</svg>
