<svg width="45" height="61" viewBox="0 0 45 61" fill="none" xmlns="http://www.w3.org/2000/svg">
<path d="M35.9503 39.7312C36.1879 40.1272 36.4255 40.444 36.6631 40.8401C37.376 41.8697 38.168 42.8202 38.9601 43.7707C39.9105 44.8003 40.7818 45.9092 41.5738 47.0973C42.3659 48.2854 42.9203 49.5527 43.1579 50.8991C43.6332 53.9089 42.7619 56.3643 40.3858 58.2652C38.9601 59.3741 37.2968 59.8493 35.5542 59.6909C32.7028 59.4533 30.7227 57.9484 29.4554 55.4138C28.901 54.2258 28.7426 52.9585 28.901 51.6912C29.0594 49.7111 29.8515 48.0478 30.9603 46.4636C31.8316 45.2756 32.7821 44.1667 33.7325 42.9786C34.4454 41.9489 35.2374 40.9193 35.9503 39.7312ZM35.9503 39.7312C35.8711 39.7312 35.8711 39.7312 35.9503 39.7312Z" stroke="#979797" stroke-width="0.9263" stroke-linecap="round" stroke-linejoin="round"/>
<path d="M31.119 58.4238C27.9508 59.8495 24.545 60.4039 20.9015 60.0871C12.5058 59.2951 6.48616 55.018 2.84271 47.4143C1.1794 43.9293 0.783377 40.2066 1.1002 36.3255C1.57543 30.5436 3.79318 25.3952 7.199 20.8013C9.81278 17.2371 12.585 13.9105 15.3571 10.5046C17.7333 7.49483 20.1095 4.48503 22.0104 1.07921L22.0896 1C22.8024 2.10887 23.4361 3.21775 24.2281 4.32662C26.2875 7.41563 28.6636 10.1878 31.119 12.96C33.8912 16.1282 36.6634 19.2964 38.9603 22.7814C41.2573 26.2665 42.9998 30.0683 43.6334 34.187C44.4255 39.2561 43.9502 43.85 42.0493 47.8895" stroke="#979797" stroke-linecap="round" stroke-linejoin="round"/>
<path d="M29.1385 56.2059C26.604 57.1564 23.911 57.5524 21.1388 57.2356C13.7727 56.5228 8.46596 52.7209 5.29775 46.0677C3.79285 42.9787 3.47603 39.652 3.71365 36.3254C4.10967 31.2563 6.0898 26.7416 9.0996 22.7021C11.3966 19.6131 13.8519 16.6033 16.2281 13.5935C18.3666 10.9797 20.426 8.28676 22.0893 5.27696C22.0893 5.27696 22.1685 5.27696 22.1685 5.19775C22.8021 6.14822 23.3566 7.17789 23.9902 8.12835C25.8119 10.8213 27.9505 13.2767 30.0098 15.7321C32.3859 18.5042 34.8413 21.2764 36.9006 24.3654C38.96 27.4544 40.4649 30.7811 41.0193 34.4245C41.653 38.3056 41.4153 41.8698 40.2273 45.1172" stroke="#979797" stroke-width="0.5" stroke-linecap="round" stroke-linejoin="round"/>
<path d="M18.3314 44.1671V28.2468H26.0454C28.179 28.2468 29.9297 29.9975 29.9297 32.1311C29.9297 34.2648 28.179 36.0155 26.0454 36.0155H14.8848" stroke="#03ABE0" stroke-width="3" stroke-linecap="round" stroke-linejoin="round"/>
<path d="M14.8848 40.1183H25.6077" stroke="#03ABE0" stroke-width="3" stroke-linecap="round" stroke-linejoin="round"/>
</svg>
