<svg width="66" height="38" viewBox="0 0 66 38" fill="none" xmlns="http://www.w3.org/2000/svg">
<path d="M13.5459 37C16.8596 37 19.5459 34.3137 19.5459 31C19.5459 27.6863 16.8596 25 13.5459 25C10.2322 25 7.5459 27.6863 7.5459 31C7.5459 34.3137 10.2322 37 13.5459 37Z" stroke="#9E9E9E" stroke-linecap="round" stroke-linejoin="round"/>
<path d="M13.5456 33.7272C15.0519 33.7272 16.2729 32.5062 16.2729 31C16.2729 29.4937 15.0519 28.2727 13.5456 28.2727C12.0394 28.2727 10.8184 29.4937 10.8184 31C10.8184 32.5062 12.0394 33.7272 13.5456 33.7272Z" stroke="#9E9E9E" stroke-width="0.625" stroke-linecap="round" stroke-linejoin="round"/>
<path d="M53.3643 37C56.678 37 59.3643 34.3137 59.3643 31C59.3643 27.6863 56.678 25 53.3643 25C50.0505 25 47.3643 27.6863 47.3643 31C47.3643 34.3137 50.0505 37 53.3643 37Z" stroke="#9E9E9E" stroke-linecap="round" stroke-linejoin="round"/>
<path d="M53.364 33.7272C54.8702 33.7272 56.0913 32.5062 56.0913 31C56.0913 29.4937 54.8702 28.2727 53.364 28.2727C51.8578 28.2727 50.6367 29.4937 50.6367 31C50.6367 32.5062 51.8578 33.7272 53.364 33.7272Z" stroke="#9E9E9E" stroke-width="0.625" stroke-linecap="round" stroke-linejoin="round"/>
<path d="M59.364 31H64.2731C64.8731 31 65.364 30.509 65.364 29.909V17.909L59.9094 7.54541H44.6367" stroke="#9E9E9E" stroke-linecap="round" stroke-linejoin="round"/>
<path d="M47.3637 31H35.9092" stroke="#9E9E9E" stroke-linecap="round" stroke-linejoin="round"/>
<path d="M25.5459 31H19.5459" stroke="#9E9E9E" stroke-linecap="round" stroke-linejoin="round"/>
<path d="M7.54545 31H2.09091C1.49091 31 1 30.5091 1 29.9091V2.09091C1 1.49091 1.49091 1 2.09091 1H43.4364C44.0909 1 44.6364 1.54545 44.6364 2.2V23.2933H1" stroke="#9E9E9E" stroke-linecap="round" stroke-linejoin="round"/>
<path d="M42.4544 23.2317V3.32263H3.18164V23.2317C3.7271 23.5044 42.4544 23.2317 42.4544 23.2317Z" stroke="#9E9E9E" stroke-width="0.5236" stroke-linecap="round" stroke-linejoin="round"/>
<path d="M12.3957 6.80664C12.4849 6.80664 12.5443 7.02961 12.5443 7.1188C12.5443 7.14852 12.5146 7.23771 12.5146 7.23771C12.5146 7.23771 12.5146 8.53092 12.5146 8.59038C12.5146 8.64984 12.3511 8.72416 12.3511 8.72416V9.1255C12.3511 9.1255 12.3511 9.24442 12.3511 9.46739C12.3511 9.57144 12.6335 9.54171 12.7376 9.70522C12.8714 9.89846 12.8268 10.2998 12.8862 10.3444C13.0349 10.4336 14.8186 11.4146 15.2794 11.6673C15.7699 11.9498 15.8889 12.3214 15.8889 12.3214C15.8889 12.3214 16.097 12.5443 16.097 12.6335C16.097 12.7227 16.097 12.9754 16.097 13.0497C16.097 13.1241 16.0078 13.3322 16.0078 13.3322C16.0078 13.3322 16.0078 14.0903 16.0078 14.2092C16.0078 14.3281 16.097 14.4024 16.097 14.4024C16.097 14.4024 16.097 14.8186 16.097 14.8781C16.097 14.9375 16.0375 15.0119 16.0375 15.0119C16.0375 15.0119 16.0375 15.101 16.0375 15.2051C16.0375 15.324 15.8145 15.5767 15.7551 15.6064C15.6956 15.6362 15.6362 15.8889 15.6362 15.8889C15.6362 15.8889 15.6362 18.8172 15.6362 19.1293C15.6362 19.4415 16.0078 19.7536 16.0078 19.7834C16.0078 19.8131 16.0078 20.0658 16.0078 20.0658L16.097 20.2888C16.097 20.2888 16.097 20.6306 16.097 20.7644C16.097 20.8982 16.0078 21.0171 16.0078 21.0171V21.8049L16.097 22.1171C16.097 22.6076 15.7402 22.9941 15.2794 22.9941H7.62419C7.17825 22.9941 6.80664 22.5928 6.80664 22.1171L6.89583 21.8049V21.0171C6.89583 21.0171 6.80664 20.9279 6.80664 20.7941C6.80664 20.6604 6.80664 20.3185 6.80664 20.3185L6.89583 20.0955C6.89583 20.0955 6.89583 19.8725 6.89583 19.8131C6.89583 19.7834 7.26744 19.4712 7.26744 19.159C7.26744 18.8469 7.26744 15.9186 7.26744 15.9186C7.26744 15.9186 7.20798 15.6659 7.14852 15.651C7.08907 15.6213 6.8661 15.3686 6.8661 15.2497C6.8661 15.1308 6.8661 15.0564 6.8661 15.0564C6.8661 15.0564 6.80664 14.997 6.80664 14.9078C6.80664 14.8186 6.80664 14.4321 6.80664 14.4321C6.80664 14.4321 6.89583 14.3429 6.89583 14.2389C6.89583 14.12 6.89583 13.3619 6.89583 13.3619C6.89583 13.3619 6.80664 13.1984 6.80664 13.1092C6.80664 13.02 6.80664 12.7673 6.80664 12.693C6.80664 12.6038 7.01474 12.3808 7.01474 12.3808C7.01474 12.3808 7.16339 11.9795 7.62419 11.7268C8.07012 11.4741 9.88359 10.4782 10.0025 10.4039C10.062 10.3593 10.1066 9.89846 10.2255 9.70522C10.3444 9.52685 10.5525 9.61603 10.5525 9.52685C10.5525 9.33361 10.5525 9.18496 10.5525 9.18496V8.76876C10.5525 8.76876 10.389 8.67957 10.389 8.63498C10.389 8.57552 10.389 7.28231 10.389 7.28231C10.389 7.28231 10.3444 7.17825 10.3444 7.14852C10.3444 7.05934 10.4187 6.83637 10.493 6.82151L12.3957 6.80664Z" fill="#03ABE0" stroke="#9E9E9E" stroke-width="0.63" stroke-linecap="round" stroke-linejoin="round"/>
<path d="M6.95508 12.3806H15.8738" stroke="#9E9E9E" stroke-width="0.63" stroke-linecap="round" stroke-linejoin="round"/>
<path d="M10.4482 8.66455H12.3806" stroke="#9E9E9E" stroke-width="0.63" stroke-linecap="round" stroke-linejoin="round"/>
<path d="M10.5234 8.96191H12.3072" stroke="#9E9E9E" stroke-width="0.63" stroke-linecap="round" stroke-linejoin="round"/>
<path d="M10.0762 10.2996H12.9004" stroke="#9E9E9E" stroke-width="0.63" stroke-linecap="round" stroke-linejoin="round"/>
<path d="M7.32715 19.2183H15.577" stroke="#9E9E9E" stroke-width="0.63" stroke-linecap="round" stroke-linejoin="round"/>
<path d="M7.32715 15.7996H15.577" stroke="#9E9E9E" stroke-width="0.63" stroke-linecap="round" stroke-linejoin="round"/>
<path d="M24.009 6.80664C24.0982 6.80664 24.1576 7.02961 24.1576 7.1188C24.1576 7.14852 24.1279 7.23771 24.1279 7.23771C24.1279 7.23771 24.1279 8.53092 24.1279 8.59038C24.1279 8.64984 23.9644 8.72416 23.9644 8.72416V9.1255C23.9644 9.1255 23.9644 9.24442 23.9644 9.46739C23.9644 9.57144 24.2468 9.54171 24.3509 9.70522C24.4846 9.89846 24.4401 10.2998 24.4995 10.3444C24.6482 10.4336 26.4319 11.4146 26.8927 11.6673C27.3832 11.9498 27.5021 12.3214 27.5021 12.3214C27.5021 12.3214 27.7102 12.5443 27.7102 12.6335C27.7102 12.7227 27.7102 12.9754 27.7102 13.0497C27.7102 13.1241 27.6211 13.3322 27.6211 13.3322C27.6211 13.3322 27.6211 14.0903 27.6211 14.2092C27.6211 14.3281 27.7102 14.4024 27.7102 14.4024C27.7102 14.4024 27.7102 14.8186 27.7102 14.8781C27.7102 14.9375 27.6508 15.0119 27.6508 15.0119C27.6508 15.0119 27.6508 15.101 27.6508 15.2051C27.6508 15.324 27.4278 15.5767 27.3684 15.6064C27.3089 15.6362 27.2494 15.8889 27.2494 15.8889C27.2494 15.8889 27.2494 18.8172 27.2494 19.1293C27.2494 19.4415 27.6211 19.7536 27.6211 19.7834C27.6211 19.8131 27.6211 20.0658 27.6211 20.0658L27.7102 20.2888C27.7102 20.2888 27.7102 20.6306 27.7102 20.7644C27.7102 20.8982 27.6211 21.0171 27.6211 21.0171V21.8049L27.7102 22.1171C27.7102 22.6076 27.3535 22.9941 26.8927 22.9941H19.2375C18.7915 22.9941 18.4199 22.5928 18.4199 22.1171L18.5091 21.8049V21.0171C18.5091 21.0171 18.4199 20.9279 18.4199 20.7941C18.4199 20.6604 18.4199 20.3185 18.4199 20.3185L18.5091 20.0955C18.5091 20.0955 18.5091 19.8725 18.5091 19.8131C18.5091 19.7834 18.8807 19.4712 18.8807 19.159C18.8807 18.8469 18.8807 15.9186 18.8807 15.9186C18.8807 15.9186 18.8213 15.6659 18.7618 15.651C18.7023 15.6213 18.4794 15.3686 18.4794 15.2497C18.4794 15.1308 18.4794 15.0564 18.4794 15.0564C18.4794 15.0564 18.4199 14.997 18.4199 14.9078C18.4199 14.8186 18.4199 14.4321 18.4199 14.4321C18.4199 14.4321 18.5091 14.3429 18.5091 14.2389C18.5091 14.12 18.5091 13.3619 18.5091 13.3619C18.5091 13.3619 18.4199 13.1984 18.4199 13.1092C18.4199 13.02 18.4199 12.7673 18.4199 12.693C18.4199 12.6038 18.628 12.3808 18.628 12.3808C18.628 12.3808 18.7767 11.9795 19.2375 11.7268C19.6834 11.4741 21.4969 10.4782 21.6158 10.4039C21.6753 10.3593 21.7198 9.89846 21.8388 9.70522C21.9577 9.52685 22.1658 9.61603 22.1658 9.52685C22.1658 9.33361 22.1658 9.18496 22.1658 9.18496V8.76876C22.1658 8.76876 22.0023 8.67957 22.0023 8.63498C22.0023 8.57552 22.0023 7.28231 22.0023 7.28231C22.0023 7.28231 21.9577 7.17825 21.9577 7.14852C21.9577 7.05934 22.032 6.83637 22.1063 6.82151L24.009 6.80664Z" fill="#03ABE0" stroke="#9E9E9E" stroke-width="0.63" stroke-linecap="round" stroke-linejoin="round"/>
<path d="M18.5684 12.3806H27.4871" stroke="#9E9E9E" stroke-width="0.63" stroke-linecap="round" stroke-linejoin="round"/>
<path d="M22.0615 8.66455H23.9939" stroke="#9E9E9E" stroke-width="0.63" stroke-linecap="round" stroke-linejoin="round"/>
<path d="M22.1367 8.96191H23.9205" stroke="#9E9E9E" stroke-width="0.63" stroke-linecap="round" stroke-linejoin="round"/>
<path d="M21.6895 10.2996H24.5137" stroke="#9E9E9E" stroke-width="0.63" stroke-linecap="round" stroke-linejoin="round"/>
<path d="M18.9404 19.2183H27.1902" stroke="#9E9E9E" stroke-width="0.63" stroke-linecap="round" stroke-linejoin="round"/>
<path d="M18.9404 15.7996H27.1902" stroke="#9E9E9E" stroke-width="0.63" stroke-linecap="round" stroke-linejoin="round"/>
<path d="M35.6213 6.8064C35.7105 6.8064 35.7699 7.02936 35.7699 7.11855C35.7699 7.14828 35.7402 7.23747 35.7402 7.23747C35.7402 7.23747 35.7402 8.53068 35.7402 8.59014C35.7402 8.6496 35.5767 8.72392 35.5767 8.72392V9.12526C35.5767 9.12526 35.5767 9.24418 35.5767 9.46714C35.5767 9.5712 35.8591 9.54147 35.9632 9.70498C36.0969 9.89821 36.0524 10.2996 36.1118 10.3442C36.2605 10.4333 38.0442 11.4144 38.505 11.6671C38.9955 11.9495 39.1144 12.3211 39.1144 12.3211C39.1144 12.3211 39.3225 12.5441 39.3225 12.6333C39.3225 12.7225 39.3225 12.9752 39.3225 13.0495C39.3225 13.1238 39.2334 13.3319 39.2334 13.3319C39.2334 13.3319 39.2334 14.09 39.2334 14.2089C39.2334 14.3278 39.3225 14.4022 39.3225 14.4022C39.3225 14.4022 39.3225 14.8184 39.3225 14.8778C39.3225 14.9373 39.2631 15.0116 39.2631 15.0116C39.2631 15.0116 39.2631 15.1008 39.2631 15.2048C39.2631 15.3238 39.0401 15.5765 38.9807 15.6062C38.9212 15.6359 38.8617 15.8886 38.8617 15.8886C38.8617 15.8886 38.8617 18.8169 38.8617 19.1291C38.8617 19.4412 39.2334 19.7534 39.2334 19.7831C39.2334 19.8128 39.2334 20.0655 39.2334 20.0655L39.3225 20.2885C39.3225 20.2885 39.3225 20.6304 39.3225 20.7642C39.3225 20.898 39.2334 21.0169 39.2334 21.0169V21.8047L39.3225 22.1168C39.3225 22.6074 38.9658 22.9939 38.505 22.9939H30.8498C30.4038 22.9939 30.0322 22.5925 30.0322 22.1168L30.1214 21.8047V21.0169C30.1214 21.0169 30.0322 20.9277 30.0322 20.7939C30.0322 20.6601 30.0322 20.3182 30.0322 20.3182L30.1214 20.0953C30.1214 20.0953 30.1214 19.8723 30.1214 19.8128C30.1214 19.7831 30.493 19.471 30.493 19.1588C30.493 18.8467 30.493 15.9183 30.493 15.9183C30.493 15.9183 30.4336 15.6656 30.3741 15.6508C30.3147 15.6211 30.0917 15.3684 30.0917 15.2494C30.0917 15.1305 30.0917 15.0562 30.0917 15.0562C30.0917 15.0562 30.0322 14.9967 30.0322 14.9076C30.0322 14.8184 30.0322 14.4319 30.0322 14.4319C30.0322 14.4319 30.1214 14.3427 30.1214 14.2387C30.1214 14.1197 30.1214 13.3616 30.1214 13.3616C30.1214 13.3616 30.0322 13.1981 30.0322 13.1089C30.0322 13.0198 30.0322 12.7671 30.0322 12.6927C30.0322 12.6036 30.2403 12.3806 30.2403 12.3806C30.2403 12.3806 30.389 11.9792 30.8498 11.7265C31.2957 11.4739 33.1092 10.4779 33.2281 10.4036C33.2876 10.359 33.3321 9.89821 33.4511 9.70498C33.57 9.5266 33.7781 9.61579 33.7781 9.5266C33.7781 9.33336 33.7781 9.18472 33.7781 9.18472V8.76851C33.7781 8.76851 33.6146 8.67932 33.6146 8.63473C33.6146 8.57527 33.6146 7.28206 33.6146 7.28206C33.6146 7.28206 33.57 7.17801 33.57 7.14828C33.57 7.05909 33.6443 6.83613 33.7186 6.82126L35.6213 6.8064Z" fill="#03ABE0" stroke="#9E9E9E" stroke-width="0.63" stroke-linecap="round" stroke-linejoin="round"/>
<path d="M30.1807 12.3806H39.0994" stroke="#9E9E9E" stroke-width="0.63" stroke-linecap="round" stroke-linejoin="round"/>
<path d="M33.6738 8.66455H35.6062" stroke="#9E9E9E" stroke-width="0.63" stroke-linecap="round" stroke-linejoin="round"/>
<path d="M33.749 8.96191H35.5328" stroke="#9E9E9E" stroke-width="0.63" stroke-linecap="round" stroke-linejoin="round"/>
<path d="M33.3018 10.2996H36.126" stroke="#9E9E9E" stroke-width="0.63" stroke-linecap="round" stroke-linejoin="round"/>
<path d="M30.5527 19.2183H38.8025" stroke="#9E9E9E" stroke-width="0.63" stroke-linecap="round" stroke-linejoin="round"/>
<path d="M30.5527 15.7996H38.8025" stroke="#9E9E9E" stroke-width="0.63" stroke-linecap="round" stroke-linejoin="round"/>
<path d="M47.4512 10V18.7273H57.199L59.3808 22H62.6535V18.7273L58.2899 10H47.4512Z" stroke="#9E9E9E" stroke-width="0.625" stroke-linecap="round" stroke-linejoin="round"/>
<path d="M50.1784 21.1818H47.4512V22.2727H50.1784V21.1818Z" stroke="#9E9E9E" stroke-width="0.625" stroke-linecap="round" stroke-linejoin="round"/>
<path d="M35.8383 26.5483H25.3867V31.1935H35.8383V26.5483Z" stroke="#9E9E9E" stroke-linecap="round" stroke-linejoin="round"/>
<path d="M33.5166 26.5483V26.5483V31.1935V31.1935V26.5483Z" stroke="#9E9E9E" stroke-width="0.6129" stroke-linecap="round" stroke-linejoin="round"/>
<path d="M27.71 26.5483V26.5483V31.1935V31.1935V26.5483Z" stroke="#9E9E9E" stroke-width="0.6129" stroke-linecap="round" stroke-linejoin="round"/>
</svg>
