<svg width="56" height="68" viewBox="0 0 56 68" fill="none" xmlns="http://www.w3.org/2000/svg">
<path d="M34.0731 32.3693C34.0731 32.3693 34.0731 32.4425 34.0731 32.5157C34.0731 32.6255 34.366 32.7719 34.366 32.7719V33.504C34.366 33.504 34.366 33.7602 34.366 34.0896C34.366 34.2726 33.9999 34.0896 33.8169 34.419C33.5973 34.7485 33.5241 35.5537 33.4143 35.627C33.2313 35.7734 30.0468 37.4937 29.2781 37.933C28.4728 38.3722 28.2166 39.0677 28.2166 39.0677C28.2166 39.0677 27.8506 39.4703 27.8506 39.6167C27.8506 39.7631 27.8506 40.2024 27.8506 40.3488C27.8506 40.4952 27.997 40.788 27.997 40.788C27.997 40.788 27.997 42.1057 27.997 42.3254C27.997 42.5084 27.8506 42.6548 27.8506 42.6548C27.8506 42.6548 27.8506 43.3502 27.8506 43.4967C27.8506 43.6431 27.9604 43.7529 27.9604 43.7529C27.9604 43.7529 27.9604 43.8993 27.9604 44.0823C27.9604 44.2653 28.363 44.7046 28.4728 44.7778C28.5827 44.8144 28.6559 45.2536 28.6559 45.2536V47.157" stroke="#9E9E9E" stroke-linecap="round" stroke-linejoin="round"/>
<path d="M28.6559 49.6825V50.8904C28.6559 51.4395 27.997 51.9519 27.997 52.0251C27.997 52.1349 27.997 52.5009 27.997 52.5009L27.8506 52.9036C27.8506 52.9036 27.8506 53.4892 27.8506 53.7455C27.8506 54.0017 27.997 54.1481 27.997 54.1481V55.539L27.8506 56.0881C27.8506 56.9299 28.4728 57.6254 29.2781 57.6254H42.6017C43.3704 57.6254 44.0292 56.9299 44.0292 56.0881L43.8828 55.539V54.1481C43.8828 54.1481 44.0292 53.9651 44.0292 53.7089C44.0292 53.4526 44.0292 52.867 44.0292 52.867L43.8828 52.4643C43.8828 52.4643 43.8828 52.0251 43.8828 51.9885C43.8828 51.9519 43.224 51.4028 43.224 50.8538V49.7191" stroke="#9E9E9E" stroke-linecap="round" stroke-linejoin="round"/>
<path d="M37.8065 32.2958C37.8065 32.2958 37.8065 32.369 37.8065 32.4422C37.8065 32.552 37.5137 32.6984 37.5137 32.6984V33.3939C37.5137 33.3939 37.5137 33.5769 37.5137 33.9795C37.5137 34.1625 38.0261 34.0893 38.2091 34.3822C38.4288 34.7116 38.3555 35.4071 38.4654 35.4803C38.7216 35.6267 41.8329 37.347 42.6015 37.7863C43.4434 38.2621 43.663 38.921 43.663 38.921C43.663 38.921 44.0291 39.3236 44.0291 39.47C44.0291 39.6164 44.0291 40.0557 44.0291 40.2021C44.0291 40.3485 43.8826 40.6779 43.8826 40.6779C43.8826 40.6779 43.8826 41.9956 43.8826 42.2153C43.8826 42.3983 44.0291 42.5447 44.0291 42.5447C44.0291 42.5447 44.0291 43.2768 44.0291 43.3866C44.0291 43.4964 43.9192 43.6428 43.9192 43.6428C43.9192 43.6428 43.9192 43.7892 43.9192 43.9722C43.9192 44.1552 43.5166 44.5945 43.4068 44.6677C43.297 44.7043 43.2238 45.1435 43.2238 45.1435V47.0835" stroke="#9E9E9E" stroke-linecap="round" stroke-linejoin="round"/>
<path d="M28.1064 39.0674H43.6262" stroke="#9E9E9E" stroke-width="0.5" stroke-linecap="round" stroke-linejoin="round"/>
<path d="M34.3291 34.1628H37.4404" stroke="#9E9E9E" stroke-width="0.5" stroke-linecap="round" stroke-linejoin="round"/>
<path d="M33.5605 35.4437H38.4654" stroke="#9E9E9E" stroke-width="0.5" stroke-linecap="round" stroke-linejoin="round"/>
<path d="M28.1064 43.7162H43.8825" stroke="#9E9E9E" stroke-width="0.5" stroke-linecap="round" stroke-linejoin="round"/>
<path d="M28.1064 40.8608H43.8825" stroke="#9E9E9E" stroke-width="0.5" stroke-linecap="round" stroke-linejoin="round"/>
<path d="M28.1064 42.1788H43.8825" stroke="#9E9E9E" stroke-width="0.5" stroke-linecap="round" stroke-linejoin="round"/>
<path d="M27.9971 52.6475H43.8829" stroke="#9E9E9E" stroke-width="0.5" stroke-linecap="round" stroke-linejoin="round"/>
<path d="M28.1064 54.3313H43.8825" stroke="#9E9E9E" stroke-width="0.5" stroke-linecap="round" stroke-linejoin="round"/>
<path d="M28.1064 55.3561H43.8825" stroke="#9E9E9E" stroke-width="0.5" stroke-linecap="round" stroke-linejoin="round"/>
<path d="M52.0449 57.7351H19.834V63.2256H52.0449V57.7351Z" stroke="#9E9E9E" stroke-linecap="round" stroke-linejoin="round"/>
<path d="M52.0449 47.1201H19.834V49.6823H52.0449V47.1201Z" stroke="#9E9E9E" stroke-linecap="round" stroke-linejoin="round"/>
<path d="M52.0449 11.2489H19.834V14.1772H52.0449V11.2489Z" stroke="#9E9E9E" stroke-linecap="round" stroke-linejoin="round"/>
<path d="M19.8347 30.8167V66.8857H17.2725V34.8948M19.8347 20.0419V11.0657H17.2725V20.8036" stroke="#9E9E9E" stroke-linecap="round" stroke-linejoin="round"/>
<path d="M54.6081 11.0657H52.0459V66.8857H54.6081V11.0657Z" stroke="#9E9E9E" stroke-linecap="round" stroke-linejoin="round"/>
<path d="M20.3105 59.8215H51.5697" stroke="#9E9E9E" stroke-width="0.5" stroke-linecap="round" stroke-linejoin="round"/>
<path d="M21.2988 48.4746H50.5814" stroke="#9E9E9E" stroke-width="0.5" stroke-linecap="round" stroke-linejoin="round"/>
<path d="M38.5014 22.2296H33.377V30.6484H38.5014V22.2296Z" stroke="#9E9E9E" stroke-linecap="round" stroke-linejoin="round"/>
<path d="M39.9658 20.7656H31.9131V22.2298H39.9658V20.7656Z" stroke="#9E9E9E" stroke-linecap="round" stroke-linejoin="round"/>
<path d="M38.1356 30.6489H33.7432V32.1131H38.1356V30.6489Z" stroke="#9E9E9E" stroke-linecap="round" stroke-linejoin="round"/>
<path d="M37.038 14.1771H34.8418V20.7657H37.038V14.1771Z" stroke="#9E9E9E" stroke-width="0.5" stroke-linecap="round" stroke-linejoin="round"/>
<path d="M38.6852 1H33.0117V11.2489H38.6852V1Z" stroke="#9E9E9E" stroke-linecap="round" stroke-linejoin="round"/>
<path d="M33.0117 8.69482H38.6852" stroke="#9E9E9E" stroke-width="0.5" stroke-linecap="round" stroke-linejoin="round"/>
<path d="M25.7326 36.5386C27.352 36.5386 28.6475 35.2431 28.6475 33.6237C28.6475 32.0043 27.352 30.7088 25.7326 30.7088L18.6074 30.7088" stroke="#03ABE0" stroke-width="2" stroke-linecap="round" stroke-linejoin="round"/>
<path d="M9.97057 21.1989C10.7263 21.1989 11.374 21.7387 11.374 22.4944C11.374 23.2501 10.7263 23.7899 9.97057 23.7899L1.48116 23.7899" stroke="#03ABE0" stroke-width="2" stroke-linecap="round" stroke-linejoin="round"/>
<path d="M20.1191 28.01L4.2493 28.01" stroke="#03ABE0" stroke-width="2" stroke-linecap="round" stroke-linejoin="round"/>
<path d="M16.0171 24.1235C16.0171 21.9644 17.7444 20.237 19.9036 20.237C22.0627 20.237 23.79 21.9644 23.79 24.1235C23.79 26.2827 22.0627 28.01 19.9036 28.01" stroke="#03ABE0" stroke-width="2" stroke-linecap="round" stroke-linejoin="round"/>
<path d="M9.42136 36.6272C9.42136 38.7863 11.1487 40.5137 13.3078 40.5137C15.467 40.5137 17.1943 38.7863 17.1943 36.6272C17.1943 34.468 15.467 32.7407 13.3078 32.7407L1.00062 32.7407" stroke="#03ABE0" stroke-width="2" stroke-linecap="round" stroke-linejoin="round"/>
<path d="M26.447 27.9391L29.748 27.9391" stroke="#03ABE0" stroke-width="2" stroke-linecap="round" stroke-linejoin="round"/>
</svg>
