<svg width="80" height="46" viewBox="0 0 80 46" fill="none" xmlns="http://www.w3.org/2000/svg">
<path d="M49 33.6471C49 40.0706 40 46 40 46C40 46 31 40.0706 31 33.6471C31 28.8912 35.05 25 40 25C44.95 25 49 28.8912 49 33.6471Z" fill="#044988"/>
<rect width="80" height="39" rx="6" fill="#044988"/>
<path d="M58.7176 11.9111C58.7176 12.3769 58.7176 12.829 58.7176 13.3222C58.9779 13.0482 59.2108 12.7879 59.4574 12.555C60.5533 11.5275 62.0603 11.2672 63.3343 11.8563C64.0604 12.1851 64.5536 12.7468 64.9509 13.4318C64.992 13.5139 65.0468 13.5961 65.0879 13.6783C65.3482 13.377 65.5947 13.0482 65.855 12.7605C67.0606 11.4727 68.8552 11.1713 70.3074 12.0344C71.1841 12.555 71.691 13.3633 72.0198 14.2948C72.2938 15.0894 72.376 15.9114 72.376 16.747C72.3897 19.9116 72.4034 23.0762 72.4034 26.2408C72.4034 27.2408 71.6225 28.008 70.6225 28.008C70.0471 28.008 69.4717 28.008 68.8689 28.008C68.8689 27.8984 68.8689 27.8162 68.8689 27.734C68.8689 24.679 68.8826 21.6241 68.8552 18.5691C68.8552 17.8019 68.7867 17.0347 68.6634 16.2675C68.5401 15.4867 67.8963 15.0894 67.2387 15.336C66.9647 15.4319 66.7181 15.6237 66.5126 15.8292C66.1016 16.2675 65.9235 16.8292 65.855 17.4183C65.7591 18.2266 65.6906 19.0348 65.6769 19.8568C65.6495 22.4871 65.6632 25.1037 65.6632 27.734C65.6632 27.8162 65.6632 27.8984 65.6632 27.9943C64.4851 27.9943 63.3343 27.9943 62.1425 27.9943C62.1425 27.8984 62.1425 27.8162 62.1425 27.7203C62.1425 24.679 62.1425 21.6378 62.1425 18.5965C62.1425 17.9389 62.0877 17.2813 62.0466 16.61C62.0329 16.4319 61.9918 16.2675 61.937 16.1032C61.6767 15.2812 60.9369 15.0072 60.1834 15.4593C59.5944 15.8155 59.2793 16.3634 59.1834 17.0073C59.0601 17.8156 58.9642 18.6513 58.9505 19.4732C58.9231 22.2268 58.9368 24.9667 58.9368 27.7203C58.9368 27.8025 58.9368 27.8847 58.9368 27.9943C57.7449 27.9943 56.5942 27.9943 55.416 27.9943C55.416 22.6378 55.416 17.2813 55.416 11.9111C56.512 11.9111 57.5942 11.9111 58.7176 11.9111Z" fill="white"/>
<path d="M6.31641 20.4868C7.05618 20.4046 7.75485 20.2676 8.46723 20.2402C9.2755 20.1991 9.94677 20.7471 10.1797 21.528C10.2893 21.8978 10.4126 22.2677 10.577 22.6102C11.0838 23.6925 11.9606 24.1857 13.1525 24.1583C14.9608 24.1172 16.1252 22.5554 15.6732 20.8019C15.5225 20.2265 15.1389 19.8429 14.6183 19.6237C13.7826 19.2675 12.9196 18.9799 12.0839 18.6374C11.44 18.3771 10.8098 18.1305 10.1934 17.8154C8.71382 17.0756 7.75485 15.8701 7.27537 14.322C6.67259 12.4041 6.75479 10.4999 7.61786 8.67783C8.50833 6.7873 10.0701 5.84204 12.1113 5.66394C13.0977 5.58175 14.0703 5.65024 15.0293 5.93793C16.591 6.41742 17.6322 7.48598 18.2898 8.96552C18.8104 10.1163 18.9884 11.3492 19.0021 12.5959C19.0021 12.6233 18.9884 12.637 18.9884 12.6918C17.7829 12.7603 16.5773 12.8425 15.3855 12.911C15.2896 12.4452 15.2074 11.9931 15.0978 11.5547C15.0567 11.3629 14.9745 11.1848 14.8923 11.0067C14.6183 10.3629 14.1388 9.99299 13.4538 9.86969C12.8374 9.76009 12.2209 9.76009 11.6318 9.99299C11.0016 10.2396 10.5496 10.6369 10.4674 11.3629C10.3852 12.1164 10.618 12.7329 11.303 13.0891C11.9743 13.4316 12.673 13.7192 13.3716 14.0069C14.2621 14.3768 15.1937 14.6919 16.0704 15.1029C17.7007 15.8701 18.7008 17.1989 19.1254 18.9114C19.646 20.98 19.5775 23.0349 18.6871 25.0076C17.8514 26.8708 16.4129 27.9667 14.3991 28.2818C13.3306 28.4462 12.2757 28.4462 11.2208 28.1996C9.86458 27.8845 8.76862 27.1585 7.97405 26.0077C6.83699 24.3501 6.4945 22.4595 6.31641 20.4868Z" fill="white"/>
<path d="M43.4426 11.8972C43.196 12.8425 42.9631 13.7604 42.7165 14.6645C41.7849 18.2264 40.8397 21.802 39.8944 25.3639C39.4149 27.1859 38.9217 29.0079 38.4012 30.83C38.2505 31.3505 38.0176 31.8574 37.771 32.3369C37.0723 33.652 35.9079 34.2411 34.4557 34.2959C34.168 34.3096 33.8803 34.3096 33.6063 34.2548C32.8255 34.1178 32.2638 33.4877 32.1953 32.6931C32.1268 31.8574 32.0583 31.0354 31.9898 30.1587C32.1131 30.1861 32.2227 30.2135 32.3186 30.2409C32.757 30.3094 33.2091 30.4053 33.6474 30.4327C34.1406 30.4601 34.5379 30.2272 34.7982 29.8025C35.1681 29.1997 35.3736 28.5421 35.5106 27.8572C35.5243 27.775 35.5106 27.6654 35.4832 27.5832C34.4283 23.6925 33.3598 19.7882 32.3049 15.8975C31.9624 14.6234 31.6199 13.3631 31.2774 12.089C31.2637 12.0342 31.25 11.9794 31.2363 11.9109C32.483 11.9109 33.7159 11.9109 34.9763 11.9109C35.7846 15.2262 36.5791 18.5415 37.3874 21.8568C37.4011 21.8568 37.4148 21.8568 37.4285 21.8568C37.4696 21.665 37.5244 21.4869 37.5655 21.2951C38.2916 18.2401 39.0039 15.1851 39.7163 12.1301C39.7574 11.952 39.8259 11.8835 40.0314 11.8835C41.0863 11.8972 42.1411 11.8835 43.196 11.8835C43.2645 11.8972 43.333 11.8972 43.4426 11.8972Z" fill="white"/>
<path d="M54.6761 11.9246C54.6761 17.2811 54.6761 22.6376 54.6761 28.0078C54.498 28.0078 54.3199 28.0078 54.1555 28.0078C53.7308 27.9941 53.2925 28.0215 52.8678 27.9804C52.1143 27.8845 51.58 27.3639 51.4019 26.6241C51.3882 26.583 51.3745 26.5282 51.3745 26.5282C50.9772 26.8844 50.6074 27.2954 50.1827 27.6105C48.7716 28.6379 47.0592 28.6105 45.744 27.5831C44.9358 26.9392 44.4974 26.0624 44.2645 25.0761C44.059 24.1856 43.9905 23.2677 43.9768 22.3499C43.9631 18.9524 43.9768 15.5412 43.9768 12.1438C43.9768 12.0753 43.9768 12.0205 43.9768 11.9383C45.1549 11.9383 46.3057 11.9383 47.4976 11.9383C47.4976 12.0205 47.4976 12.1027 47.4976 12.1849C47.4976 14.8563 47.4839 17.5277 47.4976 20.1991C47.4976 21.1717 47.5661 22.1444 47.6346 23.1171C47.6483 23.391 47.7579 23.665 47.8811 23.9253C48.3743 24.9391 49.5525 24.8295 50.1964 24.213C50.7991 23.6376 51.0457 22.8979 51.0731 22.0896C51.1142 20.4456 51.1553 18.788 51.169 17.1441C51.1827 15.5001 51.169 13.8562 51.169 12.2122C51.169 12.1301 51.169 12.0479 51.169 11.952C52.3335 11.9246 53.4979 11.9246 54.6761 11.9246Z" fill="white"/>
<path d="M27.3719 11.9109C28.5501 11.9109 29.7145 11.9109 30.879 11.9109C30.879 17.2674 30.879 22.6239 30.879 28.0352C30.2214 28.0078 29.5638 28.0489 28.92 27.9393C28.235 27.8297 27.7966 27.3366 27.6185 26.6516C27.6048 26.5968 27.5911 26.542 27.5774 26.5009C27.2349 26.8297 26.9198 27.1859 26.55 27.4735C25.2759 28.501 23.6183 28.6243 22.3168 27.8297C21.3441 27.227 20.7962 26.3365 20.5085 25.2542C20.2756 24.4049 20.1934 23.5418 20.1934 22.665C20.1797 19.1443 20.1797 15.6235 20.1797 12.1027C20.1797 12.0342 20.1797 11.9794 20.1934 11.8972C21.3578 11.8972 22.5223 11.8972 23.7005 11.8972C23.7005 11.9931 23.7005 12.0753 23.7005 12.1575C23.7005 14.7056 23.6868 17.2674 23.7005 19.8155C23.7142 20.8978 23.769 21.9937 23.8375 23.076C23.8512 23.3774 23.9881 23.6925 24.1251 23.9528C24.5361 24.7062 25.4814 24.8569 26.1938 24.309C26.8102 23.8432 27.1527 23.213 27.2075 22.4595C27.2897 21.5143 27.3445 20.569 27.3445 19.6374C27.3582 17.1441 27.3445 14.6645 27.3445 12.1712C27.3719 12.1027 27.3719 12.0205 27.3719 11.9109Z" fill="white"/>
<path d="M71.252 10.0205C71.252 9.22591 71.8958 8.58203 72.7178 8.58203C73.5535 8.58203 74.211 9.21221 74.211 10.0205C74.211 10.815 73.5535 11.4589 72.7452 11.4589C71.9232 11.4863 71.252 10.8287 71.252 10.0205ZM72.7452 11.1575C73.3617 11.1575 73.8275 10.6781 73.8412 10.0479C73.8549 9.404 73.3617 8.88342 72.7452 8.88342C72.1287 8.88342 71.6355 9.3766 71.6355 10.0205C71.6218 10.6507 72.1013 11.1575 72.7452 11.1575Z" fill="white"/>
<path d="M72.1973 9.29417C72.4439 9.29417 72.663 9.28048 72.8959 9.29417C73.1014 9.30787 73.2795 9.37637 73.3617 9.59556C73.4302 9.81476 73.2932 9.95175 73.1699 10.0202C73.2658 10.2668 73.348 10.4997 73.4439 10.7326C73.0877 10.8148 73.074 10.8011 72.9918 10.4997C72.9233 10.212 72.8548 10.1709 72.5124 10.212C72.5124 10.3901 72.5124 10.5682 72.5124 10.76C72.4028 10.76 72.3069 10.76 72.1973 10.76C72.1973 10.2942 72.1973 9.82846 72.1973 9.29417ZM72.4713 9.96545C72.7041 9.97915 72.8959 10.0065 72.9918 9.82846C73.0192 9.77366 72.9918 9.62296 72.9507 9.60926C72.8274 9.55447 72.6357 9.49967 72.5809 9.55447C72.4987 9.63666 72.5124 9.81476 72.4713 9.96545Z" fill="white"/>
</svg>
