<svg width="219" height="93" viewBox="0 0 219 93" fill="none" xmlns="http://www.w3.org/2000/svg">
<path d="M169.012 20.2534C169.012 21.7557 169.012 23.2138 169.012 24.8045C169.852 23.9208 170.603 23.0813 171.398 22.3301C174.933 19.0162 179.793 18.1767 183.902 20.0767C186.244 21.1371 187.835 22.9487 189.116 25.158C189.249 25.4231 189.426 25.6882 189.558 25.9533C190.398 24.9813 191.193 23.9208 192.033 22.9929C195.921 18.8395 201.709 17.8674 206.393 20.6511C209.221 22.3301 210.856 24.9371 211.916 27.9417C212.8 30.5044 213.065 33.1556 213.065 35.8509C213.109 46.0577 213.153 56.2646 213.153 66.4714C213.153 69.6969 210.635 72.1713 207.409 72.1713C205.553 72.1713 203.698 72.1713 201.753 72.1713C201.753 71.8178 201.753 71.5527 201.753 71.2876C201.753 61.4343 201.798 51.5809 201.709 41.7275C201.709 39.2532 201.488 36.7788 201.091 34.3044C200.693 31.7858 198.616 30.5044 196.495 31.2998C195.612 31.6091 194.816 32.2277 194.154 32.8904C192.828 34.3044 192.254 36.116 192.033 38.016C191.723 40.6229 191.502 43.2299 191.458 45.881C191.37 54.3646 191.414 62.804 191.414 71.2876C191.414 71.5527 191.414 71.8179 191.414 72.1272C187.614 72.1272 183.902 72.1272 180.058 72.1272C180.058 71.8179 180.058 71.5527 180.058 71.2434C180.058 61.4343 180.058 51.6251 180.058 41.8159C180.058 39.695 179.882 37.5741 179.749 35.409C179.705 34.8346 179.572 34.3044 179.396 33.7742C178.556 31.123 176.17 30.2393 173.74 31.6974C171.84 32.8463 170.824 34.6137 170.514 36.6904C170.117 39.2973 169.807 41.9927 169.763 44.6438C169.675 53.5251 169.719 62.3622 169.719 71.2434C169.719 71.5086 169.719 71.7737 169.719 72.1272C165.875 72.1272 162.163 72.1272 158.363 72.1272C158.363 54.8506 158.363 37.5741 158.363 20.2534C161.898 20.2534 165.389 20.2534 169.012 20.2534Z" fill="#D9E3EC"/>
<path d="M0 47.913C2.38602 47.6479 4.63947 47.2061 6.93712 47.1177C9.54406 46.9851 11.7092 48.7525 12.4603 51.2711C12.8138 52.4641 13.2115 53.6571 13.7417 54.7618C15.3765 58.2524 18.2044 59.8431 22.0486 59.7547C27.881 59.6222 31.6368 54.585 30.1787 48.9293C29.6926 47.0735 28.4554 45.8363 26.7764 45.1293C24.0811 43.9805 21.2974 43.0526 18.6021 41.948C16.5254 41.1085 14.4928 40.3131 12.5045 39.2969C7.73246 36.9108 4.63947 33.0225 3.09298 28.0296C1.14882 21.8436 1.41394 15.7018 4.19762 9.82515C7.06968 3.72755 12.1068 0.678756 18.6905 0.104345C21.8718 -0.160768 25.009 0.0601596 28.102 0.988055C33.1391 2.53455 36.4972 5.98101 38.6181 10.753C40.2972 14.4646 40.8716 18.4413 40.9157 22.4622C40.9157 22.5506 40.8716 22.5947 40.8716 22.7715C36.9832 22.9924 33.0949 23.2575 29.2508 23.4785C28.9415 21.9762 28.6764 20.518 28.3229 19.1041C28.1903 18.4855 27.9252 17.9111 27.6601 17.3367C26.7764 15.26 25.2299 14.067 23.0206 13.6693C21.0323 13.3158 19.0439 13.3158 17.144 14.067C15.1114 14.8623 13.6533 16.1437 13.3882 18.4855C13.1231 20.9157 13.8742 22.904 16.0835 24.0529C18.2486 25.1575 20.5021 26.0854 22.7555 27.0133C25.6276 28.2063 28.6322 29.2226 31.4601 30.5481C36.7181 33.0225 39.9437 37.3085 41.3134 42.8317C42.9925 49.5037 42.7715 56.1315 39.8995 62.4942C37.2042 68.5035 32.5647 72.0383 26.0694 73.0546C22.623 73.5848 19.2207 73.5848 15.8184 72.7895C11.444 71.7732 7.9092 69.4314 5.34644 65.7198C1.67905 60.3733 0.574411 54.2757 0 47.913Z" fill="#D9E3EC"/>
<path d="M119.744 20.209C118.949 23.2578 118.198 26.2182 117.402 29.1344C114.398 40.6227 111.349 52.1551 108.3 63.6433C106.754 69.52 105.163 75.3966 103.484 81.2733C102.998 82.9524 102.247 84.5872 101.451 86.1337C99.198 90.3755 95.4422 92.2755 90.7586 92.4522C89.8307 92.4964 88.9028 92.4964 88.0191 92.3197C85.5005 91.8778 83.6889 89.8453 83.468 87.2825C83.2471 84.5872 83.0261 81.9361 82.8052 79.1082C83.2029 79.1966 83.5564 79.285 83.8657 79.3733C85.2796 79.5943 86.7377 79.9036 88.1516 79.9919C89.7423 80.0803 91.0237 79.3291 91.8632 77.9594C93.0562 76.0152 93.719 73.8943 94.1609 71.6851C94.2051 71.4199 94.1609 71.0665 94.0725 70.8013C90.6702 58.2527 87.2237 45.6598 83.8215 33.1111C82.7168 29.0019 81.6122 24.9368 80.5076 20.8276C80.4634 20.6508 80.4192 20.4741 80.375 20.2532C84.3959 20.2532 88.3726 20.2532 92.4376 20.2532C95.0446 30.9461 97.6073 41.6389 100.214 52.3318C100.258 52.3318 100.303 52.3318 100.347 52.3318C100.479 51.7132 100.656 51.1388 100.789 50.5202C103.131 40.6669 105.428 30.8135 107.726 20.9601C107.858 20.3857 108.079 20.1648 108.742 20.1648C112.144 20.209 115.547 20.1648 118.949 20.1648C119.17 20.209 119.391 20.209 119.744 20.209Z" fill="#D9E3EC"/>
<path d="M155.976 20.297C155.976 37.5735 155.976 54.85 155.976 72.1707C155.401 72.1707 154.827 72.1707 154.297 72.1707C152.927 72.1266 151.513 72.2149 150.143 72.0824C147.713 71.7731 145.99 70.094 145.415 67.708C145.371 67.5755 145.327 67.3987 145.327 67.3987C144.046 68.5475 142.853 69.8731 141.483 70.8894C136.932 74.2033 131.409 74.1149 127.167 70.801C124.56 68.7243 123.146 65.8964 122.395 62.7151C121.732 59.843 121.511 56.8826 121.467 53.9221C121.423 42.9641 121.467 31.962 121.467 21.004C121.467 20.783 121.467 20.6063 121.467 20.3412C125.267 20.3412 128.978 20.3412 132.823 20.3412C132.823 20.6063 132.823 20.8714 132.823 21.1365C132.823 29.7527 132.778 38.3689 132.823 46.985C132.823 50.1222 133.044 53.2594 133.264 56.3965C133.309 57.2802 133.662 58.164 134.06 59.0035C135.65 62.2732 139.45 61.9197 141.527 59.9314C143.471 58.0756 144.267 55.6896 144.355 53.0826C144.488 47.7804 144.62 42.4339 144.664 37.1317C144.708 31.8294 144.664 26.5271 144.664 21.2249C144.664 20.9598 144.664 20.6947 144.664 20.3854C148.42 20.297 152.176 20.297 155.976 20.297Z" fill="#D9E3EC"/>
<path d="M67.9142 20.2527C71.7141 20.2527 75.4699 20.2527 79.2257 20.2527C79.2257 37.5292 79.2257 54.8057 79.2257 72.259C77.1048 72.1706 74.9838 72.3032 72.9071 71.9497C70.6979 71.5962 69.2839 70.0055 68.7095 67.7963C68.6653 67.6195 68.6211 67.4428 68.577 67.3102C67.4723 68.3707 66.456 69.5195 65.263 70.4474C61.1538 73.7613 55.8074 74.159 51.6097 71.5962C48.4726 69.652 46.7051 66.78 45.7772 63.2893C45.0261 60.5498 44.761 57.7662 44.761 54.9383C44.7168 43.5826 44.7168 32.2269 44.7168 20.8713C44.7168 20.6504 44.7168 20.4736 44.761 20.2085C48.5168 20.2085 52.2725 20.2085 56.0725 20.2085C56.0725 20.5178 56.0725 20.7829 56.0725 21.048C56.0725 29.2665 56.0283 37.5292 56.0725 45.7477C56.1167 49.2384 56.2934 52.7732 56.5143 56.2638C56.5585 57.2359 57.0004 58.2522 57.4422 59.0917C58.7678 61.5219 61.8166 62.008 64.1142 60.2405C66.1026 58.7382 67.2072 56.7057 67.3839 54.2755C67.6491 51.2267 67.8258 48.1779 67.8258 45.1733C67.87 37.1315 67.8258 29.134 67.8258 21.0922C67.9142 20.8713 67.9142 20.6062 67.9142 20.2527Z" fill="#D9E3EC"/>
<path d="M209.438 14.1555C209.438 11.5927 211.514 9.51599 214.165 9.51599C216.861 9.51599 218.982 11.5485 218.982 14.1555C218.982 16.7182 216.861 18.7949 214.254 18.7949C211.603 18.8833 209.438 16.7624 209.438 14.1555ZM214.254 17.8229C216.242 17.8229 217.744 16.2764 217.789 14.2438C217.833 12.1671 216.242 10.4881 214.254 10.4881C212.265 10.4881 210.675 12.0787 210.675 14.1555C210.631 16.188 212.177 17.8229 214.254 17.8229Z" fill="#D9E3EC"/>
<path d="M212.488 11.8133C213.284 11.8133 213.991 11.7692 214.742 11.8133C215.405 11.8575 215.979 12.0785 216.244 12.7854C216.465 13.4924 216.023 13.9342 215.625 14.1552C215.935 14.9505 216.2 15.7017 216.509 16.4528C215.36 16.7179 215.316 16.6737 215.051 15.7017C214.83 14.7738 214.609 14.6412 213.505 14.7738C213.505 15.3482 213.505 15.9226 213.505 16.5412C213.151 16.5412 212.842 16.5412 212.488 16.5412C212.488 15.0389 212.488 13.5366 212.488 11.8133ZM213.372 13.9784C214.123 14.0226 214.742 14.111 215.051 13.5366C215.139 13.3598 215.051 12.8738 214.918 12.8296C214.521 12.6529 213.902 12.4761 213.725 12.6529C213.46 12.918 213.505 13.4924 213.372 13.9784Z" fill="#D9E3EC"/>
</svg>
