<svg width="44" height="30" viewBox="0 0 44 30" fill="none" xmlns="http://www.w3.org/2000/svg">
<path d="M40.8847 29H3.11531C1.94632 29 1 27.9607 1 26.6769V3.32314C1 2.0393 1.94632 1 3.11531 1H40.8847C42.0537 1 43 2.0393 43 3.32314V26.6769C43 27.9607 42.0537 29 40.8847 29Z" stroke="#979797" stroke-miterlimit="10"/>
<path d="M29 19.4948L32.5027 22.9973L39.5 16" stroke="#03ABE0" stroke-width="3" stroke-miterlimit="10"/>
<path d="M33.2061 6.67069C32.015 5.47964 30.084 5.47964 28.8929 6.67069C27.7019 7.86173 27.7019 9.79281 28.8929 10.9839C30.084 12.1749 32.015 12.1749 33.2061 10.9839" stroke="#979797" stroke-miterlimit="10"/>
<path d="M35.752 11.8771C37.4364 11.8771 38.8019 10.5116 38.8019 8.82721C38.8019 7.14282 37.4364 5.77734 35.752 5.77734C34.0676 5.77734 32.7021 7.14282 32.7021 8.82721C32.7021 10.5116 34.0676 11.8771 35.752 11.8771Z" stroke="#979797" stroke-miterlimit="10"/>
<path d="M12.0521 11.8771H6.5399C5.70049 11.8771 5.00098 11.2056 5.00098 10.3382V7.28832C5.00098 6.4489 5.67251 5.74939 6.5399 5.74939H12.0521C12.8915 5.74939 13.591 6.42092 13.591 7.28832V10.3382C13.591 11.2056 12.8915 11.8771 12.0521 11.8771Z" stroke="#979797" stroke-width="0.5" stroke-miterlimit="10"/>
<path d="M7.5752 5.77734V11.8771" stroke="#979797" stroke-width="0.5" stroke-miterlimit="10"/>
<path d="M10.7656 11.8771V8.82727H13.5917" stroke="#979797" stroke-width="0.5" stroke-miterlimit="10"/>
<path d="M5.00098 7.59607H7.57518" stroke="#979797" stroke-width="0.5" stroke-miterlimit="10"/>
<path d="M5.00098 10.0583H13.591" stroke="#979797" stroke-width="0.5" stroke-miterlimit="10"/>
<mask id="path-10-inside-1_1684_17133" fill="white">
<path d="M24 19H5V20H24V19Z"/>
</mask>
<path d="M5 19V18H4V19H5ZM24 19H25V18H24V19ZM24 20V21H25V20H24ZM5 20H4V21H5V20ZM5 20H24V18H5V20ZM23 19V20H25V19H23ZM24 19H5V21H24V19ZM6 20V19H4V20H6Z" fill="#979797" mask="url(#path-10-inside-1_1684_17133)"/>
<mask id="path-12-inside-2_1684_17133" fill="white">
<path d="M15 23H5V24H15V23Z"/>
</mask>
<path d="M5 23V22H4V23H5ZM15 23H16V22H15V23ZM15 24V25H16V24H15ZM5 24H4V25H5V24ZM5 24H15V22H5V24ZM14 23V24H16V23H14ZM15 23H5V25H15V23ZM6 24V23H4V24H6Z" fill="#979797" mask="url(#path-12-inside-2_1684_17133)"/>
</svg>
