<svg width="47" height="49" viewBox="0 0 47 49" fill="none" xmlns="http://www.w3.org/2000/svg">
<path d="M45.8043 37.2241H37.9699C34.8361 37.2241 32.3389 34.7245 32.3389 31.5877C32.3389 28.4509 34.8361 25.9512 37.9699 25.9512H45.8043" stroke="#979797" stroke-linecap="round" stroke-linejoin="round"/>
<path d="M36.9909 34.2833C38.4783 34.2833 39.684 33.0764 39.684 31.5877C39.684 30.0989 38.4783 28.892 36.9909 28.892C35.5036 28.892 34.2979 30.0989 34.2979 31.5877C34.2979 33.0764 35.5036 34.2833 36.9909 34.2833Z" fill="#03ABE0"/>
<path d="M12.9697 15.9267L20.6293 1L37.3845 10.0943L34.1528 15.9267" stroke="#03ABE0" stroke-width="0.5" stroke-linecap="round" stroke-linejoin="round"/>
<path d="M14.8848 15.8405L19.6725 6.74479L24.9384 5.30713L34.9916 10.5746L32.1193 15.6716" stroke="#979797" stroke-linecap="round" stroke-linejoin="round"/>
<path d="M41.3484 47.5167H5.70165C3.10649 47.5167 1.00098 45.4092 1.00098 42.8115V20.8539C1.00098 18.2563 3.10649 16.1487 5.70165 16.1487H41.2995C43.8946 16.1487 46.0001 18.2563 46.0001 20.8539V42.7625C46.0491 45.4092 43.9436 47.5167 41.3484 47.5167Z" stroke="#979797" stroke-linecap="round" stroke-linejoin="round"/>
<path d="M20.1504 6.91876L23.1159 8.65957L24.9376 5.78723" stroke="#979797" stroke-linecap="round" stroke-linejoin="round"/>
<path d="M4.83105 20.56V43.1057" stroke="#979797" stroke-width="0.5" stroke-linecap="round" stroke-linejoin="round"/>
</svg>
