<?xml version="1.0" encoding="utf-8"?>
<!-- Generator: Adobe Illustrator 23.0.3, SVG Export Plug-In . SVG Version: 6.00 Build 0)  -->
<svg version="1.1" id="Слой_1" xmlns="http://www.w3.org/2000/svg" xmlns:xlink="http://www.w3.org/1999/xlink" x="0px" y="0px"
	 viewBox="0 0 129 54.5" style="enable-background:new 0 0 129 54.5;" xml:space="preserve">
<style type="text/css">
	.st0{fill:#FFFFFF;}
</style>
<path class="st0" d="M99.6,11.9c0,0.9,0,1.7,0,2.7c0.5-0.5,0.9-1,1.4-1.5c2.1-2,4.9-2.4,7.4-1.3c1.4,0.6,2.3,1.7,3.1,3
	c0.1,0.2,0.2,0.3,0.3,0.5c0.5-0.6,1-1.2,1.5-1.7c2.3-2.4,5.7-3,8.5-1.4c1.7,1,2.6,2.5,3.3,4.3c0.5,1.5,0.7,3.1,0.7,4.7
	c0,6,0.1,12,0.1,18c0,1.9-1.5,3.4-3.4,3.4c-1.1,0-2.2,0-3.3,0c0-0.2,0-0.4,0-0.5c0-5.8,0-11.6,0-17.4c0-1.5-0.1-2.9-0.4-4.4
	c-0.2-1.5-1.5-2.2-2.7-1.8c-0.5,0.2-1,0.5-1.4,0.9c-0.8,0.8-1.1,1.9-1.3,3c-0.2,1.5-0.3,3.1-0.3,4.6c-0.1,5,0,10,0,15
	c0,0.2,0,0.3,0,0.5c-2.2,0-4.4,0-6.7,0c0-0.2,0-0.3,0-0.5c0-5.8,0-11.6,0-17.3c0-1.2-0.1-2.5-0.2-3.8c0-0.3-0.1-0.7-0.2-1
	c-0.5-1.6-1.9-2.1-3.3-1.2c-1.1,0.7-1.7,1.7-1.9,2.9c-0.2,1.5-0.4,3.1-0.4,4.7c-0.1,5.2,0,10.4,0,15.7c0,0.2,0,0.3,0,0.5
	c-2.3,0-4.5,0-6.7,0c0-10.2,0-20.4,0-30.6C95.4,11.9,97.4,11.9,99.6,11.9z"/>
<path class="st0" d="M0,28.2c1.4-0.2,2.7-0.4,4.1-0.5c1.5-0.1,2.8,1,3.3,2.4c0.2,0.7,0.4,1.4,0.8,2.1c1,2.1,2.6,3,4.9,2.9
	c3.4-0.1,5.6-3,4.8-6.4c-0.3-1.1-1-1.8-2-2.2c-1.6-0.7-3.2-1.2-4.8-1.9c-1.2-0.5-2.4-1-3.6-1.6c-2.8-1.4-4.6-3.7-5.5-6.6
	c-1.1-3.6-1-7.3,0.7-10.7C4.2,2.2,7.1,0.4,11,0.1c1.9-0.2,3.7,0,5.5,0.5c3,0.9,4.9,2.9,6.2,5.8c1,2.2,1.3,4.5,1.4,6.9
	c0,0.1,0,0.1,0,0.2c-2.3,0.1-4.6,0.3-6.8,0.4c-0.2-0.9-0.3-1.7-0.5-2.6c-0.1-0.4-0.2-0.7-0.4-1c-0.5-1.2-1.4-1.9-2.7-2.2
	c-1.2-0.2-2.3-0.2-3.5,0.2C8.9,8.8,8,9.5,7.9,10.9c-0.2,1.4,0.3,2.6,1.6,3.3c1.3,0.7,2.6,1.2,3.9,1.7c1.7,0.7,3.5,1.3,5.1,2.1
	c3.1,1.5,5,4,5.8,7.2c1,3.9,0.9,7.8-0.8,11.6c-1.6,3.5-4.3,5.6-8.1,6.2c-2,0.3-4,0.3-6-0.2c-2.6-0.6-4.7-2-6.2-4.2
	C1,35.6,0.3,32,0,28.2z"/>
<path class="st0" d="M70.5,11.9c-0.5,1.8-0.9,3.5-1.4,5.3c-1.8,6.8-3.6,13.6-5.4,20.3C62.9,41,62,44.4,61,47.9c-0.3,1-0.7,2-1.2,2.9
	c-1.3,2.5-3.5,3.6-6.3,3.7c-0.5,0-1.1,0-1.6-0.1c-1.5-0.3-2.6-1.5-2.7-3c-0.1-1.6-0.3-3.1-0.4-4.8c0.2,0.1,0.4,0.1,0.6,0.2
	c0.8,0.1,1.7,0.3,2.5,0.4c0.9,0.1,1.7-0.4,2.2-1.2c0.7-1.1,1.1-2.4,1.4-3.7c0-0.2,0-0.4-0.1-0.5c-2-7.4-4-14.8-6-22.2
	c-0.7-2.4-1.3-4.8-2-7.2c0-0.1-0.1-0.2-0.1-0.3c2.4,0,4.7,0,7.1,0c1.5,6.3,3,12.6,4.6,18.9c0,0,0.1,0,0.1,0c0.1-0.4,0.2-0.7,0.3-1.1
	c1.4-5.8,2.7-11.6,4.1-17.4c0.1-0.3,0.2-0.5,0.6-0.5c2,0,4,0,6,0C70.2,11.9,70.3,11.9,70.5,11.9z"/>
<path class="st0" d="M91.9,12c0,10.2,0,20.4,0,30.6c-0.3,0-0.7,0-1,0c-0.8,0-1.6,0-2.4-0.1c-1.4-0.2-2.4-1.2-2.8-2.6
	c0-0.1-0.1-0.2-0.1-0.2c-0.8,0.7-1.5,1.5-2.3,2.1c-2.7,2-5.9,1.9-8.4-0.1c-1.5-1.2-2.4-2.9-2.8-4.8c-0.4-1.7-0.5-3.4-0.5-5.2
	c0-6.5,0-12.9,0-19.4c0-0.1,0-0.2,0-0.4c2.2,0,4.4,0,6.7,0c0,0.2,0,0.3,0,0.5c0,5.1,0,10.2,0,15.2c0,1.8,0.1,3.7,0.3,5.5
	c0,0.5,0.2,1,0.5,1.5c0.9,1.9,3.2,1.7,4.4,0.5c1.1-1.1,1.6-2.5,1.7-4c0.1-3.1,0.2-6.3,0.2-9.4c0-3.1,0-6.2,0-9.4c0-0.2,0-0.3,0-0.5
	C87.4,12,89.6,12,91.9,12z"/>
<path class="st0" d="M40,11.9c2.2,0,4.5,0,6.7,0c0,10.2,0,20.4,0,30.6c-1.2-0.1-2.5,0-3.7-0.2c-1.3-0.2-2.1-1.1-2.5-2.4
	c0-0.1-0.1-0.2-0.1-0.3c-0.7,0.6-1.2,1.3-2,1.8c-2.4,2-5.6,2.2-8,0.7c-1.8-1.1-2.9-2.8-3.4-4.9c-0.4-1.6-0.6-3.3-0.6-4.9
	c0-6.7,0-13.4,0-20.1c0-0.1,0-0.2,0-0.4c2.2,0,4.4,0,6.7,0c0,0.2,0,0.3,0,0.5c0,4.8,0,9.7,0,14.6c0,2.1,0.1,4.1,0.3,6.2
	c0,0.6,0.3,1.2,0.5,1.7c0.8,1.4,2.6,1.7,3.9,0.7c1.2-0.9,1.8-2.1,1.9-3.5c0.2-1.8,0.3-3.6,0.3-5.4c0-4.7,0-9.4,0-14.2
	C40,12.3,40,12.1,40,11.9z"/>
<path class="st0" d="M123.4,8.3c0-1.5,1.2-2.7,2.8-2.7c1.6,0,2.8,1.2,2.8,2.7c0,1.5-1.2,2.7-2.8,2.7C124.7,11.1,123.4,9.9,123.4,8.3
	z M126.2,10.5c1.2,0,2.1-0.9,2.1-2.1c0-1.2-0.9-2.2-2.1-2.2c-1.2,0-2.1,0.9-2.1,2.2C124.1,9.5,125,10.5,126.2,10.5z"/>
<path class="st0" d="M125.2,7c0.5,0,0.9,0,1.3,0c0.4,0,0.7,0.2,0.9,0.6c0.1,0.4-0.1,0.7-0.4,0.8c0.2,0.5,0.3,0.9,0.5,1.4
	c-0.7,0.2-0.7,0.1-0.9-0.4c-0.1-0.5-0.3-0.6-0.9-0.5c0,0.3,0,0.7,0,1c-0.2,0-0.4,0-0.6,0C125.2,8.9,125.2,8,125.2,7z M125.7,8.2
	c0.4,0,0.8,0.1,1-0.3c0.1-0.1,0-0.4-0.1-0.4c-0.2-0.1-0.6-0.2-0.7-0.1C125.7,7.6,125.8,7.9,125.7,8.2z"/>
</svg>
