<?xml version="1.0" encoding="utf-8"?>
<!-- Generator: Adobe Illustrator 23.0.3, SVG Export Plug-In . SVG Version: 6.00 Build 0)  -->
<svg version="1.1" id="Слой_1" xmlns="http://www.w3.org/2000/svg" xmlns:xlink="http://www.w3.org/1999/xlink" x="0px" y="0px"
	 viewBox="0 0 169 125.8" style="enable-background:new 0 0 169 125.8;" xml:space="preserve">
<style type="text/css">
	.st0{fill:url(#SVGID_1_);}
	.st1{fill:url(#SVGID_2_);}
	.st2{fill:url(#SVGID_3_);}
	.st3{fill:url(#SVGID_4_);}
	.st4{fill:url(#SVGID_5_);}
	.st5{fill:url(#SVGID_6_);}
	.st6{fill:url(#SVGID_7_);}
	.st7{fill:url(#SVGID_8_);}
	.st8{fill:url(#SVGID_9_);}
	.st9{fill:url(#SVGID_10_);}
	.st10{fill:url(#SVGID_11_);}
	.st11{fill:#FFFFFF;fill-opacity:0.32;}
	.st12{fill:url(#SVGID_12_);}
	.st13{fill:url(#SVGID_13_);}
	.st14{fill:url(#SVGID_14_);}
	.st15{fill:url(#SVGID_15_);}
	.st16{fill:url(#SVGID_16_);}
	.st17{fill:url(#SVGID_17_);}
	.st18{fill:url(#SVGID_18_);}
	.st19{fill:#1D3F49;fill-opacity:0.5;}
	.st20{fill:url(#SVGID_19_);}
	.st21{fill:url(#SVGID_20_);}
	.st22{fill:url(#SVGID_21_);}
	.st23{fill:url(#SVGID_22_);}
	.st24{fill:url(#SVGID_23_);}
	.st25{fill:url(#SVGID_24_);}
	.st26{fill-opacity:0.2;}
</style>
<linearGradient id="SVGID_1_" gradientUnits="userSpaceOnUse" x1="55.3538" y1="8.0752" x2="113.6462" y2="8.0752" gradientTransform="matrix(1 0 0 -1 0 124)">
	<stop  offset="0" style="stop-color:#BAE0FF"/>
	<stop  offset="0.3191" style="stop-color:#FFFFFF"/>
	<stop  offset="1" style="stop-color:#C1CCCF"/>
</linearGradient>
<path class="st0" d="M84.5,125.7c-3.7,0-29.2,1-29.2-8.4v-4.7c0-3.6,2.6-6.5,5.8-6.5h46.6c3.2,0,5.8,2.9,5.8,6.5v4.7
	C113.8,126.7,88.1,125.7,84.5,125.7z"/>
<linearGradient id="SVGID_2_" gradientUnits="userSpaceOnUse" x1="56.8304" y1="23.4822" x2="112.2302" y2="23.4822" gradientTransform="matrix(1 0 0 -1 0 124)">
	<stop  offset="0" style="stop-color:#BAE0FF"/>
	<stop  offset="0.3191" style="stop-color:#E5E8EA"/>
	<stop  offset="1" style="stop-color:#C1CCCF"/>
</linearGradient>
<path class="st1" d="M84.5,114.1c-3.5,0-27.7,0.9-27.7-7.8V92.9c0-3.3,2.5-6,5.5-6h44.3c3.1,0,5.5,2.7,5.5,6v13.5
	C112.3,115,88,114.1,84.5,114.1z"/>
<linearGradient id="SVGID_3_" gradientUnits="userSpaceOnUse" x1="55.3538" y1="36.3817" x2="113.6462" y2="36.3817" gradientTransform="matrix(1 0 0 -1 0 124)">
	<stop  offset="0" style="stop-color:#BAE0FF"/>
	<stop  offset="0.3191" style="stop-color:#FFFFFF"/>
	<stop  offset="1" style="stop-color:#C1CCCF"/>
</linearGradient>
<path class="st2" d="M84.5,97.4c-3.7,0-29.2,1-29.2-8.4v-4.7c0-3.6,2.6-6.5,5.8-6.5h46.6c3.2,0,5.8,2.9,5.8,6.5V89
	C113.8,98.4,88.1,97.4,84.5,97.4z"/>
<linearGradient id="SVGID_4_" gradientUnits="userSpaceOnUse" x1="56.8304" y1="50.1858" x2="112.2302" y2="50.1858" gradientTransform="matrix(1 0 0 -1 0 124)">
	<stop  offset="0" style="stop-color:#BAE0FF"/>
	<stop  offset="0.3191" style="stop-color:#E5E8EA"/>
	<stop  offset="1" style="stop-color:#C1CCCF"/>
</linearGradient>
<path class="st3" d="M84.5,86.4c-3.5,0-27.7,0.9-27.7-7.8V67.3c0-3.3,2.5-6,5.5-6h44.3c3.1,0,5.5,2.7,5.5,6v11.3
	C112.3,87.2,88,86.4,84.5,86.4z"/>
<linearGradient id="SVGID_5_" gradientUnits="userSpaceOnUse" x1="55.3538" y1="62.6459" x2="113.6462" y2="62.6459" gradientTransform="matrix(1 0 0 -1 0 124)">
	<stop  offset="0" style="stop-color:#BAE0FF"/>
	<stop  offset="0.3191" style="stop-color:#FFFFFF"/>
	<stop  offset="1" style="stop-color:#C1CCCF"/>
</linearGradient>
<path class="st4" d="M84.5,71.2c-3.7,0-29.2,1-29.2-8.4v-4.7c0-3.6,2.6-6.5,5.8-6.5h46.6c3.2,0,5.8,2.9,5.8,6.5v4.7
	C113.8,72.1,88.1,71.2,84.5,71.2z"/>
<linearGradient id="SVGID_6_" gradientUnits="userSpaceOnUse" x1="60.4046" y1="72.3018" x2="108.6278" y2="72.3018" gradientTransform="matrix(1 0 0 -1 0 124)">
	<stop  offset="0" style="stop-color:#BAE0FF"/>
	<stop  offset="0.3191" style="stop-color:#EBEBEB"/>
	<stop  offset="1" style="stop-color:#E1DFDB"/>
</linearGradient>
<path class="st5" d="M84.5,57.2c13.3,0,24.1-2.5,24.1-5.5c0-3-10.8-5.5-24.1-5.5s-24.1,2.5-24.1,5.5C60.4,54.7,71.2,57.2,84.5,57.2z
	"/>
<linearGradient id="SVGID_7_" gradientUnits="userSpaceOnUse" x1="77.51" y1="72.6673" x2="91.5209" y2="72.6673" gradientTransform="matrix(1 0 0 -1 0 124)">
	<stop  offset="0" style="stop-color:#BAE0FF"/>
	<stop  offset="0.3191" style="stop-color:#FFFFFF"/>
	<stop  offset="1" style="stop-color:#C1CCCF"/>
</linearGradient>
<path class="st6" d="M84.5,53.5c3.9,0,7-1,7-2.2c0-1.2-3.1-2.2-7-2.2c-3.9,0-7,1-7,2.2C77.5,52.5,80.6,53.5,84.5,53.5z"/>
<linearGradient id="SVGID_8_" gradientUnits="userSpaceOnUse" x1="77.51" y1="77.2355" x2="91.5209" y2="77.2355" gradientTransform="matrix(1 0 0 -1 0 124)">
	<stop  offset="0" style="stop-color:#BAE0FF"/>
	<stop  offset="0.3191" style="stop-color:#FFFFFF"/>
	<stop  offset="1" style="stop-color:#C1CCCF"/>
</linearGradient>
<path class="st7" d="M91.5,42.2h-14v9.1h14V42.2z"/>
<linearGradient id="SVGID_9_" gradientUnits="userSpaceOnUse" x1="80.0077" y1="85.2712" x2="88.1528" y2="79.006" gradientTransform="matrix(1 0 0 -1 0 124)">
	<stop  offset="0" style="stop-color:#BAE0FF"/>
	<stop  offset="0.3191" style="stop-color:#EBEBEB"/>
	<stop  offset="1" style="stop-color:#E1DFDB"/>
</linearGradient>
<path class="st8" d="M84.5,44.4c3.9,0,7-1,7-2.2c0-1.2-3.1-2.2-7-2.2c-3.9,0-7,1-7,2.2C77.5,43.4,80.6,44.4,84.5,44.4z"/>
<linearGradient id="SVGID_10_" gradientUnits="userSpaceOnUse" x1="63.3538" y1="13.988" x2="105.6438" y2="13.988" gradientTransform="matrix(1 0 0 -1 0 124)">
	<stop  offset="0" style="stop-color:#2E5DA4"/>
	<stop  offset="0.3191" style="stop-color:#69B2DB"/>
	<stop  offset="1" style="stop-color:#285A95"/>
</linearGradient>
<path class="st9" d="M105.6,103.4H63.4v13.1h42.3V103.4z"/>
<linearGradient id="SVGID_11_" gradientUnits="userSpaceOnUse" x1="63.3538" y1="20.5605" x2="105.6438" y2="20.5605" gradientTransform="matrix(1 0 0 -1 0 124)">
	<stop  offset="0" style="stop-color:#3C72B1"/>
	<stop  offset="0.3191" style="stop-color:#69B2DB"/>
	<stop  offset="1" style="stop-color:#2E629B"/>
</linearGradient>
<path class="st10" d="M84.5,106.3c11.7,0,21.1-1.3,21.1-2.9s-9.5-2.9-21.1-2.9c-11.7,0-21.1,1.3-21.1,2.9S72.8,106.3,84.5,106.3z"/>
<path class="st11" d="M84.5,106.3c11.7,0,21.1-1.3,21.1-2.9s-9.5-2.9-21.1-2.9c-11.7,0-21.1,1.3-21.1,2.9S72.8,106.3,84.5,106.3z"/>
<linearGradient id="SVGID_12_" gradientUnits="userSpaceOnUse" x1="63.3538" y1="7.9875" x2="105.6438" y2="7.9875" gradientTransform="matrix(1 0 0 -1 0 124)">
	<stop  offset="0" style="stop-color:#2E5DA4"/>
	<stop  offset="0.3191" style="stop-color:#69B2DB"/>
	<stop  offset="1" style="stop-color:#285A95"/>
</linearGradient>
<path class="st12" d="M84.5,120c11.7,0,21.1-1.8,21.1-4c0-2.2-9.5-4-21.1-4c-11.7,0-21.1,1.8-21.1,4C63.4,118.2,72.8,120,84.5,120z"
	/>
<linearGradient id="SVGID_13_" gradientUnits="userSpaceOnUse" x1="72.4983" y1="81.7998" x2="94.5438" y2="81.7998" gradientTransform="matrix(1 0 0 -1 0 124)">
	<stop  offset="0" style="stop-color:#8BA8BF"/>
	<stop  offset="0.3191" style="stop-color:#FFFFFF"/>
	<stop  offset="0.8073" style="stop-color:#778083"/>
	<stop  offset="1" style="stop-color:#C1CCCF"/>
</linearGradient>
<path class="st13" d="M83.5,44.7c6.1,0,11-1.1,11-2.5c0-1.4-4.9-2.5-11-2.5c-6.1,0-11,1.1-11,2.5C72.5,43.6,77.4,44.7,83.5,44.7z"/>
<linearGradient id="SVGID_14_" gradientUnits="userSpaceOnUse" x1="72.4983" y1="84.6595" x2="94.5438" y2="84.6595" gradientTransform="matrix(1 0 0 -1 0 124)">
	<stop  offset="0" style="stop-color:#8BA8BF"/>
	<stop  offset="0.3191" style="stop-color:#FFFFFF"/>
	<stop  offset="0.8021" style="stop-color:#778083"/>
	<stop  offset="1" style="stop-color:#C1CCCF"/>
</linearGradient>
<path class="st14" d="M94.5,36.5h-22v5.7h22V36.5z"/>
<linearGradient id="SVGID_15_" gradientUnits="userSpaceOnUse" x1="78.0237" y1="92.9055" x2="87.9572" y2="82.7094" gradientTransform="matrix(1 0 0 -1 0 124)">
	<stop  offset="0" style="stop-color:#68828F"/>
	<stop  offset="0.3191" style="stop-color:#AEBCC1"/>
	<stop  offset="1" style="stop-color:#74878D"/>
</linearGradient>
<path class="st15" d="M83.5,39.3c6.1,0,11-1.1,11-2.5c0-1.4-4.9-2.5-11-2.5c-6.1,0-11,1.1-11,2.5C72.5,38.1,77.4,39.3,83.5,39.3z"/>
<linearGradient id="SVGID_16_" gradientUnits="userSpaceOnUse" x1="81.6429" y1="87.9961" x2="87.3578" y2="87.9961" gradientTransform="matrix(1 0 0 -1 0 124)">
	<stop  offset="0" style="stop-color:#8BA8BF"/>
	<stop  offset="0.3191" style="stop-color:#FFFFFF"/>
	<stop  offset="0.8073" style="stop-color:#778083"/>
	<stop  offset="1" style="stop-color:#C1CCCF"/>
</linearGradient>
<path class="st16" d="M84.5,36.6c1.6,0,2.9-0.3,2.9-0.6c0-0.3-1.3-0.6-2.9-0.6s-2.9,0.3-2.9,0.6C81.6,36.3,82.9,36.6,84.5,36.6z"/>
<linearGradient id="SVGID_17_" gradientUnits="userSpaceOnUse" x1="81.6429" y1="92.8538" x2="87.3578" y2="92.8538" gradientTransform="matrix(1 0 0 -1 0 124)">
	<stop  offset="0" style="stop-color:#8BA8BF"/>
	<stop  offset="0.3191" style="stop-color:#FFFFFF"/>
	<stop  offset="0.8021" style="stop-color:#778083"/>
	<stop  offset="1" style="stop-color:#C1CCCF"/>
</linearGradient>
<path class="st17" d="M87.4,26.3h-5.7V36h5.7V26.3z"/>
<linearGradient id="SVGID_18_" gradientUnits="userSpaceOnUse" x1="74.7835" y1="96.0129" x2="92.0516" y2="96.0129" gradientTransform="matrix(1 0 0 -1 0 124)">
	<stop  offset="0" style="stop-color:#8BA8BF"/>
	<stop  offset="0.3191" style="stop-color:#FFFFFF"/>
	<stop  offset="0.8073" style="stop-color:#778083"/>
	<stop  offset="1" style="stop-color:#C1CCCF"/>
</linearGradient>
<path class="st18" d="M83.4,30c4.8,0,8.6-0.9,8.6-2c0-1.1-3.9-2-8.6-2c-4.8,0-8.6,0.9-8.6,2C74.8,29.1,78.6,30,83.4,30z"/>
<path class="st19" d="M83.4,30c4.8,0,8.6-0.9,8.6-2c0-1.1-3.9-2-8.6-2c-4.8,0-8.6,0.9-8.6,2C74.8,29.1,78.6,30,83.4,30z"/>
<linearGradient id="SVGID_19_" gradientUnits="userSpaceOnUse" x1="74.7835" y1="98.2529" x2="92.0516" y2="98.2529" gradientTransform="matrix(1 0 0 -1 0 124)">
	<stop  offset="0" style="stop-color:#8BA8BF"/>
	<stop  offset="0.3191" style="stop-color:#FFFFFF"/>
	<stop  offset="0.8021" style="stop-color:#778083"/>
	<stop  offset="1" style="stop-color:#C1CCCF"/>
</linearGradient>
<path class="st20" d="M92.1,23.5H74.8V28h17.3V23.5z"/>
<path class="st19" d="M92.1,23.5H74.8V28h17.3V23.5z"/>
<linearGradient id="SVGID_20_" gradientUnits="userSpaceOnUse" x1="79.1115" y1="104.7116" x2="86.8922" y2="96.7252" gradientTransform="matrix(1 0 0 -1 0 124)">
	<stop  offset="0" style="stop-color:#68828F"/>
	<stop  offset="0.3191" style="stop-color:#AEBCC1"/>
	<stop  offset="1" style="stop-color:#74878D"/>
</linearGradient>
<path class="st21" d="M83.4,25.7c4.8,0,8.6-0.9,8.6-2c0-1.1-3.9-2-8.6-2c-4.8,0-8.6,0.9-8.6,2C74.8,24.8,78.6,25.7,83.4,25.7z"/>
<linearGradient id="SVGID_21_" gradientUnits="userSpaceOnUse" x1="77.0706" y1="100.371" x2="90.8875" y2="100.371" gradientTransform="matrix(1 0 0 -1 0 124)">
	<stop  offset="0" style="stop-color:#8BA8BF"/>
	<stop  offset="0.3191" style="stop-color:#FFFFFF"/>
	<stop  offset="0.8073" style="stop-color:#778083"/>
	<stop  offset="1" style="stop-color:#C1CCCF"/>
</linearGradient>
<path class="st22" d="M84,25.1c3.8,0,6.9-0.7,6.9-1.5c0-0.8-3.1-1.5-6.9-1.5c-3.8,0-6.9,0.7-6.9,1.5C77.1,24.5,80.2,25.1,84,25.1z"
	/>
<linearGradient id="SVGID_22_" gradientUnits="userSpaceOnUse" x1="77.3382" y1="111.4271" x2="91.0539" y2="111.4271" gradientTransform="matrix(1 0 0 -1 0 124)">
	<stop  offset="0" style="stop-color:#8BA8BF"/>
	<stop  offset="0.3191" style="stop-color:#FFFFFF"/>
	<stop  offset="0.8021" style="stop-color:#778083"/>
	<stop  offset="1" style="stop-color:#C1CCCF"/>
</linearGradient>
<path class="st23" d="M91.1,1.1H77.3V24h13.7V1.1z"/>
<linearGradient id="SVGID_23_" gradientUnits="userSpaceOnUse" x1="80.7145" y1="126.0135" x2="86.6132" y2="119.6401" gradientTransform="matrix(1 0 0 -1 0 124)">
	<stop  offset="0" style="stop-color:#68828F"/>
	<stop  offset="0.3191" style="stop-color:#AEBCC1"/>
	<stop  offset="1" style="stop-color:#74878D"/>
</linearGradient>
<path class="st24" d="M84,3c3.8,0,6.9-0.7,6.9-1.5S87.8,0,84,0c-3.8,0-6.9,0.7-6.9,1.5S80.2,3,84,3z"/>
<linearGradient id="SVGID_24_" gradientUnits="userSpaceOnUse" x1="83.0331" y1="123.9385" x2="85.1357" y2="120.9516" gradientTransform="matrix(1 0 0 -1 0 124)">
	<stop  offset="0" style="stop-color:#68828F"/>
	<stop  offset="0.3191" style="stop-color:#AEBCC1"/>
	<stop  offset="1" style="stop-color:#74878D"/>
</linearGradient>
<path class="st25" d="M84.2,2.3c1.9,0,3.4-0.3,3.4-0.6c0-0.3-1.5-0.6-3.4-0.6c-1.9,0-3.4,0.3-3.4,0.6C80.8,2,82.3,2.3,84.2,2.3z"/>
<path class="st26" d="M84.2,2.3c1.9,0,3.4-0.3,3.4-0.6c0-0.3-1.5-0.6-3.4-0.6c-1.9,0-3.4,0.3-3.4,0.6C80.8,2,82.3,2.3,84.2,2.3z"/>
</svg>
