<svg width="56" height="67" viewBox="0 0 56 67" fill="none" xmlns="http://www.w3.org/2000/svg">
<path d="M19.0441 13.8311C16.6382 13.8311 14.6334 13.0292 13.8314 13.0292C13.3579 12.9743 12.6287 12.6282 11.8266 13.0292C11.1849 13.35 9.68808 18.2418 9.01989 20.6477L8.21795 21.0487L7.01503 22.2516L5.41113 23.0535L6.21308 27.0633L8.21795 26.6623C8.48526 27.0633 9.10009 27.9454 9.42087 28.2662C9.74164 28.5869 12.4949 29.7364 13.8314 30.271C13.0295 29.2018 11.5058 26.8227 11.8266 25.8603C12.1473 24.898 13.2968 25.4594 13.8314 25.8603C14.4997 27.0633 15.9967 29.7899 16.6382 31.073C17.2798 32.3561 17.7075 33.4788 17.8411 33.8798C18.9104 33.6125 21.2895 32.9977 22.2519 32.6769C23.2142 32.3561 24.2567 31.7413 24.6577 31.474L28.6674 30.271L26.2616 25.0584L30.6723 23.0535C30.004 21.1823 28.6674 17.1191 28.6674 15.836C28.6674 14.5529 28.9347 13.4302 29.0684 13.0292H27.0635C25.8606 13.0292 21.4499 13.8311 19.0441 13.8311Z" fill="#03ABE0"/>
<path d="M28.6668 30.6155C27.9361 30.7677 25.0858 31.1109 25.0858 31.1109C25.0858 31.1109 24.5073 31.3849 24.4769 31.5371C24.4464 31.6894 23.9593 32.3592 23.6853 32.42C23.4113 32.4809 23.2286 32.5114 23.2286 32.5114C23.2286 32.5114 23.1373 32.6636 22.9242 32.7245C22.7111 32.7549 21.7977 32.968 21.7977 32.968C21.7977 32.968 21.5542 32.8158 21.2802 32.8767C21.0062 32.9376 19.2099 33.3334 19.2099 33.3334C19.2099 33.3334 18.8446 33.6074 18.6619 33.6683C18.4488 33.6987 17.8703 33.8509 17.6572 33.8814" stroke="#979797" stroke-width="1.1761" stroke-linecap="round" stroke-linejoin="round"/>
<path d="M10.6864 27.488C10.5646 27.3663 9.43816 27.5185 8.95104 27.3054C8.46392 27.1227 8.5857 26.5747 8.34214 26.6356C7.88547 26.7269 7.55058 26.8183 7.55058 26.8183L6.5459 27.0314C6.5459 27.0314 6.42412 27.4576 6.30234 27.488C6.18056 27.5185 3.10564 28.1883 3.10564 28.1883C3.10564 28.1883 2.92297 28.31 2.86208 28.31C2.64896 28.3709 2.07051 28.31 2.04007 28.0969L1.00494 23.652C0.944055 23.4389 1.46162 23.1649 1.67473 23.1344C1.73562 23.1344 1.94873 23.1344 1.94873 23.1344C1.94873 23.1344 5.02366 22.4646 5.14544 22.4342C5.26722 22.4038 5.57167 22.7386 5.57167 22.7386L6.51546 22.5255C6.51546 22.5255 6.78946 22.4646 7.30702 22.3429C7.55058 22.282 7.33747 21.6426 7.67236 21.3077C8.06814 20.912 9.01193 20.7902 9.10327 20.638C9.22504 20.2422 10.6559 15.5537 11.0213 14.3359C11.4475 13.0572 12.2391 12.6005 12.2391 12.6005C12.2391 12.6005 12.6653 12.0221 12.8784 11.9612C13.0915 11.9307 13.67 11.7785 13.8831 11.7481C14.0962 11.7176 14.5833 11.809 14.5833 11.809C14.5833 11.809 16.3796 11.4132 16.6536 11.3523C16.9276 11.2914 17.0798 11.0478 17.0798 11.0478C17.0798 11.0478 18.0845 10.8347 18.2063 10.8043C18.328 10.7738 18.5716 10.8652 18.5716 10.8652C18.5716 10.8652 18.7847 10.8347 19.0283 10.7738C19.3023 10.7129 20.0025 11.1392 20.0938 11.261C20.1852 11.3827 20.8245 11.3827 20.8245 11.3827C20.8245 11.3827 25.5306 10.3182 26.2613 10.166" stroke="#979797" stroke-width="1.1761" stroke-linecap="round" stroke-linejoin="round"/>
<path d="M15.9234 29.6189L12.3613 12.6611" stroke="#979797" stroke-width="0.5881" stroke-linecap="round" stroke-linejoin="round"/>
<path d="M6.36291 27.3053L5.38867 22.769" stroke="#979797" stroke-width="0.5881" stroke-linecap="round" stroke-linejoin="round"/>
<path d="M3.25795 28.1577L2.19238 23.2561" stroke="#979797" stroke-width="0.5881" stroke-linecap="round" stroke-linejoin="round"/>
<path d="M5.6943 27.6401L4.65918 22.7385" stroke="#979797" stroke-width="0.5881" stroke-linecap="round" stroke-linejoin="round"/>
<path d="M4.65834 27.8533L3.59277 22.9517" stroke="#979797" stroke-width="0.5881" stroke-linecap="round" stroke-linejoin="round"/>
<path d="M7.03249 26.9704L6.11914 22.769" stroke="#979797" stroke-width="0.5881" stroke-linecap="round" stroke-linejoin="round"/>
<path d="M8.43385 26.6661L7.52051 22.4951" stroke="#979797" stroke-width="0.5881" stroke-linecap="round" stroke-linejoin="round"/>
<path d="M10.4124 27.3661L8.98145 20.6987" stroke="#979797" stroke-width="0.5881" stroke-linecap="round" stroke-linejoin="round"/>
<path d="M21.0981 32.7551L16.501 11.3828" stroke="#979797" stroke-width="0.5881" stroke-linecap="round" stroke-linejoin="round"/>
<path d="M24.752 31.05L20.5811 11.6262" stroke="#979797" stroke-width="0.5881" stroke-linecap="round" stroke-linejoin="round"/>
<path d="M28.4051 10.7432C28.1007 10.7432 24.9649 9.98213 25.3607 7.69877C25.6651 5.87208 26.5784 3.43649 29.6229 3.74094C32.6674 4.04539 34.4941 7.69877 37.2341 8.30766C39.9742 8.91656 43.6275 11.0477 43.932 11.961" stroke="#979797" stroke-linecap="round" stroke-linejoin="round"/>
<path d="M31.4736 4.1513C31.4736 4.1513 33.8799 1.04924 36.6252 1.00098C39.8941 0.943515 41.9955 3.44588 42.2999 3.75033C42.6044 4.05478 44.8453 6.1766 45.1497 7.69884C45.4542 9.22108 45.1497 11.9611 45.1497 11.9611" stroke="#979797" stroke-linecap="round" stroke-linejoin="round"/>
<path d="M43.3232 13.1789C43.3232 13.1789 43.9321 11.6567 45.1499 12.2656C46.3677 12.8745 45.4544 13.7878 45.1499 14.7012C44.8455 15.6145 44.2366 17.4412 43.6277 17.4412" stroke="#979797" stroke-linecap="round" stroke-linejoin="round"/>
<path d="M28.6669 10.9679C28.6671 14.5767 28.4592 15.2523 29.0681 17.3835C29.677 19.5146 30.8403 23.5302 31.1447 24.4435C31.8268 26.4897 34.667 25.6109 35.8848 25.002C37.1026 24.3931 39.3648 22.6168 40.5826 22.0079C41.8004 21.399 43.3227 20.7901 43.9316 20.1812C44.7062 19.4066 43.1023 18.9874 43.1023 18.9874" stroke="#979797" stroke-linecap="round" stroke-linejoin="round"/>
<path d="M43.3227 17.7456C43.0183 18.3545 43.0487 20.7901 43.0487 20.7901" stroke="#979797" stroke-linecap="round" stroke-linejoin="round"/>
<path d="M44.542 20.1813C44.542 20.1813 46.3687 23.8347 46.6731 24.748C46.9776 25.6613 46.9776 25.9658 46.9776 25.9658C46.9776 25.9658 52.3249 31.0165 54.2843 37.432C55.5327 43.8476 54.8932 52.7572 54.2843 57.9328C53.6754 63.1085 53.371 65.544 53.371 65.8485" stroke="#979797" stroke-linecap="round" stroke-linejoin="round"/>
<path d="M46.711 26.2048C45.6418 26.8731 43.0221 28.4503 41.0974 29.4126C39.1727 30.375 35.4838 31.4175 33.8799 31.8185" stroke="#979797" stroke-width="0.59"/>
<path d="M36.6865 40.2389C37.8894 43.8477 40.2953 48.2584 43.5031 51.4662C43.5031 51.4662 56.0038 44.9479 53.1264 38.234C51.2997 33.9718 47.2802 33.5769 40.5823 37.5348C33.8844 41.4926 26.2732 46.6682 26.2732 46.6682C26.2732 46.6682 18.3576 39.6659 17.7487 37.2303C17.1398 34.7947 18.0531 33.5769 17.1398 31.7502C16.2265 29.9235 14.0953 26.5746 13.4864 25.9657C12.5731 25.0524 11.6597 25.6613 11.6597 26.5746C11.6597 27.488 13.7909 30.5324 13.7909 30.5324C13.7909 30.5324 11.3553 29.3147 10.4419 28.7058C9.5286 28.0969 8.31081 26.8791 8.31081 26.8791C8.31081 26.8791 7.39746 26.8791 7.39746 27.7924C7.39746 29.0102 9.5286 30.8369 9.83305 31.1413" stroke="#979797" stroke-linecap="round" stroke-linejoin="round"/>
<path d="M8.61621 30.5325C8.61621 30.8369 10.4429 33.577 11.6607 35.4036C12.8785 37.2303 13.4874 37.8392 13.7918 38.4481C14.0963 39.057 15.923 47.5816 17.7497 51.5394C19.5763 55.4972 20.4897 57.9328 25.9698 56.715C31.4498 55.4972 42.1055 50.626 42.1055 50.626" stroke="#979797" stroke-linecap="round" stroke-linejoin="round"/>
<path d="M23.1084 43.6846C23.4546 42.2437 24.2071 39.0944 25.0584 36.6301C25.6369 34.9556 27.0536 31.8385 28.6672 31.0165" stroke="#979797" stroke-linecap="round" stroke-linejoin="round"/>
<path d="M30.506 23.6215C29.1664 24.0781 27.8268 24.5348 26.5177 25.0219C26.3655 25.0828 26.1523 25.1741 26.1523 25.3568C26.1523 25.4481 26.2132 25.5395 26.2437 25.6004C27.7355 27.7011 28.9533 30.0149 29.5317 32.5113C30.1102 35.0078 29.7022 38.2651 28.667 40.6398" stroke="#979797" stroke-linecap="round" stroke-linejoin="round"/>
<path d="M36.0164 25.235C34.0071 25.9657 31.9064 26.3919 29.7753 26.4832C30.3842 28.4926 30.9626 30.5628 30.8104 32.6635C30.7495 33.6378 30.5059 34.612 30.2319 35.5862C29.8666 37.0171 29.4708 38.448 28.8924 39.8485C28.0399 41.9187 26.8526 43.7759 25.6348 45.6635" stroke="#979797" stroke-linecap="round" stroke-linejoin="round"/>
<path d="M30.0791 11.7479C30.5053 11.7784 30.9011 11.8393 31.2969 11.961C31.4796 12.0219 31.6927 12.0828 31.8449 12.2046C32.1493 12.4177 32.2711 12.8135 32.3016 13.1788C32.3929 14.1531 31.9667 15.1273 31.5405 16.0102C31.4796 16.1624 31.3882 16.3146 31.4187 16.4669C31.4796 16.7409 31.8145 16.8931 32.1189 16.9235C32.6669 16.9844 33.2149 16.8627 33.702 16.6191" stroke="#979797" stroke-linecap="round" stroke-linejoin="round"/>
<path d="M33.6719 11.9916C34.9506 11.5958 36.3206 11.535 37.5993 11.8698" stroke="#979797" stroke-linecap="round" stroke-linejoin="round"/>
<path d="M34.6465 13.1484C35.7425 12.7526 36.9907 12.7526 38.1172 13.1484" stroke="#979797" stroke-width="0.59" stroke-linecap="round" stroke-linejoin="round"/>
<path d="M28.7402 13.8791C29.7145 13.5138 30.78 13.1484 31.7543 13.4529" stroke="#979797" stroke-width="0.59" stroke-linecap="round" stroke-linejoin="round"/>
<path d="M30.0189 13.6052C29.9885 13.5748 29.958 13.6357 29.958 13.6661C29.958 13.8183 29.958 13.9706 30.0493 14.0923C30.1407 14.2141 30.2929 14.2446 30.4451 14.275C30.5974 14.3055 30.7496 14.3055 30.8714 14.2446C31.054 14.1532 31.1149 13.9097 31.054 13.727" fill="#979797"/>
<path d="M36.1383 12.9354C36.1687 12.9354 36.1383 12.9049 36.1383 12.9049C36.1383 12.9049 36.1078 12.9049 36.0774 12.9049C35.9251 12.9354 35.7729 13.0267 35.7425 13.1789C35.712 13.3007 35.7729 13.4225 35.8338 13.5138C35.986 13.7269 36.2905 13.8183 36.534 13.7574C36.6254 13.7269 36.7167 13.6965 36.7472 13.6051C36.808 13.5442 36.808 13.4225 36.7776 13.3311" fill="#979797"/>
<path d="M32.2764 20.4065C33.0783 20.5912 34.2812 20.5912 35.4769 20.1902" stroke="#979797" stroke-width="0.59" stroke-linecap="round" stroke-linejoin="round"/>
<path d="M13.6999 38.509C13.2128 42.5582 12.9997 46.6378 13.1215 50.7174C13.1215 51.1436 13.1519 51.6003 13.4259 51.9048C13.6999 52.2396 14.1566 52.331 14.5828 52.3614C15.3744 52.4528 16.1964 52.4832 16.988 52.4832" stroke="#979797" stroke-linecap="round" stroke-linejoin="round"/>
<path d="M21.9509 56.8672C21.9814 59.9421 21.8506 62.2925 21.8506 65.9012" stroke="#979797" stroke-linecap="round" stroke-linejoin="round"/>
<path d="M28.6182 11.0782C28.6486 10.0735 28.9531 9.06882 29.5011 8.24681C29.7751 7.82059 30.11 7.45525 30.4753 7.12036C31.2364 6.42012 32.4441 5.97346 33.4792 6.15613" stroke="#979797" stroke-width="1.1761" stroke-linecap="round" stroke-linejoin="round"/>
</svg>
